<svg width="1440" height="1012" viewBox="0 0 1440 1012" fill="none" xmlns="http://www.w3.org/2000/svg">
<rect width="1440" height="1012" fill="#2C0D5E"/>
<path d="M535.345 290L527.39 260.909H530.97L537.049 284.602H537.334L543.527 260.909H547.504L553.697 284.602H553.981L560.061 260.909H563.64L555.686 290H552.049L545.629 266.818H545.402L538.981 290H535.345ZM565.53 260.909H569.564L577.632 274.489H577.973L586.041 260.909H590.075L579.564 278.011V290H576.041V278.011L565.53 260.909ZM610.54 268.182C610.37 266.742 609.678 265.625 608.466 264.83C607.254 264.034 605.767 263.636 604.006 263.636C602.718 263.636 601.591 263.845 600.625 264.261C599.669 264.678 598.921 265.251 598.381 265.98C597.851 266.709 597.586 267.538 597.586 268.466C597.586 269.242 597.77 269.91 598.14 270.469C598.518 271.018 599.001 271.477 599.589 271.847C600.176 272.206 600.791 272.505 601.435 272.741C602.079 272.969 602.671 273.153 603.211 273.295L606.165 274.091C606.923 274.29 607.766 274.564 608.694 274.915C609.631 275.265 610.526 275.743 611.378 276.349C612.24 276.946 612.95 277.713 613.509 278.651C614.068 279.588 614.347 280.739 614.347 282.102C614.347 283.674 613.935 285.095 613.111 286.364C612.297 287.633 611.104 288.641 609.532 289.389C607.969 290.137 606.071 290.511 603.836 290.511C601.752 290.511 599.948 290.175 598.424 289.503C596.909 288.83 595.715 287.893 594.844 286.69C593.982 285.488 593.495 284.091 593.381 282.5H597.017C597.112 283.598 597.482 284.508 598.125 285.227C598.779 285.937 599.603 286.468 600.597 286.818C601.601 287.159 602.68 287.33 603.836 287.33C605.18 287.33 606.388 287.112 607.458 286.676C608.528 286.231 609.375 285.616 610 284.83C610.625 284.034 610.938 283.106 610.938 282.045C610.938 281.08 610.668 280.294 610.128 279.688C609.589 279.081 608.878 278.589 607.998 278.21C607.117 277.831 606.165 277.5 605.142 277.216L601.563 276.193C599.29 275.54 597.491 274.607 596.165 273.395C594.839 272.183 594.177 270.597 594.177 268.636C594.177 267.008 594.617 265.587 595.498 264.375C596.388 263.153 597.581 262.206 599.077 261.534C600.583 260.852 602.264 260.511 604.12 260.511C605.995 260.511 607.661 260.848 609.12 261.52C610.578 262.183 611.733 263.092 612.586 264.247C613.447 265.402 613.902 266.714 613.949 268.182H610.54ZM602.302 257.955L605.767 251.364H609.688L605.256 257.955H602.302ZM620.139 290V260.909H623.662V286.875H637.184V290H620.139ZM646.162 260.909V290H642.639V260.909H646.162ZM664.361 260.909H667.884V281.705C667.884 283.561 667.543 285.137 666.861 286.435C666.179 287.732 665.218 288.717 663.978 289.389C662.737 290.062 661.274 290.398 659.589 290.398C657.998 290.398 656.582 290.109 655.341 289.531C654.101 288.944 653.125 288.111 652.415 287.031C651.705 285.952 651.35 284.669 651.35 283.182H654.816C654.816 284.006 655.019 284.725 655.427 285.341C655.843 285.947 656.411 286.42 657.131 286.761C657.851 287.102 658.67 287.273 659.589 287.273C660.602 287.273 661.464 287.06 662.174 286.634C662.884 286.207 663.424 285.582 663.793 284.759C664.172 283.925 664.361 282.907 664.361 281.705V260.909ZM685.228 290V287.443L700.91 264.034H685.057V260.909H705.114V263.466L689.432 286.875H705.285V290H685.228ZM712.387 290H708.694L719.375 260.909H723.012L733.694 290H730L721.307 265.511H721.08L712.387 290ZM713.75 278.636H728.637V281.761H713.75V278.636ZM738.225 290V260.909H748.054C750.337 260.909 752.202 261.321 753.651 262.145C755.109 262.959 756.189 264.062 756.89 265.455C757.59 266.847 757.941 268.4 757.941 270.114C757.941 271.828 757.59 273.385 756.89 274.787C756.198 276.188 755.128 277.306 753.679 278.139C752.231 278.963 750.374 279.375 748.111 279.375H741.066V276.25H747.998C749.56 276.25 750.815 275.98 751.762 275.44C752.709 274.901 753.395 274.171 753.821 273.253C754.257 272.325 754.475 271.278 754.475 270.114C754.475 268.949 754.257 267.907 753.821 266.989C753.395 266.07 752.704 265.35 751.748 264.83C750.791 264.299 749.522 264.034 747.941 264.034H741.748V290H738.225ZM761.116 260.909H765.15L773.218 274.489H773.559L781.627 260.909H785.661L775.15 278.011V290H771.627V278.011L761.116 260.909ZM790.462 264.034V260.909H812.28V264.034H803.133V290H799.61V264.034H790.462ZM815.512 290H811.819L822.5 260.909H826.137L836.819 290H833.125L824.432 265.511H824.205L815.512 290ZM816.875 278.636H831.762V281.761H816.875V278.636ZM864.418 260.909V290H861.009L845.157 267.159H844.873V290H841.35V260.909H844.759L860.668 283.807H860.952V260.909H864.418ZM874.99 260.909V290H871.467V260.909H874.99ZM882.053 290V260.909H899.61V264.034H885.576V273.864H898.701V276.989H885.576V286.875H899.837V290H882.053ZM907.948 286.278C907.247 286.278 906.646 286.027 906.144 285.526C905.642 285.024 905.391 284.422 905.391 283.722C905.391 283.021 905.642 282.42 906.144 281.918C906.646 281.416 907.247 281.165 907.948 281.165C908.649 281.165 909.25 281.416 909.752 281.918C910.254 282.42 910.505 283.021 910.505 283.722C910.505 284.186 910.386 284.612 910.15 285C909.922 285.388 909.615 285.701 909.226 285.938C908.848 286.165 908.421 286.278 907.948 286.278ZM907.948 271.562C907.247 271.562 906.646 271.312 906.144 270.81C905.642 270.308 905.391 269.706 905.391 269.006C905.391 268.305 905.642 267.704 906.144 267.202C906.646 266.7 907.247 266.449 907.948 266.449C908.649 266.449 909.25 266.7 909.752 267.202C910.254 267.704 910.505 268.305 910.505 269.006C910.505 269.47 910.386 269.896 910.15 270.284C909.922 270.672 909.615 270.985 909.226 271.222C908.848 271.449 908.421 271.562 907.948 271.562Z" fill="white"/>
<rect x="541.655" y="314.5" width="359" height="59" rx="9.5" stroke="white"/>
<g clip-path="url(#clip0_422_139)">
<path d="M568.004 351V335.727H577.222V337.368H569.854V342.528H576.744V344.169H569.854V349.359H577.341V351H568.004ZM580.316 351V339.545H582.017V341.335H582.166C582.404 340.724 582.79 340.249 583.322 339.911C583.854 339.568 584.492 339.396 585.238 339.396C585.994 339.396 586.623 339.568 587.125 339.911C587.632 340.249 588.027 340.724 588.311 341.335H588.43C588.723 340.744 589.163 340.274 589.75 339.926C590.337 339.573 591.04 339.396 591.86 339.396C592.885 339.396 593.722 339.717 594.374 340.358C595.025 340.995 595.35 341.987 595.35 343.334V351H593.591V343.334C593.591 342.489 593.359 341.885 592.897 341.522C592.435 341.159 591.89 340.977 591.264 340.977C590.458 340.977 589.834 341.221 589.392 341.708C588.95 342.19 588.728 342.802 588.728 343.543V351H586.939V343.155C586.939 342.504 586.727 341.979 586.305 341.581C585.882 341.179 585.338 340.977 584.671 340.977C584.214 340.977 583.787 341.099 583.389 341.343C582.996 341.586 582.678 341.924 582.434 342.357C582.196 342.784 582.076 343.279 582.076 343.841V351H580.316ZM601.939 351.268C601.213 351.268 600.554 351.132 599.963 350.858C599.371 350.58 598.901 350.18 598.553 349.658C598.205 349.131 598.031 348.494 598.031 347.749C598.031 347.092 598.161 346.56 598.419 346.153C598.678 345.74 599.023 345.417 599.456 345.183C599.888 344.95 600.366 344.776 600.888 344.661C601.415 344.542 601.944 344.447 602.476 344.378C603.172 344.288 603.736 344.221 604.169 344.176C604.606 344.127 604.924 344.045 605.123 343.93C605.327 343.816 605.429 343.617 605.429 343.334V343.274C605.429 342.538 605.228 341.967 604.825 341.559C604.427 341.151 603.823 340.947 603.013 340.947C602.173 340.947 601.514 341.131 601.037 341.499C600.559 341.867 600.224 342.26 600.03 342.678L598.36 342.081C598.658 341.385 599.056 340.843 599.553 340.455C600.055 340.062 600.602 339.789 601.193 339.635C601.79 339.476 602.377 339.396 602.953 339.396C603.321 339.396 603.744 339.441 604.221 339.531C604.703 339.615 605.168 339.792 605.616 340.06C606.068 340.328 606.443 340.734 606.742 341.276C607.04 341.817 607.189 342.543 607.189 343.453V351H605.429V349.449H605.34C605.22 349.697 605.021 349.963 604.743 350.247C604.465 350.53 604.094 350.771 603.632 350.97C603.17 351.169 602.605 351.268 601.939 351.268ZM602.208 349.688C602.904 349.688 603.49 349.551 603.967 349.277C604.45 349.004 604.813 348.651 605.056 348.218C605.305 347.786 605.429 347.331 605.429 346.854V345.243C605.355 345.332 605.19 345.414 604.937 345.489C604.688 345.559 604.4 345.621 604.072 345.675C603.749 345.725 603.433 345.77 603.125 345.81C602.822 345.844 602.575 345.874 602.386 345.899C601.929 345.959 601.502 346.056 601.104 346.19C600.711 346.319 600.393 346.516 600.149 346.779C599.911 347.038 599.791 347.391 599.791 347.838C599.791 348.45 600.018 348.912 600.47 349.225C600.927 349.533 601.507 349.688 602.208 349.688ZM610.401 351V339.545H612.161V351H610.401ZM611.296 337.636C610.953 337.636 610.657 337.52 610.409 337.286C610.165 337.052 610.043 336.771 610.043 336.443C610.043 336.115 610.165 335.834 610.409 335.6C610.657 335.367 610.953 335.25 611.296 335.25C611.639 335.25 611.933 335.367 612.176 335.6C612.425 335.834 612.549 336.115 612.549 336.443C612.549 336.771 612.425 337.052 612.176 337.286C611.933 337.52 611.639 337.636 611.296 337.636ZM617.145 335.727V351H615.385V335.727H617.145Z" fill="white"/>
</g>
<rect x="541.5" y="465.5" width="359" height="111" rx="9.5" stroke="white"/>
<g clip-path="url(#clip1_422_139)">
<path d="M567.014 488.368V486.727H578.469V488.368H573.666V502H571.817V488.368H567.014ZM579.895 502V490.545H581.595V492.276H581.715C581.923 491.709 582.301 491.249 582.848 490.896C583.395 490.543 584.011 490.366 584.698 490.366C584.827 490.366 584.988 490.369 585.182 490.374C585.376 490.379 585.523 490.386 585.622 490.396V492.186C585.563 492.171 585.426 492.149 585.212 492.119C585.003 492.084 584.782 492.067 584.548 492.067C583.992 492.067 583.494 492.184 583.057 492.417C582.624 492.646 582.281 492.964 582.028 493.372C581.779 493.775 581.655 494.234 581.655 494.751V502H579.895ZM592.162 502.239C591.059 502.239 590.107 501.995 589.306 501.508C588.511 501.016 587.897 500.33 587.464 499.45C587.037 498.565 586.823 497.536 586.823 496.362C586.823 495.189 587.037 494.155 587.464 493.26C587.897 492.36 588.498 491.659 589.269 491.157C590.044 490.65 590.949 490.396 591.983 490.396C592.58 490.396 593.169 490.496 593.751 490.695C594.332 490.893 594.862 491.217 595.339 491.664C595.816 492.107 596.197 492.693 596.48 493.424C596.764 494.155 596.905 495.055 596.905 496.124V496.869H588.076V495.348H595.116C595.116 494.702 594.986 494.125 594.728 493.618C594.474 493.111 594.111 492.711 593.639 492.417C593.172 492.124 592.62 491.977 591.983 491.977C591.282 491.977 590.676 492.151 590.164 492.499C589.657 492.842 589.266 493.29 588.993 493.842C588.72 494.393 588.583 494.985 588.583 495.616V496.631C588.583 497.496 588.732 498.229 589.03 498.831C589.334 499.427 589.754 499.882 590.291 500.195C590.828 500.504 591.451 500.658 592.162 500.658C592.625 500.658 593.042 500.593 593.415 500.464C593.793 500.33 594.119 500.131 594.392 499.867C594.666 499.599 594.877 499.266 595.026 498.868L596.726 499.345C596.547 499.922 596.247 500.429 595.824 500.866C595.401 501.299 594.879 501.637 594.258 501.881C593.636 502.119 592.938 502.239 592.162 502.239ZM607.696 493.111L606.115 493.558C606.016 493.295 605.869 493.039 605.675 492.79C605.486 492.537 605.228 492.328 604.9 492.164C604.571 492 604.151 491.918 603.639 491.918C602.938 491.918 602.354 492.079 601.887 492.402C601.424 492.721 601.193 493.126 601.193 493.618C601.193 494.055 601.352 494.401 601.671 494.654C601.989 494.908 602.486 495.119 603.162 495.288L604.862 495.706C605.886 495.955 606.65 496.335 607.152 496.847C607.654 497.354 607.905 498.008 607.905 498.808C607.905 499.464 607.716 500.051 607.338 500.568C606.965 501.085 606.443 501.493 605.772 501.791C605.101 502.089 604.32 502.239 603.43 502.239C602.262 502.239 601.295 501.985 600.53 501.478C599.764 500.971 599.279 500.23 599.075 499.256L600.746 498.838C600.905 499.455 601.206 499.917 601.648 500.225C602.096 500.533 602.68 500.688 603.401 500.688C604.221 500.688 604.872 500.513 605.354 500.165C605.842 499.812 606.085 499.39 606.085 498.898C606.085 498.5 605.946 498.167 605.668 497.898C605.389 497.625 604.962 497.421 604.385 497.287L602.476 496.839C601.427 496.591 600.656 496.206 600.164 495.684C599.677 495.157 599.433 494.498 599.433 493.707C599.433 493.061 599.615 492.489 599.978 491.992C600.346 491.495 600.845 491.105 601.477 490.821C602.113 490.538 602.834 490.396 603.639 490.396C604.773 490.396 605.663 490.645 606.309 491.142C606.96 491.639 607.423 492.295 607.696 493.111ZM602.834 488.994L604.653 485.534H606.712L604.385 488.994H602.834ZM615.208 502.239C614.134 502.239 613.209 501.985 612.433 501.478C611.658 500.971 611.061 500.272 610.644 499.382C610.226 498.493 610.017 497.476 610.017 496.332C610.017 495.169 610.231 494.142 610.659 493.252C611.091 492.358 611.693 491.659 612.463 491.157C613.239 490.65 614.144 490.396 615.178 490.396C615.983 490.396 616.709 490.545 617.355 490.844C618.002 491.142 618.531 491.56 618.944 492.097C619.356 492.634 619.612 493.26 619.712 493.976H617.952C617.818 493.454 617.519 492.991 617.057 492.589C616.6 492.181 615.983 491.977 615.208 491.977C614.521 491.977 613.92 492.156 613.403 492.514C612.891 492.867 612.491 493.367 612.202 494.013C611.919 494.654 611.777 495.408 611.777 496.273C611.777 497.158 611.916 497.928 612.195 498.585C612.478 499.241 612.876 499.75 613.388 500.113C613.905 500.476 614.512 500.658 615.208 500.658C615.665 500.658 616.08 500.578 616.453 500.419C616.826 500.26 617.142 500.031 617.4 499.733C617.659 499.435 617.843 499.077 617.952 498.659H619.712C619.612 499.335 619.366 499.944 618.974 500.486C618.586 501.023 618.071 501.451 617.43 501.769C616.794 502.082 616.053 502.239 615.208 502.239ZM614.343 488.994L616.162 485.534H618.22L615.894 488.994H614.343Z" fill="white"/>
</g>
<rect x="540" y="593" width="360" height="56.5" rx="10" fill="white"/>
<path d="M683.824 630L680.078 616.909H683.101L685.268 626.005H685.377L687.768 616.909H690.356L692.741 626.024H692.856L695.023 616.909H698.046L694.3 630H691.603L689.11 621.441H689.008L686.521 630H683.824ZM701.46 616.909H704.561L707.546 622.547H707.673L710.659 616.909H713.759L708.984 625.372V630H706.235V625.372L701.46 616.909ZM725.072 620.674C725.021 620.158 724.801 619.758 724.414 619.472C724.026 619.187 723.5 619.044 722.835 619.044C722.383 619.044 722.002 619.108 721.691 619.236C721.379 619.359 721.141 619.532 720.975 619.754C720.813 619.975 720.732 620.227 720.732 620.508C720.723 620.742 720.772 620.947 720.879 621.121C720.99 621.296 721.141 621.447 721.333 621.575C721.524 621.699 721.746 621.808 721.997 621.901C722.249 621.991 722.517 622.067 722.803 622.131L723.979 622.413C724.55 622.54 725.074 622.711 725.551 622.924C726.029 623.137 726.442 623.399 726.791 623.71C727.141 624.021 727.411 624.388 727.603 624.81C727.799 625.232 727.899 625.715 727.904 626.261C727.899 627.062 727.695 627.756 727.29 628.344C726.889 628.928 726.31 629.382 725.551 629.706C724.797 630.026 723.887 630.185 722.822 630.185C721.765 630.185 720.845 630.023 720.061 629.7C719.281 629.376 718.671 628.896 718.232 628.261C717.798 627.622 717.57 626.832 717.549 625.89H720.227C720.257 626.329 720.382 626.695 720.604 626.989C720.83 627.279 721.13 627.499 721.505 627.648C721.884 627.793 722.313 627.865 722.79 627.865C723.259 627.865 723.666 627.797 724.011 627.661C724.36 627.524 724.631 627.335 724.823 627.092C725.014 626.849 725.11 626.57 725.11 626.254C725.11 625.96 725.023 625.713 724.848 625.513C724.678 625.312 724.426 625.142 724.094 625.001C723.766 624.861 723.363 624.733 722.886 624.618L721.46 624.26C720.357 623.991 719.485 623.572 718.846 623.001C718.207 622.43 717.889 621.661 717.894 620.693C717.889 619.901 718.1 619.208 718.527 618.616C718.957 618.023 719.547 617.561 720.297 617.229C721.047 616.896 721.899 616.73 722.854 616.73C723.826 616.73 724.674 616.896 725.398 617.229C726.127 617.561 726.693 618.023 727.098 618.616C727.503 619.208 727.712 619.894 727.725 620.674H725.072ZM721.748 615.643L723.103 612.735H725.622L723.672 615.643H721.748ZM732.465 630V616.909H735.233V627.718H740.845V630H732.465ZM748.146 616.909V630H745.378V616.909H748.146ZM758.365 616.909H761.1V626.037C761.1 626.881 760.911 627.614 760.532 628.236C760.157 628.858 759.634 629.337 758.965 629.674C758.296 630.011 757.519 630.179 756.632 630.179C755.844 630.179 755.128 630.04 754.485 629.763C753.845 629.482 753.338 629.056 752.963 628.485C752.588 627.91 752.403 627.187 752.407 626.318H755.162C755.171 626.663 755.241 626.96 755.373 627.207C755.509 627.45 755.695 627.637 755.929 627.769C756.168 627.897 756.449 627.961 756.773 627.961C757.114 627.961 757.402 627.888 757.636 627.744C757.875 627.594 758.056 627.377 758.179 627.092C758.303 626.806 758.365 626.455 758.365 626.037V616.909Z" fill="#012F69"/>
<rect x="541.5" y="390.5" width="359" height="59" rx="9.5" stroke="white"/>
<g clip-path="url(#clip2_422_139)">
<path d="M567.014 413.368V411.727H578.469V413.368H573.666V427H571.817V413.368H567.014ZM584.226 427.239C583.122 427.239 582.17 426.995 581.37 426.508C580.574 426.016 579.96 425.33 579.528 424.45C579.1 423.565 578.886 422.536 578.886 421.362C578.886 420.189 579.1 419.155 579.528 418.26C579.96 417.36 580.562 416.659 581.332 416.157C582.108 415.65 583.013 415.396 584.047 415.396C584.643 415.396 585.233 415.496 585.814 415.695C586.396 415.893 586.925 416.217 587.403 416.664C587.88 417.107 588.26 417.693 588.544 418.424C588.827 419.155 588.969 420.055 588.969 421.124V421.869H580.139V420.348H587.179C587.179 419.702 587.05 419.125 586.791 418.618C586.538 418.111 586.175 417.711 585.702 417.417C585.235 417.124 584.683 416.977 584.047 416.977C583.346 416.977 582.739 417.151 582.227 417.499C581.72 417.842 581.33 418.29 581.056 418.842C580.783 419.393 580.646 419.985 580.646 420.616V421.631C580.646 422.496 580.795 423.229 581.094 423.831C581.397 424.427 581.817 424.882 582.354 425.195C582.891 425.504 583.515 425.658 584.226 425.658C584.688 425.658 585.106 425.593 585.479 425.464C585.857 425.33 586.182 425.131 586.456 424.867C586.729 424.599 586.94 424.266 587.089 423.868L588.79 424.345C588.611 424.922 588.31 425.429 587.887 425.866C587.465 426.299 586.943 426.637 586.321 426.881C585.7 427.119 585.001 427.239 584.226 427.239ZM591.646 427V415.545H593.346V417.335H593.495C593.734 416.724 594.119 416.249 594.651 415.911C595.183 415.568 595.822 415.396 596.568 415.396C597.324 415.396 597.952 415.568 598.455 415.911C598.962 416.249 599.357 416.724 599.64 417.335H599.76C600.053 416.744 600.493 416.274 601.08 415.926C601.666 415.573 602.37 415.396 603.19 415.396C604.214 415.396 605.052 415.717 605.703 416.358C606.354 416.995 606.68 417.987 606.68 419.334V427H604.92V419.334C604.92 418.489 604.689 417.885 604.227 417.522C603.764 417.159 603.22 416.977 602.593 416.977C601.788 416.977 601.164 417.221 600.722 417.708C600.279 418.19 600.058 418.802 600.058 419.543V427H598.268V419.155C598.268 418.504 598.057 417.979 597.634 417.581C597.212 417.179 596.667 416.977 596.001 416.977C595.544 416.977 595.116 417.099 594.718 417.343C594.326 417.586 594.007 417.924 593.764 418.357C593.525 418.784 593.406 419.279 593.406 419.841V427H591.646ZM613.269 427.268C612.543 427.268 611.884 427.132 611.292 426.858C610.701 426.58 610.231 426.18 609.883 425.658C609.535 425.131 609.361 424.494 609.361 423.749C609.361 423.092 609.49 422.56 609.749 422.153C610.007 421.74 610.353 421.417 610.785 421.183C611.218 420.95 611.695 420.776 612.217 420.661C612.744 420.542 613.274 420.447 613.806 420.378C614.502 420.288 615.066 420.221 615.498 420.176C615.936 420.127 616.254 420.045 616.453 419.93C616.657 419.816 616.759 419.617 616.759 419.334V419.274C616.759 418.538 616.557 417.967 616.155 417.559C615.757 417.151 615.153 416.947 614.343 416.947C613.502 416.947 612.844 417.131 612.366 417.499C611.889 417.867 611.553 418.26 611.36 418.678L609.689 418.081C609.987 417.385 610.385 416.843 610.882 416.455C611.384 416.062 611.931 415.789 612.523 415.635C613.119 415.476 613.706 415.396 614.283 415.396C614.651 415.396 615.073 415.441 615.551 415.531C616.033 415.615 616.498 415.792 616.945 416.06C617.398 416.328 617.773 416.734 618.071 417.276C618.369 417.817 618.519 418.543 618.519 419.453V427H616.759V425.449H616.669C616.55 425.697 616.351 425.963 616.073 426.247C615.794 426.53 615.424 426.771 614.961 426.97C614.499 427.169 613.935 427.268 613.269 427.268ZM613.537 425.688C614.233 425.688 614.82 425.551 615.297 425.277C615.779 425.004 616.142 424.651 616.386 424.218C616.634 423.786 616.759 423.331 616.759 422.854V421.243C616.684 421.332 616.52 421.414 616.267 421.489C616.018 421.559 615.73 421.621 615.401 421.675C615.078 421.725 614.763 421.77 614.454 421.81C614.151 421.844 613.905 421.874 613.716 421.899C613.259 421.959 612.831 422.056 612.433 422.19C612.041 422.319 611.722 422.516 611.479 422.779C611.24 423.038 611.121 423.391 611.121 423.838C611.121 424.45 611.347 424.912 611.8 425.225C612.257 425.533 612.836 425.688 613.537 425.688ZM626.712 415.545V417.037H620.776V415.545H626.712ZM622.506 412.801H624.266V423.719C624.266 424.216 624.339 424.589 624.483 424.837C624.632 425.081 624.821 425.245 625.049 425.33C625.283 425.409 625.529 425.449 625.788 425.449C625.982 425.449 626.141 425.439 626.265 425.419C626.389 425.394 626.489 425.374 626.563 425.359L626.921 426.94C626.802 426.985 626.635 427.03 626.422 427.075C626.208 427.124 625.937 427.149 625.609 427.149C625.112 427.149 624.624 427.042 624.147 426.828C623.675 426.615 623.282 426.289 622.969 425.852C622.661 425.414 622.506 424.862 622.506 424.196V412.801Z" fill="white"/>
</g>
<g filter="url(#filter0_d_422_139)">
<rect x="540" y="666" width="50" height="50" rx="10" fill="#475994" shape-rendering="crispEdges"/>
<g clip-path="url(#clip3_422_139)">
<path d="M569.988 681.134V684.08H568.236C566.863 684.08 566.607 684.739 566.607 685.687V687.796H569.877L569.442 691.1H566.607V699.571H563.192V691.1H560.346V687.796H563.192V685.364C563.192 682.54 564.922 681 567.444 681C568.649 681 569.687 681.089 569.988 681.134Z" fill="white"/>
</g>
</g>
<g filter="url(#filter1_d_422_139)">
<rect x="602" y="666" width="50" height="50" rx="10" fill="#111111" shape-rendering="crispEdges"/>
<g clip-path="url(#clip4_422_139)">
<path fill-rule="evenodd" clip-rule="evenodd" d="M627 681.249C624.624 681.246 622.324 682.09 620.513 683.629C618.703 685.168 617.499 687.302 617.119 689.647C616.738 691.993 617.206 694.398 618.437 696.43C619.668 698.463 621.583 699.99 623.838 700.739C624.342 700.831 624.52 700.518 624.52 700.254V698.554C621.727 699.161 621.137 697.209 621.137 697.209C620.952 696.604 620.558 696.084 620.026 695.742C619.124 695.128 620.1 695.128 620.1 695.128C620.416 695.173 620.718 695.289 620.983 695.468C621.248 695.646 621.469 695.883 621.629 696.16C621.764 696.406 621.947 696.623 622.167 696.798C622.387 696.974 622.64 697.104 622.91 697.181C623.18 697.259 623.463 697.282 623.743 697.25C624.022 697.218 624.293 697.131 624.538 696.994C624.577 696.489 624.795 696.015 625.152 695.656C622.93 695.404 620.597 694.545 620.597 690.745C620.582 689.753 620.949 688.792 621.622 688.063C621.322 687.199 621.358 686.255 621.721 685.417C621.721 685.417 622.562 685.147 624.471 686.442C626.11 685.992 627.841 685.992 629.48 686.442C631.389 685.147 632.224 685.417 632.224 685.417C632.592 686.246 632.636 687.184 632.347 688.044C633.02 688.774 633.387 689.734 633.372 690.727C633.372 694.57 631.033 695.411 628.805 695.638C629.044 695.878 629.228 696.167 629.346 696.484C629.463 696.802 629.511 697.141 629.486 697.479V700.223C629.486 700.549 629.664 700.8 630.174 700.702C632.403 699.934 634.289 698.402 635.499 696.377C636.709 694.353 637.164 691.966 636.784 689.638C636.404 687.31 635.214 685.192 633.424 683.657C631.634 682.122 629.358 681.269 627 681.249Z" fill="white"/>
</g>
</g>
<g filter="url(#filter2_d_422_139)">
<rect x="664" y="666" width="50" height="50" rx="10" fill="#DD4B39" shape-rendering="crispEdges"/>
<path d="M689.173 689.772H697.264C697.343 690.208 697.399 690.631 697.399 691.201C697.399 696.089 694.117 699.571 689.173 699.571C684.43 699.571 680.602 695.743 680.602 691C680.602 686.257 684.43 682.428 689.173 682.428C691.483 682.428 693.425 683.277 694.921 684.671L692.587 686.916C691.952 686.301 690.835 685.587 689.172 685.587C686.248 685.587 683.859 688.009 683.859 691.001C683.859 693.992 686.249 696.413 689.173 696.413C692.566 696.413 693.838 693.98 694.039 692.718H689.173V689.772Z" fill="white"/>
</g>
<g filter="url(#filter3_d_422_139)">
<rect x="726" y="666" width="50" height="50" rx="10" fill="#0477B8" shape-rendering="crispEdges"/>
<path d="M746.324 687.976V699.036H742.641V687.976H746.324ZM746.558 684.56C746.569 685.62 745.766 686.469 744.482 686.469H744.46C743.222 686.469 742.429 685.62 742.429 684.56C742.429 683.477 743.254 682.651 744.504 682.651C745.766 682.651 746.547 683.477 746.558 684.56ZM759.572 692.696V699.036H755.899V693.121C755.899 691.636 755.364 690.621 754.036 690.621C753.02 690.621 752.417 691.301 752.149 691.96C752.06 692.206 752.027 692.529 752.027 692.864V699.036H748.354C748.399 689.014 748.354 687.976 748.354 687.976H752.027V689.584H752.004C752.484 688.825 753.355 687.72 755.342 687.72C757.764 687.72 759.572 689.305 759.572 692.698V692.696Z" fill="white"/>
</g>
<g filter="url(#filter4_d_422_139)">
<rect x="788" y="666" width="50" height="50" rx="10" fill="black" shape-rendering="crispEdges"/>
<path d="M817.792 683.5H820.348L814.765 689.882L821.333 698.565H816.19L812.162 693.298L807.553 698.565H804.995L810.967 691.74L804.667 683.5H809.94L813.582 688.314L817.792 683.5ZM816.896 697.035H818.312L809.17 684.95H807.65L816.895 697.036L816.896 697.035Z" fill="white"/>
</g>
<g filter="url(#filter5_d_422_139)">
<rect x="850" y="666" width="50" height="50" rx="10" fill="#4D7DB3" shape-rendering="crispEdges"/>
<g clip-path="url(#clip5_422_139)">
<path d="M885.961 685.07C886.123 684.531 885.961 684.136 885.206 684.136H882.691C882.205 684.1 881.756 684.387 881.595 684.855C881.595 684.855 880.319 687.963 878.504 689.994C877.911 690.587 877.641 690.766 877.336 690.766C877.174 690.766 876.941 690.587 876.941 690.048V685.07C876.941 684.423 876.761 684.136 876.222 684.136H872.269C871.927 684.118 871.64 684.369 871.622 684.711C871.622 685.322 872.52 685.466 872.628 687.173V690.874C872.628 691.683 872.484 691.826 872.161 691.826C871.298 691.826 869.232 688.7 868.01 685.106C867.777 684.405 867.525 684.136 866.878 684.136H864.363C863.644 684.136 863.5 684.477 863.5 684.855C863.5 685.537 864.363 688.844 867.471 693.21C869.555 696.193 872.484 697.81 875.144 697.81C876.743 697.81 876.941 697.451 876.941 696.84V694.576C876.941 693.857 877.084 693.713 877.605 693.713C877.983 693.713 878.612 693.893 880.103 695.33C881.81 697.037 882.098 697.81 883.05 697.81H885.566C886.284 697.81 886.644 697.451 886.446 696.75C886.248 696.049 885.404 695.025 884.326 693.803C883.733 693.102 882.852 692.366 882.601 691.988C882.223 691.503 882.331 691.287 882.601 690.874C882.583 690.856 885.638 686.544 885.961 685.07Z" fill="white"/>
</g>
</g>
<path d="M568.365 745L566.955 742.27H566.855H565.255V745H564.375V738.04H566.735C567.569 738.04 568.189 738.217 568.595 738.57C569.002 738.917 569.205 739.427 569.205 740.1C569.205 740.6 569.095 741.023 568.875 741.37C568.655 741.717 568.332 741.963 567.905 742.11L569.425 745H568.365ZM566.745 741.44C567.265 741.44 567.645 741.34 567.885 741.14C568.132 740.933 568.255 740.587 568.255 740.1C568.255 739.653 568.132 739.34 567.885 739.16C567.645 738.973 567.262 738.88 566.735 738.88H565.255V741.44H566.745ZM575.447 742.68H571.747C571.801 743.193 571.971 743.603 572.257 743.91C572.551 744.21 572.947 744.36 573.447 744.36C573.747 744.36 574.037 744.3 574.317 744.18C574.604 744.053 574.894 743.87 575.187 743.63H575.227V744.51C574.934 744.723 574.644 744.88 574.357 744.98C574.071 745.073 573.764 745.12 573.437 745.12C572.904 745.12 572.441 745.003 572.047 744.77C571.654 744.537 571.351 744.213 571.137 743.8C570.931 743.38 570.827 742.9 570.827 742.36C570.827 741.847 570.921 741.387 571.107 740.98C571.301 740.567 571.574 740.243 571.927 740.01C572.281 739.777 572.694 739.66 573.167 739.66C573.647 739.66 574.057 739.78 574.397 740.02C574.744 740.253 575.004 740.577 575.177 740.99C575.357 741.403 575.447 741.87 575.447 742.39V742.68ZM573.177 740.39C572.764 740.39 572.434 740.54 572.187 740.84C571.941 741.14 571.794 741.527 571.747 742H574.537C574.491 741.513 574.354 741.123 574.127 740.83C573.907 740.537 573.591 740.39 573.177 740.39ZM577.584 738.6C577.397 738.6 577.244 738.54 577.124 738.42C577.01 738.3 576.954 738.147 576.954 737.96C576.954 737.773 577.01 737.62 577.124 737.5C577.244 737.38 577.397 737.32 577.584 737.32C577.77 737.32 577.92 737.38 578.034 737.5C578.154 737.62 578.214 737.773 578.214 737.96C578.214 738.147 578.154 738.3 578.034 738.42C577.92 738.54 577.77 738.6 577.584 738.6ZM576.434 747.44C576.24 747.44 576.087 747.43 575.974 747.41C575.86 747.39 575.737 747.343 575.604 747.27V746.51C575.73 746.577 575.844 746.62 575.944 746.64C576.044 746.66 576.167 746.67 576.314 746.67C576.6 746.67 576.81 746.573 576.944 746.38C577.077 746.193 577.144 745.933 577.144 745.6V739.78H578.024V745.6C578.024 746.18 577.89 746.63 577.624 746.95C577.357 747.277 576.96 747.44 576.434 747.44ZM584.246 742.68H580.546C580.6 743.193 580.77 743.603 581.056 743.91C581.35 744.21 581.746 744.36 582.246 744.36C582.546 744.36 582.836 744.3 583.116 744.18C583.403 744.053 583.693 743.87 583.986 743.63H584.026V744.51C583.733 744.723 583.443 744.88 583.156 744.98C582.87 745.073 582.563 745.12 582.236 745.12C581.703 745.12 581.24 745.003 580.846 744.77C580.453 744.537 580.15 744.213 579.936 743.8C579.73 743.38 579.626 742.9 579.626 742.36C579.626 741.847 579.72 741.387 579.906 740.98C580.1 740.567 580.373 740.243 580.726 740.01C581.08 739.777 581.493 739.66 581.966 739.66C582.446 739.66 582.856 739.78 583.196 740.02C583.543 740.253 583.803 740.577 583.976 740.99C584.156 741.403 584.246 741.87 584.246 742.39V742.68ZM581.976 740.39C581.563 740.39 581.233 740.54 580.986 740.84C580.74 741.14 580.593 741.527 580.546 742H583.336C583.29 741.513 583.153 741.123 582.926 740.83C582.706 740.537 582.39 740.39 581.976 740.39ZM587.322 745.12C587.002 745.12 586.686 745.073 586.372 744.98C586.066 744.88 585.776 744.74 585.502 744.56V743.64C586.109 744.107 586.709 744.34 587.302 744.34C587.649 744.34 587.929 744.27 588.142 744.13C588.356 743.983 588.462 743.79 588.462 743.55C588.462 743.383 588.409 743.247 588.302 743.14C588.202 743.033 588.076 742.95 587.922 742.89C587.769 742.83 587.549 742.757 587.262 742.67C586.909 742.57 586.616 742.473 586.382 742.38C586.156 742.28 585.962 742.137 585.802 741.95C585.642 741.757 585.562 741.507 585.562 741.2C585.562 740.733 585.739 740.36 586.092 740.08C586.446 739.8 586.909 739.66 587.482 739.66C588.056 739.66 588.576 739.81 589.042 740.11V741C588.782 740.8 588.529 740.657 588.282 740.57C588.042 740.483 587.789 740.44 587.522 740.44C587.189 740.44 586.926 740.5 586.732 740.62C586.539 740.74 586.442 740.907 586.442 741.12C586.442 741.273 586.492 741.4 586.592 741.5C586.699 741.6 586.829 741.68 586.982 741.74C587.136 741.8 587.356 741.873 587.642 741.96C588.002 742.067 588.296 742.17 588.522 742.27C588.749 742.363 588.942 742.51 589.102 742.71C589.262 742.903 589.342 743.157 589.342 743.47C589.342 743.79 589.256 744.077 589.082 744.33C588.909 744.577 588.669 744.77 588.362 744.91C588.056 745.05 587.709 745.12 587.322 745.12ZM592.052 739.78H593.492V740.54H592.052V743.53C592.052 743.777 592.106 743.977 592.212 744.13C592.326 744.277 592.489 744.35 592.702 744.35C592.849 744.35 592.979 744.337 593.092 744.31C593.212 744.277 593.346 744.227 593.492 744.16V744.94C593.339 745.013 593.192 745.06 593.052 745.08C592.912 745.107 592.742 745.12 592.542 745.12C592.116 745.12 591.779 744.983 591.532 744.71C591.292 744.437 591.172 744.073 591.172 743.62V740.54H590.172V739.78H591.172V738.38L592.052 737.92V739.78ZM597.546 739.66V740.63H597.396C597.083 740.63 596.8 740.687 596.546 740.8C596.3 740.913 596.093 741.077 595.926 741.29V745H595.046V740.94L594.826 739.78H595.706L595.886 740.71C596.16 740.31 596.39 740.037 596.576 739.89C596.77 739.737 596.99 739.66 597.236 739.66H597.546ZM602.715 745L602.575 744.27C602.269 744.557 601.972 744.77 601.685 744.91C601.405 745.05 601.075 745.12 600.695 745.12C600.222 745.12 599.852 744.963 599.585 744.65C599.325 744.337 599.195 743.92 599.195 743.4V739.78H600.075V743.28C600.075 743.6 600.149 743.857 600.295 744.05C600.442 744.237 600.652 744.33 600.925 744.33C601.239 744.33 601.512 744.273 601.745 744.16C601.985 744.047 602.235 743.877 602.495 743.65V739.78H603.375V743.84L603.595 745H602.715ZM605.982 738.6C605.795 738.6 605.642 738.54 605.522 738.42C605.409 738.3 605.352 738.147 605.352 737.96C605.352 737.773 605.409 737.62 605.522 737.5C605.642 737.38 605.795 737.32 605.982 737.32C606.169 737.32 606.319 737.38 606.432 737.5C606.552 737.62 606.612 737.773 606.612 737.96C606.612 738.147 606.552 738.3 606.432 738.42C606.319 738.54 606.169 738.6 605.982 738.6ZM604.832 747.44C604.639 747.44 604.485 747.43 604.372 747.41C604.259 747.39 604.135 747.343 604.002 747.27V746.51C604.129 746.577 604.242 746.62 604.342 746.64C604.442 746.66 604.565 746.67 604.712 746.67C604.999 746.67 605.209 746.573 605.342 746.38C605.475 746.193 605.542 745.933 605.542 745.6V739.78H606.422V745.6C606.422 746.18 606.289 746.63 606.022 746.95C605.755 747.277 605.359 747.44 604.832 747.44ZM611.785 746.62C611.878 746.62 611.981 746.593 612.095 746.54C612.208 746.493 612.315 746.43 612.415 746.35H612.455V746.98C612.228 747.147 611.975 747.23 611.695 747.23C611.435 747.23 611.211 747.147 611.025 746.98C610.845 746.82 610.755 746.593 610.755 746.3C610.755 746.04 610.828 745.79 610.975 745.55C611.128 745.31 611.325 745.113 611.565 744.96L611.435 744.25C611.175 744.537 610.891 744.753 610.585 744.9C610.285 745.047 609.945 745.12 609.565 745.12C609.091 745.12 608.708 744.987 608.415 744.72C608.121 744.447 607.975 744.087 607.975 743.64C607.975 743.06 608.208 742.633 608.675 742.36C609.141 742.087 609.741 741.95 610.475 741.95C610.741 741.95 611.035 741.967 611.355 742V741.64C611.355 741.28 611.255 740.993 611.055 740.78C610.861 740.56 610.608 740.45 610.295 740.45C609.921 740.45 609.581 740.5 609.275 740.6C608.975 740.7 608.665 740.857 608.345 741.07V740.22C608.658 740.013 608.978 739.87 609.305 739.79C609.631 739.703 610.005 739.66 610.425 739.66C610.958 739.66 611.391 739.83 611.725 740.17C612.065 740.51 612.235 740.96 612.235 741.52V743.84L612.455 745C612.421 745.027 612.298 745.117 612.085 745.27C611.871 745.423 611.711 745.577 611.605 745.73C611.505 745.89 611.455 746.053 611.455 746.22C611.455 746.487 611.565 746.62 611.785 746.62ZM609.745 744.38C610.065 744.38 610.351 744.313 610.605 744.18C610.858 744.047 611.108 743.853 611.355 743.6V742.62H610.435C609.428 742.62 608.925 742.943 608.925 743.59C608.925 743.83 609.001 744.023 609.155 744.17C609.308 744.31 609.505 744.38 609.745 744.38ZM616.125 745.12C615.639 745.12 615.212 745.003 614.845 744.77C614.479 744.537 614.199 744.217 614.005 743.81C613.812 743.397 613.715 742.93 613.715 742.41C613.715 741.883 613.812 741.413 614.005 741C614.199 740.58 614.479 740.253 614.845 740.02C615.212 739.78 615.642 739.66 616.135 739.66C616.482 739.66 616.785 739.697 617.045 739.77C617.305 739.843 617.552 739.977 617.785 740.17V741.02H617.745C617.505 740.82 617.255 740.677 616.995 740.59C616.742 740.503 616.452 740.46 616.125 740.46C615.652 740.46 615.285 740.643 615.025 741.01C614.772 741.377 614.645 741.847 614.645 742.42C614.645 742.973 614.772 743.43 615.025 743.79C615.285 744.143 615.649 744.32 616.115 744.32C616.462 744.32 616.772 744.267 617.045 744.16C617.319 744.047 617.589 743.87 617.855 743.63H617.895V744.48C617.649 744.713 617.382 744.88 617.095 744.98C616.815 745.073 616.492 745.12 616.125 745.12ZM623.729 745.12C623.409 745.12 623.092 745.073 622.779 744.98C622.472 744.88 622.182 744.74 621.909 744.56V743.64C622.515 744.107 623.115 744.34 623.709 744.34C624.055 744.34 624.335 744.27 624.549 744.13C624.762 743.983 624.869 743.79 624.869 743.55C624.869 743.383 624.815 743.247 624.709 743.14C624.609 743.033 624.482 742.95 624.329 742.89C624.175 742.83 623.955 742.757 623.669 742.67C623.315 742.57 623.022 742.473 622.789 742.38C622.562 742.28 622.369 742.137 622.209 741.95C622.049 741.757 621.969 741.507 621.969 741.2C621.969 740.733 622.145 740.36 622.499 740.08C622.852 739.8 623.315 739.66 623.889 739.66C624.462 739.66 624.982 739.81 625.449 740.11V741C625.189 740.8 624.935 740.657 624.689 740.57C624.449 740.483 624.195 740.44 623.929 740.44C623.595 740.44 623.332 740.5 623.139 740.62C622.945 740.74 622.849 740.907 622.849 741.12C622.849 741.273 622.899 741.4 622.999 741.5C623.105 741.6 623.235 741.68 623.389 741.74C623.542 741.8 623.762 741.873 624.049 741.96C624.409 742.067 624.702 742.17 624.929 742.27C625.155 742.363 625.349 742.51 625.509 742.71C625.669 742.903 625.749 743.157 625.749 743.47C625.749 743.79 625.662 744.077 625.489 744.33C625.315 744.577 625.075 744.77 624.769 744.91C624.462 745.05 624.115 745.12 623.729 745.12ZM627.729 738.6C627.542 738.6 627.389 738.54 627.269 738.42C627.155 738.3 627.099 738.147 627.099 737.96C627.099 737.773 627.155 737.62 627.269 737.5C627.389 737.38 627.542 737.32 627.729 737.32C627.915 737.32 628.065 737.38 628.179 737.5C628.299 737.62 628.359 737.773 628.359 737.96C628.359 738.147 628.299 738.3 628.179 738.42C628.065 738.54 627.915 738.6 627.729 738.6ZM628.169 739.78V745H627.289V739.78H628.169ZM634.451 742.68H630.751C630.805 743.193 630.975 743.603 631.261 743.91C631.555 744.21 631.951 744.36 632.451 744.36C632.751 744.36 633.041 744.3 633.321 744.18C633.608 744.053 633.898 743.87 634.191 743.63H634.231V744.51L634.151 744.57C633.865 744.77 633.648 744.93 633.501 745.05C633.361 745.17 633.248 745.303 633.161 745.45C633.075 745.597 633.031 745.77 633.031 745.97C633.031 746.183 633.078 746.347 633.171 746.46C633.271 746.573 633.398 746.63 633.551 746.63C633.751 746.63 633.965 746.54 634.191 746.36H634.231V746.99C634.005 747.157 633.751 747.24 633.471 747.24C633.158 747.24 632.888 747.13 632.661 746.91C632.441 746.697 632.331 746.407 632.331 746.04C632.331 745.707 632.431 745.397 632.631 745.11C632.585 745.117 632.521 745.12 632.441 745.12C631.908 745.12 631.445 745.003 631.051 744.77C630.658 744.537 630.355 744.213 630.141 743.8C629.935 743.38 629.831 742.9 629.831 742.36C629.831 741.847 629.925 741.387 630.111 740.98C630.305 740.567 630.578 740.243 630.931 740.01C631.285 739.777 631.698 739.66 632.171 739.66C632.651 739.66 633.061 739.78 633.401 740.02C633.748 740.253 634.008 740.577 634.181 740.99C634.361 741.403 634.451 741.87 634.451 742.39V742.68ZM632.181 740.39C631.768 740.39 631.438 740.54 631.191 740.84C630.945 741.14 630.798 741.527 630.751 742H633.541C633.495 741.513 633.358 741.123 633.131 740.83C632.911 740.537 632.595 740.39 632.181 740.39ZM639.18 738.04H641.44C643.174 738.04 644.04 738.8 644.04 740.32C644.04 741.087 643.824 741.673 643.39 742.08C642.964 742.48 642.337 742.68 641.51 742.68H640.06V745H639.18V738.04ZM641.48 741.86C642.054 741.86 642.464 741.743 642.71 741.51C642.964 741.277 643.09 740.893 643.09 740.36C643.09 739.827 642.964 739.447 642.71 739.22C642.464 738.993 642.04 738.88 641.44 738.88H640.06V741.86H641.48ZM648.782 745L648.642 744.25C648.382 744.537 648.098 744.753 647.792 744.9C647.492 745.047 647.152 745.12 646.772 745.12C646.298 745.12 645.915 744.987 645.622 744.72C645.328 744.447 645.182 744.087 645.182 743.64C645.182 743.06 645.415 742.633 645.882 742.36C646.348 742.087 646.948 741.95 647.682 741.95C647.948 741.95 648.242 741.967 648.562 742V741.64C648.562 741.28 648.462 740.993 648.262 740.78C648.068 740.56 647.815 740.45 647.502 740.45C647.128 740.45 646.788 740.5 646.482 740.6C646.182 740.7 645.872 740.857 645.552 741.07V740.22C645.865 740.013 646.185 739.87 646.512 739.79C646.838 739.703 647.212 739.66 647.632 739.66C648.165 739.66 648.598 739.83 648.932 740.17C649.272 740.51 649.442 740.96 649.442 741.52V743.84L649.662 745H648.782ZM646.952 744.38C647.272 744.38 647.558 744.313 647.812 744.18C648.065 744.047 648.315 743.853 648.562 743.6V742.62H647.642C646.635 742.62 646.132 742.943 646.132 743.59C646.132 743.83 646.208 744.023 646.362 744.17C646.515 744.31 646.712 744.38 646.952 744.38ZM654.123 739.66C654.616 739.66 654.989 739.813 655.243 740.12C655.496 740.42 655.623 740.84 655.623 741.38V745H654.743V741.5C654.743 741.167 654.673 740.91 654.533 740.73C654.393 740.543 654.179 740.45 653.893 740.45C653.566 740.45 653.289 740.503 653.063 740.61C652.843 740.717 652.596 740.89 652.323 741.13V745H651.443V740.94L651.223 739.78H652.103L652.243 740.51C652.556 740.21 652.846 739.993 653.113 739.86C653.386 739.727 653.723 739.66 654.123 739.66ZM659.369 746.16C658.049 745.093 657.389 743.547 657.389 741.52C657.389 740.58 657.549 739.72 657.869 738.94C658.196 738.153 658.696 737.467 659.369 736.88L659.759 737.36C659.246 737.9 658.879 738.517 658.659 739.21C658.446 739.903 658.339 740.673 658.339 741.52C658.339 742.4 658.442 743.187 658.649 743.88C658.862 744.567 659.236 745.167 659.769 745.68L659.369 746.16ZM661.645 738.6C661.458 738.6 661.305 738.54 661.185 738.42C661.071 738.3 661.015 738.147 661.015 737.96C661.015 737.773 661.071 737.62 661.185 737.5C661.305 737.38 661.458 737.32 661.645 737.32C661.831 737.32 661.981 737.38 662.095 737.5C662.215 737.62 662.275 737.773 662.275 737.96C662.275 738.147 662.215 738.3 662.095 738.42C661.981 738.54 661.831 738.6 661.645 738.6ZM662.085 739.78V745H661.205V739.78H662.085ZM663.527 745.68C664.061 745.167 664.431 744.567 664.637 743.88C664.851 743.187 664.957 742.4 664.957 741.52C664.957 740.673 664.847 739.903 664.627 739.21C664.414 738.517 664.051 737.9 663.537 737.36L663.927 736.88C664.601 737.467 665.097 738.153 665.417 738.94C665.744 739.72 665.907 740.58 665.907 741.52C665.907 743.547 665.247 745.093 663.927 746.16L663.527 745.68ZM672.866 739.66C673.319 739.66 673.706 739.78 674.026 740.02C674.346 740.26 674.586 740.587 674.746 741C674.912 741.413 674.996 741.88 674.996 742.4C674.996 742.92 674.899 743.387 674.706 743.8C674.519 744.207 674.246 744.527 673.886 744.76C673.532 744.993 673.112 745.11 672.626 745.11C672.379 745.11 672.149 745.083 671.936 745.03C671.722 744.977 671.496 744.9 671.256 744.8V747.32H670.376V740.94L670.156 739.78H671.036L671.166 740.45C671.619 739.923 672.186 739.66 672.866 739.66ZM672.536 744.33C673.016 744.33 673.386 744.15 673.646 743.79C673.912 743.43 674.046 742.967 674.046 742.4C674.046 741.833 673.942 741.37 673.736 741.01C673.536 740.65 673.219 740.47 672.786 740.47C672.479 740.47 672.202 740.533 671.956 740.66C671.716 740.787 671.482 740.973 671.256 741.22V744.13C671.689 744.263 672.116 744.33 672.536 744.33ZM679.382 739.66V740.63H679.232C678.919 740.63 678.636 740.687 678.382 740.8C678.136 740.913 677.929 741.077 677.762 741.29V745H676.882V740.94L676.662 739.78H677.542L677.722 740.71C677.996 740.31 678.226 740.037 678.412 739.89C678.606 739.737 678.826 739.66 679.072 739.66H679.382ZM684.771 744.31V745H680.351V744.41L683.431 740.47H680.571V739.78H684.551V740.37L681.481 744.31H684.771ZM690.487 739.78L687.497 747.32H686.597L687.497 745.06L685.427 739.78H686.327L687.957 744.06L689.547 739.78H690.487ZM692.212 738.6C692.026 738.6 691.872 738.54 691.752 738.42C691.639 738.3 691.582 738.147 691.582 737.96C691.582 737.773 691.639 737.62 691.752 737.5C691.872 737.38 692.026 737.32 692.212 737.32C692.399 737.32 692.549 737.38 692.662 737.5C692.782 737.62 692.842 737.773 692.842 737.96C692.842 738.147 692.782 738.3 692.662 738.42C692.549 738.54 692.399 738.6 692.212 738.6ZM691.062 747.44C690.869 747.44 690.716 747.43 690.602 747.41C690.489 747.39 690.366 747.343 690.232 747.27V746.51C690.359 746.577 690.472 746.62 690.572 746.64C690.672 746.66 690.796 746.67 690.942 746.67C691.229 746.67 691.439 746.573 691.572 746.38C691.706 746.193 691.772 745.933 691.772 745.6V739.78H692.652V745.6C692.652 746.18 692.519 746.63 692.252 746.95C691.986 747.277 691.589 747.44 691.062 747.44ZM700.345 739.66C700.839 739.66 701.212 739.813 701.465 740.12C701.719 740.42 701.845 740.84 701.845 741.38V745H700.965V741.5C700.965 741.167 700.895 740.91 700.755 740.73C700.615 740.543 700.402 740.45 700.115 740.45C699.822 740.45 699.575 740.503 699.375 740.61C699.175 740.717 698.945 740.89 698.685 741.13C698.692 741.183 698.695 741.267 698.695 741.38V745H697.815V741.5C697.815 741.167 697.745 740.91 697.605 740.73C697.465 740.543 697.252 740.45 696.965 740.45C696.672 740.45 696.425 740.503 696.225 740.61C696.025 740.71 695.799 740.88 695.545 741.12V745H694.665V740.94L694.445 739.78H695.325L695.465 740.5C695.765 740.2 696.035 739.987 696.275 739.86C696.522 739.727 696.829 739.66 697.195 739.66C697.542 739.66 697.829 739.737 698.055 739.89C698.289 740.043 698.459 740.263 698.565 740.55C698.885 740.23 699.169 740.003 699.415 739.87C699.662 739.73 699.972 739.66 700.345 739.66ZM707.549 745L707.409 744.27C707.103 744.557 706.806 744.77 706.519 744.91C706.239 745.05 705.909 745.12 705.529 745.12C705.056 745.12 704.686 744.963 704.419 744.65C704.159 744.337 704.029 743.92 704.029 743.4V739.78H704.909V743.28C704.909 743.6 704.983 743.857 705.129 744.05C705.276 744.237 705.486 744.33 705.759 744.33C706.073 744.33 706.346 744.273 706.579 744.16C706.819 744.047 707.069 743.877 707.329 743.65V739.78H708.209V743.84L708.429 745H707.549ZM710.816 738.6C710.629 738.6 710.476 738.54 710.356 738.42C710.243 738.3 710.186 738.147 710.186 737.96C710.186 737.773 710.243 737.62 710.356 737.5C710.476 737.38 710.629 737.32 710.816 737.32C711.003 737.32 711.153 737.38 711.266 737.5C711.386 737.62 711.446 737.773 711.446 737.96C711.446 738.147 711.386 738.3 711.266 738.42C711.153 738.54 711.003 738.6 710.816 738.6ZM709.666 747.44C709.473 747.44 709.319 747.43 709.206 747.41C709.093 747.39 708.969 747.343 708.836 747.27V746.51C708.963 746.577 709.076 746.62 709.176 746.64C709.276 746.66 709.399 746.67 709.546 746.67C709.833 746.67 710.043 746.573 710.176 746.38C710.309 746.193 710.376 745.933 710.376 745.6V739.78H711.256V745.6C711.256 746.18 711.123 746.63 710.856 746.95C710.589 747.277 710.193 747.44 709.666 747.44ZM717.479 742.68H713.779C713.832 743.193 714.002 743.603 714.289 743.91C714.582 744.21 714.979 744.36 715.479 744.36C715.779 744.36 716.069 744.3 716.349 744.18C716.635 744.053 716.925 743.87 717.219 743.63H717.259V744.51C716.965 744.723 716.675 744.88 716.389 744.98C716.102 745.073 715.795 745.12 715.469 745.12C714.935 745.12 714.472 745.003 714.079 744.77C713.685 744.537 713.382 744.213 713.169 743.8C712.962 743.38 712.859 742.9 712.859 742.36C712.859 741.847 712.952 741.387 713.139 740.98C713.332 740.567 713.605 740.243 713.959 740.01C714.312 739.777 714.725 739.66 715.199 739.66C715.679 739.66 716.089 739.78 716.429 740.02C716.775 740.253 717.035 740.577 717.209 740.99C717.389 741.403 717.479 741.87 717.479 742.39V742.68ZM715.209 740.39C714.795 740.39 714.465 740.54 714.219 740.84C713.972 741.14 713.825 741.527 713.779 742H716.569C716.522 741.513 716.385 741.123 716.159 740.83C715.939 740.537 715.622 740.39 715.209 740.39Z" fill="white"/>
<path d="M732.93 738.04L730.8 745H729.5L727.94 739.74L726.38 745H725.08L722.95 738.04H724.11L725.76 743.62L727.38 738.04H728.55L730.17 743.62L731.82 738.04H732.93ZM737.005 745L736.875 744.31C736.375 744.85 735.775 745.12 735.075 745.12C734.582 745.12 734.179 744.987 733.865 744.72C733.552 744.447 733.395 744.087 733.395 743.64C733.395 743.06 733.622 742.623 734.075 742.33C734.529 742.03 735.139 741.88 735.905 741.88C736.219 741.88 736.512 741.893 736.785 741.92V741.64C736.785 741.307 736.692 741.05 736.505 740.87C736.325 740.69 736.069 740.6 735.735 740.6C735.369 740.6 735.032 740.653 734.725 740.76C734.425 740.867 734.109 741.037 733.775 741.27V740.27C734.082 740.05 734.399 739.893 734.725 739.8C735.059 739.707 735.432 739.66 735.845 739.66C736.472 739.66 736.965 739.827 737.325 740.16C737.685 740.487 737.865 740.94 737.865 741.52V743.84L738.085 745H737.005ZM735.265 744.26C735.552 744.26 735.815 744.2 736.055 744.08C736.302 743.953 736.545 743.77 736.785 743.53V742.68H735.845C735.425 742.68 735.099 742.747 734.865 742.88C734.632 743.013 734.515 743.24 734.515 743.56C734.515 743.78 734.582 743.953 734.715 744.08C734.849 744.2 735.032 744.26 735.265 744.26ZM742.276 739.66V740.78H742.116C741.543 740.78 741.083 740.96 740.736 741.32V745H739.656V740.94L739.436 739.78H740.516L740.676 740.6C740.923 740.247 741.14 740.003 741.326 739.87C741.513 739.73 741.723 739.66 741.956 739.66H742.276ZM747.375 745L747.215 744.3C746.889 744.593 746.589 744.803 746.315 744.93C746.049 745.057 745.739 745.12 745.385 745.12C744.905 745.12 744.522 744.963 744.235 744.65C743.949 744.33 743.805 743.917 743.805 743.41V739.78H744.885V743.01C744.885 743.37 744.955 743.653 745.095 743.86C745.235 744.06 745.439 744.16 745.705 744.16C745.965 744.16 746.202 744.107 746.415 744C746.635 743.893 746.865 743.73 747.105 743.51V739.78H748.185V743.84L748.405 745H747.375ZM753.002 739.66C753.509 739.66 753.905 739.813 754.192 740.12C754.479 740.427 754.622 740.843 754.622 741.37V745H753.542V741.77C753.542 741.383 753.472 741.097 753.332 740.91C753.192 740.717 752.975 740.62 752.682 740.62C752.422 740.62 752.185 740.673 751.972 740.78C751.765 740.88 751.549 741.04 751.322 741.26V745H750.242V740.94L750.022 739.78H751.052L751.212 740.48C751.519 740.187 751.805 739.977 752.072 739.85C752.339 739.723 752.649 739.66 753.002 739.66ZM758.428 742.67L757.718 743.47V745H756.638V737.46H757.718V742.13L759.788 739.78H761.038L759.128 741.9L761.158 745H759.878L758.428 742.67ZM762.829 738.78C762.629 738.78 762.459 738.713 762.319 738.58C762.179 738.44 762.109 738.267 762.109 738.06C762.109 737.847 762.179 737.673 762.319 737.54C762.459 737.4 762.629 737.33 762.829 737.33C763.029 737.33 763.199 737.4 763.339 737.54C763.479 737.673 763.549 737.847 763.549 738.06C763.549 738.267 763.479 738.44 763.339 738.58C763.199 738.713 763.029 738.78 762.829 738.78ZM763.369 739.78V745H762.289V739.78H763.369ZM768.435 738.78C768.235 738.78 768.065 738.713 767.925 738.58C767.785 738.44 767.715 738.267 767.715 738.06C767.715 737.847 767.785 737.673 767.925 737.54C768.065 737.4 768.235 737.33 768.435 737.33C768.635 737.33 768.805 737.4 768.945 737.54C769.085 737.673 769.155 737.847 769.155 738.06C769.155 738.267 769.085 738.44 768.945 738.58C768.805 738.713 768.635 738.78 768.435 738.78ZM768.975 739.78V745H767.895V739.78H768.975ZM776.29 739.66C776.717 739.66 777.087 739.777 777.4 740.01C777.713 740.243 777.953 740.567 778.12 740.98C778.287 741.387 778.37 741.85 778.37 742.37C778.37 742.89 778.27 743.36 778.07 743.78C777.877 744.193 777.603 744.52 777.25 744.76C776.897 744.993 776.487 745.11 776.02 745.11C775.547 745.11 775.083 745.007 774.63 744.8V747.32H773.55V740.94L773.33 739.78H774.36L774.52 740.48C774.753 740.213 775.02 740.01 775.32 739.87C775.62 739.73 775.943 739.66 776.29 739.66ZM775.85 744.19C776.297 744.19 776.637 744.03 776.87 743.71C777.103 743.383 777.22 742.94 777.22 742.38C777.22 741.84 777.127 741.41 776.94 741.09C776.76 740.763 776.483 740.6 776.11 740.6C775.583 740.6 775.09 740.84 774.63 741.32V744.01C775.043 744.13 775.45 744.19 775.85 744.19ZM782.237 745.12C781.723 745.12 781.277 745.007 780.897 744.78C780.517 744.553 780.223 744.237 780.017 743.83C779.817 743.417 779.717 742.937 779.717 742.39C779.717 741.843 779.817 741.367 780.017 740.96C780.223 740.547 780.517 740.227 780.897 740C781.277 739.773 781.723 739.66 782.237 739.66C782.75 739.66 783.197 739.773 783.577 740C783.957 740.227 784.247 740.547 784.447 740.96C784.653 741.367 784.757 741.843 784.757 742.39C784.757 742.937 784.653 743.417 784.447 743.83C784.247 744.237 783.957 744.553 783.577 744.78C783.197 745.007 782.75 745.12 782.237 745.12ZM782.237 744.21C782.683 744.21 783.023 744.05 783.257 743.73C783.49 743.403 783.607 742.957 783.607 742.39C783.607 741.823 783.49 741.38 783.257 741.06C783.023 740.733 782.683 740.57 782.237 740.57C781.79 740.57 781.45 740.733 781.217 741.06C780.99 741.38 780.877 741.823 780.877 742.39C780.877 742.957 780.99 743.403 781.217 743.73C781.45 744.05 781.79 744.21 782.237 744.21ZM786.293 737.46H787.373V745H786.293V737.46ZM789.636 738.78C789.436 738.78 789.266 738.713 789.126 738.58C788.986 738.44 788.916 738.267 788.916 738.06C788.916 737.847 788.986 737.673 789.126 737.54C789.266 737.4 789.436 737.33 789.636 737.33C789.836 737.33 790.006 737.4 790.146 737.54C790.286 737.673 790.356 737.847 790.356 738.06C790.356 738.267 790.286 738.44 790.146 738.58C790.006 738.713 789.836 738.78 789.636 738.78ZM790.176 739.78V745H789.096V739.78H790.176ZM793.269 739.78H794.599V740.64H793.269V743.42C793.269 743.667 793.319 743.86 793.419 744C793.525 744.14 793.682 744.21 793.889 744.21C794.102 744.21 794.342 744.147 794.609 744.02V744.94C794.329 745.06 794.012 745.12 793.659 745.12C793.185 745.12 792.822 744.977 792.569 744.69C792.315 744.403 792.189 743.997 792.189 743.47V740.64H791.299V739.78H792.189V738.38L793.269 737.92V739.78ZM800.472 739.78L797.482 747.32H796.422L797.302 745.11L795.212 739.78H796.312L797.862 743.85L799.362 739.78H800.472ZM803.438 742.67L802.728 743.47V745H801.648V737.46H802.728V742.13L804.798 739.78H806.048L804.138 741.9L806.168 745H804.888L803.438 742.67ZM811.644 742.73H807.974C808.027 743.19 808.187 743.553 808.454 743.82C808.727 744.08 809.094 744.21 809.554 744.21C809.854 744.21 810.16 744.153 810.474 744.04C810.787 743.92 811.09 743.75 811.384 743.53H811.424V744.5C811.404 744.513 811.31 744.577 811.144 744.69C810.844 744.903 810.614 745.103 810.454 745.29C810.3 745.477 810.224 745.677 810.224 745.89C810.224 746.063 810.27 746.207 810.364 746.32C810.464 746.433 810.594 746.49 810.754 746.49C810.94 746.49 811.15 746.403 811.384 746.23H811.424V746.98C811.157 747.147 810.89 747.23 810.624 747.23C810.41 747.23 810.207 747.18 810.014 747.08C809.82 746.987 809.66 746.847 809.534 746.66C809.414 746.48 809.354 746.263 809.354 746.01C809.354 745.697 809.45 745.4 809.644 745.12H809.544C809.004 745.12 808.534 745.007 808.134 744.78C807.734 744.553 807.427 744.233 807.214 743.82C807 743.4 806.894 742.917 806.894 742.37C806.894 741.843 806.99 741.377 807.184 740.97C807.384 740.557 807.667 740.237 808.034 740.01C808.4 739.777 808.827 739.66 809.314 739.66C809.794 739.66 810.207 739.777 810.554 740.01C810.907 740.237 811.177 740.557 811.364 740.97C811.55 741.383 811.644 741.857 811.644 742.39V742.73ZM809.314 740.54C808.947 740.54 808.647 740.67 808.414 740.93C808.18 741.183 808.037 741.523 807.984 741.95H810.534C810.48 741.51 810.35 741.167 810.144 740.92C809.944 740.667 809.667 740.54 809.314 740.54ZM818.692 739.66C819.119 739.66 819.489 739.777 819.802 740.01C820.116 740.243 820.356 740.567 820.522 740.98C820.689 741.387 820.772 741.85 820.772 742.37C820.772 742.89 820.672 743.36 820.472 743.78C820.279 744.193 820.006 744.52 819.652 744.76C819.299 744.993 818.889 745.11 818.422 745.11C817.949 745.11 817.486 745.007 817.032 744.8V747.32H815.952V740.94L815.732 739.78H816.762L816.922 740.48C817.156 740.213 817.422 740.01 817.722 739.87C818.022 739.73 818.346 739.66 818.692 739.66ZM818.252 744.19C818.699 744.19 819.039 744.03 819.272 743.71C819.506 743.383 819.622 742.94 819.622 742.38C819.622 741.84 819.529 741.41 819.342 741.09C819.162 740.763 818.886 740.6 818.512 740.6C817.986 740.6 817.492 740.84 817.032 741.32V744.01C817.446 744.13 817.852 744.19 818.252 744.19ZM825.079 739.66V740.78H824.919C824.346 740.78 823.886 740.96 823.539 741.32V745H822.459V740.94L822.239 739.78H823.319L823.479 740.6C823.726 740.247 823.942 740.003 824.129 739.87C824.316 739.73 824.526 739.66 824.759 739.66H825.079ZM831.068 739.78L828.078 747.32H827.018L827.898 745.11L825.808 739.78H826.908L828.458 743.85L829.958 739.78H831.068ZM839.614 739.78L837.994 745H836.654L835.524 741.21L834.414 745H833.074L831.454 739.78H832.554L833.794 743.93L834.994 739.78H836.094L837.314 743.94L838.554 739.78H839.614ZM844.007 745L843.877 744.31C843.377 744.85 842.777 745.12 842.077 745.12C841.584 745.12 841.181 744.987 840.867 744.72C840.554 744.447 840.397 744.087 840.397 743.64C840.397 743.06 840.624 742.623 841.077 742.33C841.531 742.03 842.141 741.88 842.907 741.88C843.221 741.88 843.514 741.893 843.787 741.92V741.64C843.787 741.307 843.694 741.05 843.507 740.87C843.327 740.69 843.071 740.6 842.737 740.6C842.371 740.6 842.034 740.653 841.727 740.76C841.427 740.867 841.111 741.037 840.777 741.27V740.27C841.084 740.05 841.401 739.893 841.727 739.8C842.061 739.707 842.434 739.66 842.847 739.66C843.474 739.66 843.967 739.827 844.327 740.16C844.687 740.487 844.867 740.94 844.867 741.52V743.84L845.087 745H844.007ZM842.267 744.26C842.554 744.26 842.817 744.2 843.057 744.08C843.304 743.953 843.547 743.77 843.787 743.53V742.68H842.847C842.427 742.68 842.101 742.747 841.867 742.88C841.634 743.013 841.517 743.24 841.517 743.56C841.517 743.78 841.584 743.953 841.717 744.08C841.851 744.2 842.034 744.26 842.267 744.26ZM847.868 739.78H849.198V740.64H847.868V743.42C847.868 743.667 847.918 743.86 848.018 744C848.125 744.14 848.282 744.21 848.488 744.21C848.702 744.21 848.942 744.147 849.208 744.02V744.94C848.928 745.06 848.612 745.12 848.258 745.12C847.785 745.12 847.422 744.977 847.168 744.69C846.915 744.403 846.788 743.997 846.788 743.47V740.64H845.898V739.78H846.788V738.38L847.868 737.92V739.78ZM853.412 739.66C853.919 739.66 854.315 739.813 854.602 740.12C854.889 740.427 855.032 740.843 855.032 741.37V745H853.952V741.77C853.952 741.383 853.882 741.097 853.742 740.91C853.602 740.717 853.385 740.62 853.092 740.62C852.832 740.62 852.595 740.673 852.382 740.78C852.175 740.88 851.959 741.04 851.732 741.26V745H850.652V740.94L850.432 739.78H851.462L851.622 740.48C851.929 740.187 852.215 739.977 852.482 739.85C852.749 739.723 853.059 739.66 853.412 739.66ZM859.239 745.12C858.725 745.12 858.279 745.007 857.899 744.78C857.519 744.553 857.225 744.237 857.019 743.83C856.819 743.417 856.719 742.937 856.719 742.39C856.719 741.843 856.819 741.367 857.019 740.96C857.225 740.547 857.519 740.227 857.899 740C858.279 739.773 858.725 739.66 859.239 739.66C859.752 739.66 860.199 739.773 860.579 740C860.959 740.227 861.249 740.547 861.449 740.96C861.655 741.367 861.759 741.843 861.759 742.39C861.759 742.937 861.655 743.417 861.449 743.83C861.249 744.237 860.959 744.553 860.579 744.78C860.199 745.007 859.752 745.12 859.239 745.12ZM859.239 744.21C859.685 744.21 860.025 744.05 860.259 743.73C860.492 743.403 860.609 742.957 860.609 742.39C860.609 741.823 860.492 741.38 860.259 741.06C860.025 740.733 859.685 740.57 859.239 740.57C858.792 740.57 858.452 740.733 858.219 741.06C857.992 741.38 857.879 741.823 857.879 742.39C857.879 742.957 857.992 743.403 858.219 743.73C858.452 744.05 858.792 744.21 859.239 744.21ZM864.835 745.12C864.508 745.12 864.182 745.073 863.855 744.98C863.535 744.88 863.235 744.74 862.955 744.56V743.49C863.268 743.73 863.568 743.907 863.855 744.02C864.148 744.133 864.455 744.19 864.775 744.19C865.115 744.19 865.382 744.13 865.575 744.01C865.768 743.89 865.865 743.727 865.865 743.52C865.865 743.307 865.775 743.15 865.595 743.05C865.422 742.95 865.145 742.85 864.765 742.75C864.398 742.657 864.098 742.56 863.865 742.46C863.638 742.36 863.442 742.21 863.275 742.01C863.108 741.81 863.025 741.54 863.025 741.2C863.025 740.733 863.208 740.36 863.575 740.08C863.948 739.8 864.438 739.66 865.045 739.66C865.632 739.66 866.168 739.81 866.655 740.11V741.15C866.388 740.95 866.132 740.807 865.885 740.72C865.645 740.633 865.385 740.59 865.105 740.59C864.785 740.59 864.535 740.64 864.355 740.74C864.175 740.84 864.085 740.983 864.085 741.17C864.085 741.357 864.168 741.497 864.335 741.59C864.502 741.677 864.772 741.77 865.145 741.87C865.518 741.97 865.822 742.07 866.055 742.17C866.288 742.263 866.488 742.417 866.655 742.63C866.828 742.843 866.915 743.127 866.915 743.48C866.915 743.8 866.825 744.083 866.645 744.33C866.472 744.577 866.225 744.77 865.905 744.91C865.592 745.05 865.235 745.12 864.835 745.12ZM865.605 737.18H866.855L865.495 738.93H864.515L865.605 737.18ZM870.565 745.12C870.045 745.12 869.592 745.007 869.205 744.78C868.825 744.553 868.532 744.237 868.325 743.83C868.118 743.417 868.015 742.943 868.015 742.41C868.015 741.87 868.118 741.393 868.325 740.98C868.538 740.567 868.835 740.243 869.215 740.01C869.602 739.777 870.052 739.66 870.565 739.66C871.225 739.66 871.755 739.81 872.155 740.11V741.1H872.115C871.675 740.773 871.165 740.61 870.585 740.61C870.118 740.61 869.762 740.773 869.515 741.1C869.268 741.427 869.145 741.867 869.145 742.42C869.145 742.96 869.265 743.387 869.505 743.7C869.752 744.013 870.108 744.17 870.575 744.17C871.155 744.17 871.688 743.977 872.175 743.59H872.215V744.59C871.788 744.943 871.238 745.12 870.565 745.12ZM874.235 738.78C874.035 738.78 873.865 738.713 873.725 738.58C873.585 738.44 873.515 738.267 873.515 738.06C873.515 737.847 873.585 737.673 873.725 737.54C873.865 737.4 874.035 737.33 874.235 737.33C874.435 737.33 874.605 737.4 874.745 737.54C874.885 737.673 874.955 737.847 874.955 738.06C874.955 738.267 874.885 738.44 874.745 738.58C874.605 738.713 874.435 738.78 874.235 738.78ZM874.775 739.78V745H873.695V739.78H874.775Z" fill="white"/>
<path d="M722.64 746H875.635V746.5H722.64V746Z" fill="white"/>
<defs>
<filter id="filter0_d_422_139" x="520" y="652" width="90" height="90" filterUnits="userSpaceOnUse" color-interpolation-filters="sRGB">
<feFlood flood-opacity="0" result="BackgroundImageFix"/>
<feColorMatrix in="SourceAlpha" type="matrix" values="0 0 0 0 0 0 0 0 0 0 0 0 0 0 0 0 0 0 127 0" result="hardAlpha"/>
<feOffset dy="6"/>
<feGaussianBlur stdDeviation="10"/>
<feComposite in2="hardAlpha" operator="out"/>
<feColorMatrix type="matrix" values="0 0 0 0 0.270588 0 0 0 0 0.290196 0 0 0 0 0.992157 0 0 0 0.15 0"/>
<feBlend mode="normal" in2="BackgroundImageFix" result="effect1_dropShadow_422_139"/>
<feBlend mode="normal" in="SourceGraphic" in2="effect1_dropShadow_422_139" result="shape"/>
</filter>
<filter id="filter1_d_422_139" x="582" y="652" width="90" height="90" filterUnits="userSpaceOnUse" color-interpolation-filters="sRGB">
<feFlood flood-opacity="0" result="BackgroundImageFix"/>
<feColorMatrix in="SourceAlpha" type="matrix" values="0 0 0 0 0 0 0 0 0 0 0 0 0 0 0 0 0 0 127 0" result="hardAlpha"/>
<feOffset dy="6"/>
<feGaussianBlur stdDeviation="10"/>
<feComposite in2="hardAlpha" operator="out"/>
<feColorMatrix type="matrix" values="0 0 0 0 0.270588 0 0 0 0 0.290196 0 0 0 0 0.992157 0 0 0 0.15 0"/>
<feBlend mode="normal" in2="BackgroundImageFix" result="effect1_dropShadow_422_139"/>
<feBlend mode="normal" in="SourceGraphic" in2="effect1_dropShadow_422_139" result="shape"/>
</filter>
<filter id="filter2_d_422_139" x="644" y="652" width="90" height="90" filterUnits="userSpaceOnUse" color-interpolation-filters="sRGB">
<feFlood flood-opacity="0" result="BackgroundImageFix"/>
<feColorMatrix in="SourceAlpha" type="matrix" values="0 0 0 0 0 0 0 0 0 0 0 0 0 0 0 0 0 0 127 0" result="hardAlpha"/>
<feOffset dy="6"/>
<feGaussianBlur stdDeviation="10"/>
<feComposite in2="hardAlpha" operator="out"/>
<feColorMatrix type="matrix" values="0 0 0 0 0.270588 0 0 0 0 0.290196 0 0 0 0 0.992157 0 0 0 0.15 0"/>
<feBlend mode="normal" in2="BackgroundImageFix" result="effect1_dropShadow_422_139"/>
<feBlend mode="normal" in="SourceGraphic" in2="effect1_dropShadow_422_139" result="shape"/>
</filter>
<filter id="filter3_d_422_139" x="706" y="652" width="90" height="90" filterUnits="userSpaceOnUse" color-interpolation-filters="sRGB">
<feFlood flood-opacity="0" result="BackgroundImageFix"/>
<feColorMatrix in="SourceAlpha" type="matrix" values="0 0 0 0 0 0 0 0 0 0 0 0 0 0 0 0 0 0 127 0" result="hardAlpha"/>
<feOffset dy="6"/>
<feGaussianBlur stdDeviation="10"/>
<feComposite in2="hardAlpha" operator="out"/>
<feColorMatrix type="matrix" values="0 0 0 0 0.270588 0 0 0 0 0.290196 0 0 0 0 0.992157 0 0 0 0.15 0"/>
<feBlend mode="normal" in2="BackgroundImageFix" result="effect1_dropShadow_422_139"/>
<feBlend mode="normal" in="SourceGraphic" in2="effect1_dropShadow_422_139" result="shape"/>
</filter>
<filter id="filter4_d_422_139" x="768" y="652" width="90" height="90" filterUnits="userSpaceOnUse" color-interpolation-filters="sRGB">
<feFlood flood-opacity="0" result="BackgroundImageFix"/>
<feColorMatrix in="SourceAlpha" type="matrix" values="0 0 0 0 0 0 0 0 0 0 0 0 0 0 0 0 0 0 127 0" result="hardAlpha"/>
<feOffset dy="6"/>
<feGaussianBlur stdDeviation="10"/>
<feComposite in2="hardAlpha" operator="out"/>
<feColorMatrix type="matrix" values="0 0 0 0 0.270588 0 0 0 0 0.290196 0 0 0 0 0.992157 0 0 0 0.15 0"/>
<feBlend mode="normal" in2="BackgroundImageFix" result="effect1_dropShadow_422_139"/>
<feBlend mode="normal" in="SourceGraphic" in2="effect1_dropShadow_422_139" result="shape"/>
</filter>
<filter id="filter5_d_422_139" x="830" y="652" width="90" height="90" filterUnits="userSpaceOnUse" color-interpolation-filters="sRGB">
<feFlood flood-opacity="0" result="BackgroundImageFix"/>
<feColorMatrix in="SourceAlpha" type="matrix" values="0 0 0 0 0 0 0 0 0 0 0 0 0 0 0 0 0 0 127 0" result="hardAlpha"/>
<feOffset dy="6"/>
<feGaussianBlur stdDeviation="10"/>
<feComposite in2="hardAlpha" operator="out"/>
<feColorMatrix type="matrix" values="0 0 0 0 0.270588 0 0 0 0 0.290196 0 0 0 0 0.992157 0 0 0 0.15 0"/>
<feBlend mode="normal" in2="BackgroundImageFix" result="effect1_dropShadow_422_139"/>
<feBlend mode="normal" in="SourceGraphic" in2="effect1_dropShadow_422_139" result="shape"/>
</filter>
<clipPath id="clip0_422_139">
<rect width="310" height="25" fill="white" transform="translate(566.155 331)"/>
</clipPath>
<clipPath id="clip1_422_139">
<rect width="310" height="25" fill="white" transform="translate(566 482)"/>
</clipPath>
<clipPath id="clip2_422_139">
<rect width="310" height="25" fill="white" transform="translate(566 407)"/>
</clipPath>
<clipPath id="clip3_422_139">
<rect width="20" height="20" fill="white" transform="translate(555 681)"/>
</clipPath>
<clipPath id="clip4_422_139">
<rect width="20" height="20" fill="white" transform="translate(617 681)"/>
</clipPath>
<clipPath id="clip5_422_139">
<rect width="23" height="23" fill="white" transform="translate(863.5 679.5)"/>
</clipPath>
</defs>
</svg>
