<svg width="1440" height="1012" viewBox="0 0 1440 1012" fill="none" xmlns="http://www.w3.org/2000/svg">
<rect width="1440" height="1012" fill="#6200FF"/>
<path d="M567.888 420L559.934 390.909H563.513L569.593 414.602H569.877L576.07 390.909H580.048L586.241 414.602H586.525L592.604 390.909H596.184L588.229 420H584.593L578.173 396.818H577.945L571.525 420H567.888ZM598.073 390.909H602.107L610.175 404.489H610.516L618.584 390.909H622.619L612.107 408.011V420H608.584V408.011L598.073 390.909ZM627.175 420V390.909H637.345C639.372 390.909 641.043 391.259 642.359 391.96C643.676 392.652 644.656 393.584 645.3 394.759C645.944 395.923 646.266 397.216 646.266 398.636C646.266 399.886 646.043 400.919 645.598 401.733C645.162 402.547 644.585 403.191 643.865 403.665C643.155 404.138 642.383 404.489 641.55 404.716V405C642.44 405.057 643.335 405.369 644.234 405.938C645.134 406.506 645.887 407.32 646.493 408.381C647.099 409.441 647.402 410.739 647.402 412.273C647.402 413.731 647.071 415.043 646.408 416.207C645.745 417.372 644.698 418.295 643.268 418.977C641.839 419.659 639.978 420 637.686 420H627.175ZM630.697 416.875H637.686C639.987 416.875 641.621 416.43 642.587 415.54C643.562 414.64 644.05 413.551 644.05 412.273C644.05 411.288 643.799 410.379 643.297 409.545C642.795 408.703 642.08 408.03 641.152 407.528C640.224 407.017 639.125 406.761 637.857 406.761H630.697V416.875ZM630.697 403.693H637.232C638.292 403.693 639.249 403.485 640.101 403.068C640.963 402.652 641.644 402.064 642.146 401.307C642.658 400.549 642.913 399.659 642.913 398.636C642.913 397.358 642.468 396.274 641.578 395.384C640.688 394.484 639.277 394.034 637.345 394.034H630.697V403.693ZM656.713 390.909V420H653.19V390.909H656.713ZM663.776 420V390.909H681.333V394.034H667.299V403.864H680.424V406.989H667.299V416.875H681.56V420H663.776ZM687.683 420V390.909H697.512C699.785 390.909 701.65 391.297 703.109 392.074C704.567 392.841 705.647 393.897 706.347 395.241C707.048 396.586 707.398 398.116 707.398 399.83C707.398 401.544 707.048 403.063 706.347 404.389C705.647 405.715 704.572 406.757 703.123 407.514C701.674 408.262 699.823 408.636 697.569 408.636H689.614V405.455H697.455C699.008 405.455 700.258 405.227 701.205 404.773C702.162 404.318 702.853 403.674 703.279 402.841C703.715 401.998 703.933 400.994 703.933 399.83C703.933 398.665 703.715 397.647 703.279 396.776C702.843 395.904 702.147 395.232 701.191 394.759C700.235 394.276 698.97 394.034 697.398 394.034H691.205V420H687.683ZM701.376 406.932L708.535 420H704.444L697.398 406.932H701.376ZM712.303 420V417.443L727.984 394.034H712.132V390.909H732.189V393.466L716.507 416.875H732.359V420H712.303ZM760.655 390.909H764.178V411.705C764.178 413.561 763.837 415.137 763.155 416.435C762.473 417.732 761.512 418.717 760.271 419.389C759.031 420.062 757.568 420.398 755.882 420.398C754.291 420.398 752.875 420.109 751.635 419.531C750.394 418.944 749.419 418.111 748.709 417.031C747.999 415.952 747.643 414.669 747.643 413.182H751.109C751.109 414.006 751.313 414.725 751.72 415.341C752.137 415.947 752.705 416.42 753.425 416.761C754.144 417.102 754.964 417.273 755.882 417.273C756.895 417.273 757.757 417.06 758.467 416.634C759.178 416.207 759.717 415.582 760.087 414.759C760.465 413.925 760.655 412.907 760.655 411.705V390.909ZM771.237 420V390.909H788.794V394.034H774.76V403.864H787.885V406.989H774.76V416.875H789.021V420H771.237ZM786.351 428.523C785.186 428.523 784.22 428.201 783.453 427.557C782.696 426.922 782.317 425.994 782.317 424.773C782.317 424.072 782.487 423.371 782.828 422.67C783.169 421.97 783.718 421.293 784.476 420.639C785.233 419.986 786.237 419.375 787.487 418.807L789.021 420C788.169 420.625 787.407 421.288 786.734 421.989C786.062 422.689 785.726 423.466 785.726 424.318C785.726 424.744 785.83 425.076 786.038 425.312C786.247 425.559 786.635 425.682 787.203 425.682C787.629 425.682 788.008 425.625 788.339 425.511C788.671 425.398 788.936 425.284 789.135 425.17L789.362 427.67C789.05 427.869 788.638 428.059 788.126 428.239C787.625 428.428 787.033 428.523 786.351 428.523ZM794.178 420V417.443L809.859 394.034H794.007V390.909H814.064V393.466L798.382 416.875H814.234V420H794.178ZM817.643 390.909H821.678L829.746 404.489H830.087L838.155 390.909H842.189L831.678 408.011V420H828.155V408.011L817.643 390.909ZM846.745 420V390.909H850.268V405.341H850.609L863.677 390.909H868.279L856.063 404.034L868.279 420H864.018L853.904 406.477L850.268 410.568V420H846.745ZM874.827 416.278C874.127 416.278 873.525 416.027 873.023 415.526C872.522 415.024 872.271 414.422 872.271 413.722C872.271 413.021 872.522 412.42 873.023 411.918C873.525 411.416 874.127 411.165 874.827 411.165C875.528 411.165 876.129 411.416 876.631 411.918C877.133 412.42 877.384 413.021 877.384 413.722C877.384 414.186 877.266 414.612 877.029 415C876.802 415.388 876.494 415.701 876.106 415.938C875.727 416.165 875.301 416.278 874.827 416.278ZM874.827 401.562C874.127 401.562 873.525 401.312 873.023 400.81C872.522 400.308 872.271 399.706 872.271 399.006C872.271 398.305 872.522 397.704 873.023 397.202C873.525 396.7 874.127 396.449 874.827 396.449C875.528 396.449 876.129 396.7 876.631 397.202C877.133 397.704 877.384 398.305 877.384 399.006C877.384 399.47 877.266 399.896 877.029 400.284C876.802 400.672 876.494 400.985 876.106 401.222C875.727 401.449 875.301 401.562 874.827 401.562Z" fill="white"/>
<rect x="253.5" y="486" width="260" height="120" rx="10" fill="#0E41D2"/>
<path d="M351.8 552V540.364H355.732C356.644 540.364 357.391 540.528 357.97 540.858C358.554 541.184 358.985 541.625 359.266 542.182C359.546 542.739 359.686 543.36 359.686 544.045C359.686 544.731 359.546 545.354 359.266 545.915C358.989 546.475 358.561 546.922 357.982 547.256C357.402 547.585 356.66 547.75 355.754 547.75H352.936V546.5H355.709C356.334 546.5 356.836 546.392 357.214 546.176C357.593 545.96 357.868 545.669 358.038 545.301C358.213 544.93 358.3 544.511 358.3 544.045C358.3 543.58 358.213 543.163 358.038 542.795C357.868 542.428 357.591 542.14 357.209 541.932C356.826 541.72 356.319 541.614 355.686 541.614H353.209V552H351.8ZM374.174 546.182C374.174 547.409 373.953 548.47 373.509 549.364C373.066 550.258 372.458 550.947 371.686 551.432C370.913 551.917 370.03 552.159 369.038 552.159C368.045 552.159 367.163 551.917 366.39 551.432C365.617 550.947 365.009 550.258 364.566 549.364C364.123 548.47 363.901 547.409 363.901 546.182C363.901 544.955 364.123 543.894 364.566 543C365.009 542.106 365.617 541.417 366.39 540.932C367.163 540.447 368.045 540.205 369.038 540.205C370.03 540.205 370.913 540.447 371.686 540.932C372.458 541.417 373.066 542.106 373.509 543C373.953 543.894 374.174 544.955 374.174 546.182ZM372.811 546.182C372.811 545.174 372.642 544.324 372.305 543.631C371.971 542.938 371.519 542.413 370.947 542.057C370.379 541.701 369.742 541.523 369.038 541.523C368.333 541.523 367.695 541.701 367.123 542.057C366.555 542.413 366.102 542.938 365.765 543.631C365.432 544.324 365.265 545.174 365.265 546.182C365.265 547.189 365.432 548.04 365.765 548.733C366.102 549.426 366.555 549.951 367.123 550.307C367.695 550.663 368.333 550.841 369.038 550.841C369.742 550.841 370.379 550.663 370.947 550.307C371.519 549.951 371.971 549.426 372.305 548.733C372.642 548.04 372.811 547.189 372.811 546.182ZM378.943 552V540.364H380.353V550.75H385.762V552H378.943ZM396.707 543.273C396.639 542.697 396.362 542.25 395.878 541.932C395.393 541.614 394.798 541.455 394.093 541.455C393.578 541.455 393.128 541.538 392.741 541.705C392.359 541.871 392.059 542.1 391.843 542.392C391.631 542.684 391.525 543.015 391.525 543.386C391.525 543.697 391.599 543.964 391.747 544.188C391.898 544.407 392.092 544.591 392.326 544.739C392.561 544.883 392.807 545.002 393.065 545.097C393.323 545.187 393.559 545.261 393.775 545.318L394.957 545.636C395.26 545.716 395.597 545.826 395.968 545.966C396.343 546.106 396.701 546.297 397.042 546.54C397.387 546.778 397.671 547.085 397.895 547.46C398.118 547.835 398.23 548.295 398.23 548.841C398.23 549.47 398.065 550.038 397.736 550.545C397.41 551.053 396.932 551.456 396.304 551.756C395.679 552.055 394.919 552.205 394.025 552.205C393.192 552.205 392.47 552.07 391.861 551.801C391.254 551.532 390.777 551.157 390.429 550.676C390.084 550.195 389.889 549.636 389.843 549H391.298C391.336 549.439 391.484 549.803 391.741 550.091C392.003 550.375 392.332 550.587 392.73 550.727C393.131 550.864 393.563 550.932 394.025 550.932C394.563 550.932 395.046 550.845 395.474 550.67C395.902 550.492 396.241 550.246 396.491 549.932C396.741 549.614 396.866 549.242 396.866 548.818C396.866 548.432 396.758 548.117 396.542 547.875C396.326 547.633 396.042 547.436 395.69 547.284C395.338 547.133 394.957 547 394.548 546.886L393.116 546.477C392.207 546.216 391.487 545.843 390.957 545.358C390.427 544.873 390.162 544.239 390.162 543.455C390.162 542.803 390.338 542.235 390.69 541.75C391.046 541.261 391.523 540.883 392.122 540.614C392.724 540.341 393.396 540.205 394.139 540.205C394.889 540.205 395.556 540.339 396.139 540.608C396.722 540.873 397.184 541.237 397.525 541.699C397.87 542.161 398.052 542.686 398.071 543.273H396.707ZM402.947 552V540.364H404.356V546.136H404.492L409.719 540.364H411.56L406.674 545.614L411.56 552H409.856L405.81 546.591L404.356 548.227V552H402.947ZM417.193 540.364V552H415.784V540.364H417.193Z" fill="white"/>
<rect x="595.5" y="486" width="260" height="120" rx="10" fill="#A300D9"/>
<path d="M686.318 552V540.364H693.341V541.614H687.728V545.545H692.978V546.795H687.728V550.75H693.432V552H686.318ZM707.508 540.364V552H706.145L699.804 542.864H699.69V552H698.281V540.364H699.645L706.008 549.523H706.122V540.364H707.508ZM720.682 544C720.557 543.617 720.393 543.275 720.188 542.972C719.987 542.665 719.747 542.403 719.466 542.188C719.19 541.972 718.876 541.807 718.523 541.693C718.171 541.58 717.785 541.523 717.364 541.523C716.675 541.523 716.048 541.701 715.484 542.057C714.919 542.413 714.47 542.938 714.137 543.631C713.804 544.324 713.637 545.174 713.637 546.182C713.637 547.189 713.805 548.04 714.143 548.733C714.48 549.426 714.936 549.951 715.512 550.307C716.088 550.663 716.735 550.841 717.455 550.841C718.122 550.841 718.709 550.699 719.216 550.415C719.728 550.127 720.126 549.722 720.41 549.199C720.698 548.672 720.841 548.053 720.841 547.341L721.273 547.432H717.773V546.182H722.205V547.432C722.205 548.39 722.001 549.223 721.591 549.932C721.186 550.64 720.626 551.189 719.91 551.58C719.198 551.966 718.379 552.159 717.455 552.159C716.425 552.159 715.52 551.917 714.739 551.432C713.963 550.947 713.357 550.258 712.921 549.364C712.489 548.47 712.273 547.409 712.273 546.182C712.273 545.261 712.396 544.434 712.643 543.699C712.893 542.96 713.245 542.331 713.699 541.812C714.154 541.294 714.692 540.896 715.313 540.619C715.934 540.343 716.618 540.205 717.364 540.205C717.978 540.205 718.55 540.297 719.08 540.483C719.614 540.665 720.09 540.924 720.506 541.261C720.927 541.595 721.277 541.994 721.557 542.46C721.838 542.922 722.031 543.436 722.137 544H720.682ZM727.018 552V540.364H728.428V550.75H733.837V552H727.018ZM739.828 540.364V552H738.418V540.364H739.828ZM751.416 543.273C751.348 542.697 751.072 542.25 750.587 541.932C750.102 541.614 749.507 541.455 748.803 541.455C748.288 541.455 747.837 541.538 747.451 541.705C747.068 541.871 746.769 542.1 746.553 542.392C746.341 542.684 746.235 543.015 746.235 543.386C746.235 543.697 746.309 543.964 746.456 544.188C746.608 544.407 746.801 544.591 747.036 544.739C747.271 544.883 747.517 545.002 747.774 545.097C748.032 545.187 748.269 545.261 748.485 545.318L749.666 545.636C749.97 545.716 750.307 545.826 750.678 545.966C751.053 546.106 751.411 546.297 751.752 546.54C752.096 546.778 752.38 547.085 752.604 547.46C752.827 547.835 752.939 548.295 752.939 548.841C752.939 549.47 752.774 550.038 752.445 550.545C752.119 551.053 751.642 551.456 751.013 551.756C750.388 552.055 749.629 552.205 748.735 552.205C747.901 552.205 747.18 552.07 746.57 551.801C745.964 551.532 745.487 551.157 745.138 550.676C744.793 550.195 744.598 549.636 744.553 549H746.007C746.045 549.439 746.193 549.803 746.451 550.091C746.712 550.375 747.041 550.587 747.439 550.727C747.841 550.864 748.273 550.932 748.735 550.932C749.273 550.932 749.755 550.845 750.184 550.67C750.612 550.492 750.951 550.246 751.201 549.932C751.451 549.614 751.576 549.242 751.576 548.818C751.576 548.432 751.468 548.117 751.252 547.875C751.036 547.633 750.752 547.436 750.399 547.284C750.047 547.133 749.666 547 749.257 546.886L747.826 546.477C746.916 546.216 746.197 545.843 745.666 545.358C745.136 544.873 744.871 544.239 744.871 543.455C744.871 542.803 745.047 542.235 745.399 541.75C745.755 541.261 746.233 540.883 746.831 540.614C747.434 540.341 748.106 540.205 748.848 540.205C749.598 540.205 750.265 540.339 750.848 540.608C751.432 540.873 751.894 541.237 752.235 541.699C752.579 542.161 752.761 542.686 752.78 543.273H751.416ZM757.656 552V540.364H759.065V545.545H765.27V540.364H766.679V552H765.27V546.795H759.065V552H757.656Z" fill="white"/>
<rect x="938" y="486" width="260" height="120" rx="10" fill="#0E41D2"/>
<path d="M1024.54 552V540.364H1028.47C1029.39 540.364 1030.13 540.528 1030.71 540.858C1031.3 541.184 1031.73 541.625 1032.01 542.182C1032.29 542.739 1032.43 543.36 1032.43 544.045C1032.43 544.731 1032.29 545.354 1032.01 545.915C1031.73 546.475 1031.3 546.922 1030.72 547.256C1030.15 547.585 1029.4 547.75 1028.5 547.75H1025.68V546.5H1028.45C1029.08 546.5 1029.58 546.392 1029.96 546.176C1030.34 545.96 1030.61 545.669 1030.78 545.301C1030.96 544.93 1031.04 544.511 1031.04 544.045C1031.04 543.58 1030.96 543.163 1030.78 542.795C1030.61 542.428 1030.33 542.14 1029.95 541.932C1029.57 541.72 1029.06 541.614 1028.43 541.614H1025.95V552H1024.54ZM1037.71 552.159V550.841H1038.44C1038.72 550.841 1038.96 550.786 1039.14 550.676C1039.34 550.566 1039.5 550.424 1039.62 550.25C1039.75 550.076 1039.86 549.894 1039.94 549.705L1040.12 549.273L1036.1 540.364H1037.62L1040.83 547.591L1043.76 540.364H1045.26L1041.24 550.114C1041.08 550.477 1040.89 550.814 1040.69 551.125C1040.49 551.436 1040.21 551.686 1039.87 551.875C1039.52 552.064 1039.05 552.159 1038.46 552.159H1037.71ZM1058.3 544H1056.89C1056.81 543.595 1056.66 543.239 1056.45 542.932C1056.25 542.625 1056 542.367 1055.7 542.159C1055.41 541.947 1055.09 541.788 1054.73 541.682C1054.38 541.576 1054.01 541.523 1053.62 541.523C1052.91 541.523 1052.28 541.701 1051.7 542.057C1051.14 542.413 1050.68 542.938 1050.35 543.631C1050.01 544.324 1049.85 545.174 1049.85 546.182C1049.85 547.189 1050.01 548.04 1050.35 548.733C1050.68 549.426 1051.14 549.951 1051.7 550.307C1052.28 550.663 1052.91 550.841 1053.62 550.841C1054.01 550.841 1054.38 550.788 1054.73 550.682C1055.09 550.576 1055.41 550.419 1055.7 550.21C1056 549.998 1056.25 549.739 1056.45 549.432C1056.66 549.121 1056.81 548.765 1056.89 548.364H1058.3C1058.19 548.958 1058 549.491 1057.72 549.96C1057.44 550.43 1057.09 550.83 1056.68 551.159C1056.26 551.485 1055.79 551.733 1055.27 551.903C1054.76 552.074 1054.21 552.159 1053.62 552.159C1052.63 552.159 1051.74 551.917 1050.97 551.432C1050.2 550.947 1049.59 550.258 1049.15 549.364C1048.7 548.47 1048.48 547.409 1048.48 546.182C1048.48 544.955 1048.7 543.894 1049.15 543C1049.59 542.106 1050.2 541.417 1050.97 540.932C1051.74 540.447 1052.63 540.205 1053.62 540.205C1054.21 540.205 1054.76 540.29 1055.27 540.46C1055.79 540.631 1056.26 540.881 1056.68 541.21C1057.09 541.536 1057.44 541.934 1057.72 542.403C1058 542.869 1058.19 543.402 1058.3 544ZM1072.34 544H1070.93C1070.85 543.595 1070.7 543.239 1070.49 542.932C1070.29 542.625 1070.04 542.367 1069.74 542.159C1069.45 541.947 1069.13 541.788 1068.77 541.682C1068.42 541.576 1068.05 541.523 1067.66 541.523C1066.95 541.523 1066.32 541.701 1065.74 542.057C1065.18 542.413 1064.72 542.938 1064.39 543.631C1064.05 544.324 1063.89 545.174 1063.89 546.182C1063.89 547.189 1064.05 548.04 1064.39 548.733C1064.72 549.426 1065.18 549.951 1065.74 550.307C1066.32 550.663 1066.95 550.841 1067.66 550.841C1068.05 550.841 1068.42 550.788 1068.77 550.682C1069.13 550.576 1069.45 550.419 1069.74 550.21C1070.04 549.998 1070.29 549.739 1070.49 549.432C1070.7 549.121 1070.85 548.765 1070.93 548.364H1072.34C1072.24 548.958 1072.04 549.491 1071.76 549.96C1071.48 550.43 1071.13 550.83 1070.72 551.159C1070.3 551.485 1069.83 551.733 1069.31 551.903C1068.8 552.074 1068.25 552.159 1067.66 552.159C1066.67 552.159 1065.78 551.917 1065.01 551.432C1064.24 550.947 1063.63 550.258 1063.19 549.364C1062.74 548.47 1062.52 547.409 1062.52 546.182C1062.52 544.955 1062.74 543.894 1063.19 543C1063.63 542.106 1064.24 541.417 1065.01 540.932C1065.78 540.447 1066.67 540.205 1067.66 540.205C1068.25 540.205 1068.8 540.29 1069.31 540.46C1069.83 540.631 1070.3 540.881 1070.72 541.21C1071.13 541.536 1071.48 541.934 1071.76 542.403C1072.04 542.869 1072.24 543.402 1072.34 544ZM1083.86 552L1079.86 546.659H1078.43V552H1077.02V540.364H1078.43V545.409H1079.04L1083.7 540.364H1085.38L1080.68 545.477L1085.54 552H1083.86ZM1089.76 540.364H1091.15V549.523H1091.26L1097.63 540.364H1098.99V552H1097.58V542.864H1097.47L1091.13 552H1089.76V540.364ZM1104.21 540.364H1105.6V549.523H1105.71L1112.07 540.364H1113.44V552H1112.03V542.864H1111.91L1105.57 552H1104.21V540.364ZM1109.94 537.455H1111.19C1111.19 538.068 1110.97 538.57 1110.55 538.96C1110.13 539.35 1109.55 539.545 1108.82 539.545C1108.11 539.545 1107.54 539.35 1107.11 538.96C1106.69 538.57 1106.48 538.068 1106.48 537.455H1107.73C1107.73 537.75 1107.81 538.009 1107.98 538.233C1108.14 538.456 1108.42 538.568 1108.82 538.568C1109.22 538.568 1109.5 538.456 1109.67 538.233C1109.85 538.009 1109.94 537.75 1109.94 537.455Z" fill="white"/>
</svg>
