<svg width="1440" height="1012" viewBox="0 0 1440 1012" fill="none" xmlns="http://www.w3.org/2000/svg">
<rect width="1440" height="1012" fill="#6200FF"/>
<path d="M588.939 330V327.443L604.62 304.034H588.768V300.909H608.825V303.466L593.143 326.875H608.995V330H588.939ZM616.098 330H612.405L623.086 300.909H626.723L637.405 330H633.711L625.018 305.511H624.791L616.098 330ZM617.461 318.636H632.348V321.761H617.461V318.636ZM641.936 330V300.909H645.459V326.875H658.981V330H641.936ZM687.848 315.455C687.848 318.523 687.294 321.174 686.187 323.409C685.079 325.644 683.559 327.367 681.627 328.58C679.695 329.792 677.489 330.398 675.008 330.398C672.526 330.398 670.32 329.792 668.388 328.58C666.456 327.367 664.937 325.644 663.829 323.409C662.721 321.174 662.167 318.523 662.167 315.455C662.167 312.386 662.721 309.735 663.829 307.5C664.937 305.265 666.456 303.542 668.388 302.33C670.32 301.117 672.526 300.511 675.008 300.511C677.489 300.511 679.695 301.117 681.627 302.33C683.559 303.542 685.079 305.265 686.187 307.5C687.294 309.735 687.848 312.386 687.848 315.455ZM684.439 315.455C684.439 312.936 684.018 310.81 683.175 309.077C682.342 307.344 681.21 306.032 679.78 305.142C678.36 304.252 676.769 303.807 675.008 303.807C673.246 303.807 671.651 304.252 670.221 305.142C668.8 306.032 667.669 307.344 666.826 309.077C665.992 310.81 665.576 312.936 665.576 315.455C665.576 317.973 665.992 320.099 666.826 321.832C667.669 323.565 668.8 324.877 670.221 325.767C671.651 326.657 673.246 327.102 675.008 327.102C676.769 327.102 678.36 326.657 679.78 325.767C681.21 324.877 682.342 323.565 683.175 321.832C684.018 320.099 684.439 317.973 684.439 315.455ZM713.658 310C713.346 309.044 712.934 308.187 712.422 307.429C711.92 306.662 711.319 306.009 710.618 305.469C709.927 304.929 709.141 304.517 708.26 304.233C707.38 303.949 706.414 303.807 705.363 303.807C703.639 303.807 702.072 304.252 700.661 305.142C699.25 306.032 698.128 307.344 697.294 309.077C696.461 310.81 696.044 312.936 696.044 315.455C696.044 317.973 696.466 320.099 697.309 321.832C698.151 323.565 699.293 324.877 700.732 325.767C702.171 326.657 703.791 327.102 705.59 327.102C707.257 327.102 708.724 326.747 709.993 326.037C711.272 325.317 712.266 324.304 712.976 322.997C713.696 321.681 714.056 320.133 714.056 318.352L715.135 318.58H706.385V315.455H717.465V318.58C717.465 320.975 716.954 323.059 715.931 324.83C714.918 326.6 713.516 327.973 711.726 328.949C709.946 329.915 707.901 330.398 705.59 330.398C703.014 330.398 700.751 329.792 698.8 328.58C696.859 327.367 695.344 325.644 694.255 323.409C693.175 321.174 692.635 318.523 692.635 315.455C692.635 313.153 692.943 311.084 693.559 309.247C694.184 307.401 695.064 305.829 696.201 304.531C697.337 303.234 698.682 302.24 700.235 301.548C701.788 300.857 703.497 300.511 705.363 300.511C706.897 300.511 708.327 300.743 709.652 301.207C710.988 301.662 712.176 302.311 713.218 303.153C714.269 303.987 715.145 304.986 715.846 306.151C716.546 307.306 717.029 308.589 717.294 310H713.658ZM742.589 300.909H746.112V320.17C746.112 322.159 745.643 323.935 744.706 325.497C743.778 327.05 742.466 328.277 740.771 329.176C739.076 330.066 737.087 330.511 734.805 330.511C732.523 330.511 730.534 330.066 728.839 329.176C727.144 328.277 725.828 327.05 724.89 325.497C723.962 323.935 723.498 322.159 723.498 320.17V300.909H727.021V319.886C727.021 321.307 727.334 322.571 727.959 323.679C728.584 324.777 729.474 325.644 730.629 326.278C731.794 326.903 733.186 327.216 734.805 327.216C736.424 327.216 737.816 326.903 738.981 326.278C740.146 325.644 741.036 324.777 741.652 323.679C742.277 322.571 742.589 321.307 742.589 319.886V300.909ZM764.283 300.909H767.806V321.705C767.806 323.561 767.465 325.137 766.783 326.435C766.101 327.732 765.14 328.717 763.9 329.389C762.659 330.062 761.196 330.398 759.51 330.398C757.919 330.398 756.504 330.109 755.263 329.531C754.023 328.944 753.047 328.111 752.337 327.031C751.627 325.952 751.272 324.669 751.272 323.182H754.738C754.738 324.006 754.941 324.725 755.348 325.341C755.765 325.947 756.333 326.42 757.053 326.761C757.773 327.102 758.592 327.273 759.51 327.273C760.524 327.273 761.385 327.06 762.096 326.634C762.806 326.207 763.346 325.582 763.715 324.759C764.094 323.925 764.283 322.907 764.283 321.705V300.909ZM802.025 308.182C801.854 306.742 801.163 305.625 799.951 304.83C798.739 304.034 797.252 303.636 795.491 303.636C794.203 303.636 793.076 303.845 792.11 304.261C791.153 304.678 790.405 305.251 789.866 305.98C789.335 306.709 789.07 307.538 789.07 308.466C789.07 309.242 789.255 309.91 789.624 310.469C790.003 311.018 790.486 311.477 791.073 311.847C791.66 312.206 792.276 312.505 792.919 312.741C793.563 312.969 794.155 313.153 794.695 313.295L797.65 314.091C798.407 314.29 799.25 314.564 800.178 314.915C801.116 315.265 802.01 315.743 802.863 316.349C803.724 316.946 804.435 317.713 804.993 318.651C805.552 319.588 805.831 320.739 805.831 322.102C805.831 323.674 805.419 325.095 804.596 326.364C803.781 327.633 802.588 328.641 801.016 329.389C799.454 330.137 797.555 330.511 795.32 330.511C793.237 330.511 791.433 330.175 789.908 329.503C788.393 328.83 787.2 327.893 786.329 326.69C785.467 325.488 784.979 324.091 784.866 322.5H788.502C788.597 323.598 788.966 324.508 789.61 325.227C790.263 325.937 791.087 326.468 792.081 326.818C793.085 327.159 794.165 327.33 795.32 327.33C796.665 327.33 797.872 327.112 798.942 326.676C800.012 326.231 800.86 325.616 801.485 324.83C802.11 324.034 802.422 323.106 802.422 322.045C802.422 321.08 802.152 320.294 801.613 319.688C801.073 319.081 800.363 318.589 799.482 318.21C798.601 317.831 797.65 317.5 796.627 317.216L793.047 316.193C790.775 315.54 788.975 314.607 787.65 313.395C786.324 312.183 785.661 310.597 785.661 308.636C785.661 307.008 786.101 305.587 786.982 304.375C787.872 303.153 789.065 302.206 790.562 301.534C792.067 300.852 793.748 300.511 795.604 300.511C797.479 300.511 799.146 300.848 800.604 301.52C802.062 302.183 803.218 303.092 804.07 304.247C804.932 305.402 805.386 306.714 805.434 308.182H802.025ZM815.146 300.909V330H811.623V300.909H815.146ZM822.209 330V300.909H839.766V304.034H825.732V313.864H838.857V316.989H825.732V326.875H839.993V330H822.209ZM837.323 338.523C836.158 338.523 835.192 338.201 834.425 337.557C833.668 336.922 833.289 335.994 833.289 334.773C833.289 334.072 833.459 333.371 833.8 332.67C834.141 331.97 834.69 331.293 835.448 330.639C836.205 329.986 837.209 329.375 838.459 328.807L839.993 330C839.141 330.625 838.379 331.288 837.706 331.989C837.034 332.689 836.698 333.466 836.698 334.318C836.698 334.744 836.802 335.076 837.01 335.312C837.219 335.559 837.607 335.682 838.175 335.682C838.601 335.682 838.98 335.625 839.312 335.511C839.643 335.398 839.908 335.284 840.107 335.17L840.334 337.67C840.022 337.869 839.61 338.059 839.098 338.239C838.597 338.428 838.005 338.523 837.323 338.523ZM848.104 326.278C847.403 326.278 846.802 326.027 846.3 325.526C845.798 325.024 845.547 324.422 845.547 323.722C845.547 323.021 845.798 322.42 846.3 321.918C846.802 321.416 847.403 321.165 848.104 321.165C848.805 321.165 849.406 321.416 849.908 321.918C850.41 322.42 850.661 323.021 850.661 323.722C850.661 324.186 850.543 324.612 850.306 325C850.079 325.388 849.771 325.701 849.383 325.938C849.004 326.165 848.578 326.278 848.104 326.278ZM848.104 311.562C847.403 311.562 846.802 311.312 846.3 310.81C845.798 310.308 845.547 309.706 845.547 309.006C845.547 308.305 845.798 307.704 846.3 307.202C846.802 306.7 847.403 306.449 848.104 306.449C848.805 306.449 849.406 306.7 849.908 307.202C850.41 307.704 850.661 308.305 850.661 309.006C850.661 309.47 850.543 309.896 850.306 310.284C850.079 310.672 849.771 310.985 849.383 311.222C849.004 311.449 848.578 311.562 848.104 311.562Z" fill="white"/>
<rect x="541.655" y="373.5" width="359" height="59" rx="9.5" stroke="white"/>
<g clip-path="url(#clip0_227_47)">
<path d="M568.004 410V394.727H577.222V396.368H569.854V401.528H576.744V403.169H569.854V408.359H577.341V410H568.004ZM580.316 410V398.545H582.017V400.335H582.166C582.404 399.724 582.79 399.249 583.322 398.911C583.854 398.568 584.492 398.396 585.238 398.396C585.994 398.396 586.623 398.568 587.125 398.911C587.632 399.249 588.027 399.724 588.311 400.335H588.43C588.723 399.744 589.163 399.274 589.75 398.926C590.337 398.573 591.04 398.396 591.86 398.396C592.885 398.396 593.722 398.717 594.374 399.358C595.025 399.995 595.35 400.987 595.35 402.334V410H593.591V402.334C593.591 401.489 593.359 400.885 592.897 400.522C592.435 400.159 591.89 399.977 591.264 399.977C590.458 399.977 589.834 400.221 589.392 400.708C588.95 401.19 588.728 401.802 588.728 402.543V410H586.939V402.155C586.939 401.504 586.727 400.979 586.305 400.581C585.882 400.179 585.338 399.977 584.671 399.977C584.214 399.977 583.787 400.099 583.389 400.343C582.996 400.586 582.678 400.924 582.434 401.357C582.196 401.784 582.076 402.279 582.076 402.841V410H580.316ZM601.939 410.268C601.213 410.268 600.554 410.132 599.963 409.858C599.371 409.58 598.901 409.18 598.553 408.658C598.205 408.131 598.031 407.494 598.031 406.749C598.031 406.092 598.161 405.56 598.419 405.153C598.678 404.74 599.023 404.417 599.456 404.183C599.888 403.95 600.366 403.776 600.888 403.661C601.415 403.542 601.944 403.447 602.476 403.378C603.172 403.288 603.736 403.221 604.169 403.176C604.606 403.127 604.924 403.045 605.123 402.93C605.327 402.816 605.429 402.617 605.429 402.334V402.274C605.429 401.538 605.228 400.967 604.825 400.559C604.427 400.151 603.823 399.947 603.013 399.947C602.173 399.947 601.514 400.131 601.037 400.499C600.559 400.867 600.224 401.26 600.03 401.678L598.36 401.081C598.658 400.385 599.056 399.843 599.553 399.455C600.055 399.062 600.602 398.789 601.193 398.635C601.79 398.476 602.377 398.396 602.953 398.396C603.321 398.396 603.744 398.441 604.221 398.531C604.703 398.615 605.168 398.792 605.616 399.06C606.068 399.328 606.443 399.734 606.742 400.276C607.04 400.817 607.189 401.543 607.189 402.453V410H605.429V408.449H605.34C605.22 408.697 605.021 408.963 604.743 409.247C604.465 409.53 604.094 409.771 603.632 409.97C603.17 410.169 602.605 410.268 601.939 410.268ZM602.208 408.688C602.904 408.688 603.49 408.551 603.967 408.277C604.45 408.004 604.813 407.651 605.056 407.218C605.305 406.786 605.429 406.331 605.429 405.854V404.243C605.355 404.332 605.19 404.414 604.937 404.489C604.688 404.559 604.4 404.621 604.072 404.675C603.749 404.725 603.433 404.77 603.125 404.81C602.822 404.844 602.575 404.874 602.386 404.899C601.929 404.959 601.502 405.056 601.104 405.19C600.711 405.319 600.393 405.516 600.149 405.779C599.911 406.038 599.791 406.391 599.791 406.838C599.791 407.45 600.018 407.912 600.47 408.225C600.927 408.533 601.507 408.688 602.208 408.688ZM610.401 410V398.545H612.161V410H610.401ZM611.296 396.636C610.953 396.636 610.657 396.52 610.409 396.286C610.165 396.052 610.043 395.771 610.043 395.443C610.043 395.115 610.165 394.834 610.409 394.6C610.657 394.367 610.953 394.25 611.296 394.25C611.639 394.25 611.933 394.367 612.176 394.6C612.425 394.834 612.549 395.115 612.549 395.443C612.549 395.771 612.425 396.052 612.176 396.286C611.933 396.52 611.639 396.636 611.296 396.636ZM617.145 394.727V410H615.385V394.727H617.145Z" fill="white"/>
</g>
<rect x="541.655" y="448.5" width="359" height="59" rx="9.5" stroke="white"/>
<g clip-path="url(#clip1_227_47)">
<path d="M568.004 485V469.727H569.854V476.528H577.997V469.727H579.847V485H577.997V478.169H569.854V485H568.004ZM586.681 485.268C585.955 485.268 585.297 485.132 584.705 484.858C584.113 484.58 583.644 484.18 583.296 483.658C582.948 483.131 582.774 482.494 582.774 481.749C582.774 481.092 582.903 480.56 583.161 480.153C583.42 479.74 583.765 479.417 584.198 479.183C584.63 478.95 585.108 478.776 585.63 478.661C586.157 478.542 586.686 478.447 587.218 478.378C587.914 478.288 588.478 478.221 588.911 478.176C589.349 478.127 589.667 478.045 589.866 477.93C590.069 477.816 590.171 477.617 590.171 477.334V477.274C590.171 476.538 589.97 475.967 589.567 475.559C589.17 475.151 588.565 474.947 587.755 474.947C586.915 474.947 586.256 475.131 585.779 475.499C585.302 475.867 584.966 476.26 584.772 476.678L583.102 476.081C583.4 475.385 583.798 474.843 584.295 474.455C584.797 474.062 585.344 473.789 585.936 473.635C586.532 473.476 587.119 473.396 587.695 473.396C588.063 473.396 588.486 473.441 588.963 473.531C589.445 473.615 589.91 473.792 590.358 474.06C590.81 474.328 591.186 474.734 591.484 475.276C591.782 475.817 591.931 476.543 591.931 477.453V485H590.171V483.449H590.082C589.962 483.697 589.764 483.963 589.485 484.247C589.207 484.53 588.836 484.771 588.374 484.97C587.912 485.169 587.347 485.268 586.681 485.268ZM586.95 483.688C587.646 483.688 588.232 483.551 588.71 483.277C589.192 483.004 589.555 482.651 589.798 482.218C590.047 481.786 590.171 481.331 590.171 480.854V479.243C590.097 479.332 589.933 479.414 589.679 479.489C589.431 479.559 589.142 479.621 588.814 479.675C588.491 479.725 588.175 479.77 587.867 479.81C587.564 479.844 587.318 479.874 587.129 479.899C586.671 479.959 586.244 480.056 585.846 480.19C585.453 480.319 585.135 480.516 584.891 480.779C584.653 481.038 584.534 481.391 584.534 481.838C584.534 482.45 584.76 482.912 585.212 483.225C585.67 483.533 586.249 483.688 586.95 483.688ZM603.257 476.111L601.676 476.558C601.577 476.295 601.43 476.039 601.236 475.79C601.047 475.537 600.789 475.328 600.461 475.164C600.133 475 599.712 474.918 599.2 474.918C598.499 474.918 597.915 475.079 597.448 475.402C596.985 475.721 596.754 476.126 596.754 476.618C596.754 477.055 596.913 477.401 597.232 477.654C597.55 477.908 598.047 478.119 598.723 478.288L600.423 478.706C601.447 478.955 602.211 479.335 602.713 479.847C603.215 480.354 603.466 481.008 603.466 481.808C603.466 482.464 603.277 483.051 602.899 483.568C602.526 484.085 602.004 484.493 601.333 484.791C600.662 485.089 599.881 485.239 598.992 485.239C597.823 485.239 596.856 484.985 596.091 484.478C595.325 483.971 594.84 483.23 594.636 482.256L596.307 481.838C596.466 482.455 596.767 482.917 597.209 483.225C597.657 483.533 598.241 483.688 598.962 483.688C599.782 483.688 600.433 483.513 600.916 483.165C601.403 482.812 601.646 482.39 601.646 481.898C601.646 481.5 601.507 481.167 601.229 480.898C600.95 480.625 600.523 480.421 599.946 480.287L598.037 479.839C596.988 479.591 596.217 479.206 595.725 478.684C595.238 478.157 594.994 477.498 594.994 476.707C594.994 476.061 595.176 475.489 595.539 474.992C595.907 474.495 596.406 474.105 597.038 473.821C597.674 473.538 598.395 473.396 599.2 473.396C600.334 473.396 601.224 473.645 601.87 474.142C602.521 474.639 602.984 475.295 603.257 476.111ZM609.516 475.455V476.767L604.475 478.676V477.364L609.516 475.455ZM607.875 469.727V485H606.115V469.727H607.875ZM615.752 485.239C614.718 485.239 613.811 484.993 613.03 484.5C612.254 484.008 611.648 483.32 611.21 482.435C610.778 481.55 610.562 480.516 610.562 479.332C610.562 478.139 610.778 477.098 611.21 476.208C611.648 475.318 612.254 474.627 613.03 474.135C613.811 473.642 614.718 473.396 615.752 473.396C616.786 473.396 617.691 473.642 618.466 474.135C619.247 474.627 619.854 475.318 620.286 476.208C620.724 477.098 620.942 478.139 620.942 479.332C620.942 480.516 620.724 481.55 620.286 482.435C619.854 483.32 619.247 484.008 618.466 484.5C617.691 484.993 616.786 485.239 615.752 485.239ZM615.752 483.658C616.538 483.658 617.184 483.456 617.691 483.054C618.198 482.651 618.573 482.121 618.817 481.465C619.061 480.809 619.182 480.098 619.182 479.332C619.182 478.567 619.061 477.853 618.817 477.192C618.573 476.531 618.198 475.996 617.691 475.589C617.184 475.181 616.538 474.977 615.752 474.977C614.966 474.977 614.32 475.181 613.813 475.589C613.306 475.996 612.931 476.531 612.687 477.192C612.443 477.853 612.322 478.567 612.322 479.332C612.322 480.098 612.443 480.809 612.687 481.465C612.931 482.121 613.306 482.651 613.813 483.054C614.32 483.456 614.966 483.658 615.752 483.658Z" fill="white"/>
</g>
<rect x="540.155" y="523" width="360" height="56.5" rx="10" fill="white"/>
<path d="M649.462 560V558.357L655.994 549.191H649.449V546.909H659.471V548.552L652.932 557.718H659.484V560H649.462ZM666.564 560H663.598L668.118 546.909H671.684L676.197 560H673.231L669.952 549.901H669.85L666.564 560ZM666.379 554.854H673.385V557.015H666.379V554.854ZM680.473 560V546.909H683.241V557.718H688.853V560H680.473ZM704.906 553.455C704.906 554.882 704.635 556.097 704.094 557.098C703.557 558.099 702.824 558.864 701.895 559.393C700.97 559.917 699.931 560.179 698.776 560.179C697.612 560.179 696.568 559.915 695.644 559.386C694.719 558.858 693.988 558.093 693.451 557.092C692.914 556.09 692.646 554.878 692.646 553.455C692.646 552.027 692.914 550.812 693.451 549.811C693.988 548.81 694.719 548.047 695.644 547.523C696.568 546.994 697.612 546.73 698.776 546.73C699.931 546.73 700.97 546.994 701.895 547.523C702.824 548.047 703.557 548.81 704.094 549.811C704.635 550.812 704.906 552.027 704.906 553.455ZM702.1 553.455C702.1 552.53 701.961 551.75 701.684 551.115C701.411 550.48 701.026 549.999 700.527 549.67C700.029 549.342 699.445 549.178 698.776 549.178C698.107 549.178 697.523 549.342 697.024 549.67C696.526 549.999 696.138 550.48 695.861 551.115C695.588 551.75 695.452 552.53 695.452 553.455C695.452 554.379 695.588 555.159 695.861 555.794C696.138 556.429 696.526 556.911 697.024 557.239C697.523 557.567 698.107 557.731 698.776 557.731C699.445 557.731 700.029 557.567 700.527 557.239C701.026 556.911 701.411 556.429 701.684 555.794C701.961 555.159 702.1 554.379 702.1 553.455ZM718.336 551.141C718.247 550.83 718.121 550.555 717.959 550.316C717.797 550.073 717.599 549.869 717.365 549.702C717.135 549.532 716.871 549.402 716.572 549.312C716.278 549.223 715.952 549.178 715.594 549.178C714.925 549.178 714.337 549.344 713.83 549.677C713.327 550.009 712.935 550.493 712.654 551.128C712.373 551.759 712.232 552.53 712.232 553.442C712.232 554.354 712.371 555.129 712.648 555.768C712.925 556.408 713.317 556.896 713.824 557.232C714.331 557.565 714.929 557.731 715.62 557.731C716.246 557.731 716.781 557.62 717.224 557.398C717.672 557.173 718.013 556.855 718.247 556.446C718.486 556.037 718.605 555.553 718.605 554.995L719.167 555.078H715.792V552.994H721.27V554.643C721.27 555.794 721.027 556.783 720.542 557.609C720.056 558.432 719.387 559.067 718.535 559.514C717.682 559.957 716.706 560.179 715.607 560.179C714.38 560.179 713.302 559.908 712.373 559.367C711.444 558.822 710.719 558.048 710.199 557.047C709.684 556.041 709.426 554.848 709.426 553.467C709.426 552.406 709.579 551.46 709.886 550.629C710.197 549.794 710.632 549.087 711.19 548.507C711.748 547.928 712.398 547.487 713.14 547.184C713.881 546.881 714.684 546.73 715.55 546.73C716.291 546.73 716.981 546.839 717.621 547.056C718.26 547.269 718.826 547.572 719.321 547.964C719.819 548.356 720.226 548.822 720.542 549.364C720.857 549.901 721.059 550.493 721.149 551.141H718.336ZM734.135 546.909H736.903V555.411C736.903 556.365 736.675 557.2 736.219 557.916C735.767 558.632 735.135 559.19 734.321 559.591C733.507 559.987 732.559 560.185 731.476 560.185C730.39 560.185 729.439 559.987 728.625 559.591C727.811 559.19 727.179 558.632 726.727 557.916C726.275 557.2 726.049 556.365 726.049 555.411V546.909H728.817V555.174C728.817 555.673 728.926 556.116 729.143 556.504C729.365 556.891 729.676 557.196 730.076 557.418C730.477 557.639 730.944 557.75 731.476 557.75C732.013 557.75 732.48 557.639 732.876 557.418C733.277 557.196 733.586 556.891 733.803 556.504C734.025 556.116 734.135 555.673 734.135 555.174V546.909ZM747.122 546.909H749.858V556.037C749.858 556.881 749.668 557.614 749.289 558.236C748.914 558.858 748.392 559.337 747.723 559.674C747.054 560.011 746.276 560.179 745.389 560.179C744.601 560.179 743.885 560.04 743.242 559.763C742.603 559.482 742.095 559.056 741.72 558.485C741.345 557.91 741.16 557.187 741.164 556.318H743.919C743.928 556.663 743.998 556.96 744.13 557.207C744.267 557.45 744.452 557.637 744.686 557.769C744.925 557.897 745.206 557.961 745.53 557.961C745.871 557.961 746.159 557.888 746.393 557.744C746.632 557.594 746.813 557.377 746.936 557.092C747.06 556.806 747.122 556.455 747.122 556.037V546.909ZM768.813 550.674C768.762 550.158 768.543 549.758 768.155 549.472C767.767 549.187 767.241 549.044 766.576 549.044C766.125 549.044 765.743 549.108 765.432 549.236C765.121 549.359 764.882 549.532 764.716 549.754C764.554 549.975 764.473 550.227 764.473 550.508C764.465 550.742 764.514 550.947 764.62 551.121C764.731 551.296 764.882 551.447 765.074 551.575C765.266 551.699 765.487 551.808 765.739 551.901C765.99 551.991 766.259 552.067 766.544 552.131L767.72 552.413C768.291 552.54 768.816 552.711 769.293 552.924C769.77 553.137 770.183 553.399 770.533 553.71C770.882 554.021 771.153 554.388 771.345 554.81C771.541 555.232 771.641 555.715 771.645 556.261C771.641 557.062 771.436 557.756 771.032 558.344C770.631 558.928 770.051 559.382 769.293 559.706C768.539 560.026 767.629 560.185 766.563 560.185C765.507 560.185 764.586 560.023 763.802 559.7C763.022 559.376 762.413 558.896 761.974 558.261C761.539 557.622 761.311 556.832 761.29 555.89H763.968C763.998 556.329 764.124 556.695 764.345 556.989C764.571 557.279 764.872 557.499 765.247 557.648C765.626 557.793 766.054 557.865 766.532 557.865C767 557.865 767.407 557.797 767.752 557.661C768.102 557.524 768.372 557.335 768.564 557.092C768.756 556.849 768.852 556.57 768.852 556.254C768.852 555.96 768.764 555.713 768.59 555.513C768.419 555.312 768.168 555.142 767.835 555.001C767.507 554.861 767.105 554.733 766.627 554.618L765.202 554.26C764.098 553.991 763.227 553.572 762.588 553.001C761.948 552.43 761.631 551.661 761.635 550.693C761.631 549.901 761.842 549.208 762.268 548.616C762.698 548.023 763.289 547.561 764.039 547.229C764.789 546.896 765.641 546.73 766.595 546.73C767.567 546.73 768.415 546.896 769.139 547.229C769.868 547.561 770.435 548.023 770.84 548.616C771.245 549.208 771.453 549.894 771.466 550.674H768.813ZM778.975 546.909V560H776.207V546.909H778.975ZM783.952 560V546.909H792.773V549.191H786.72V552.31H792.319V554.592H786.72V557.718H792.798V560H783.952ZM791.558 563.669C790.992 563.669 790.516 563.522 790.133 563.228C789.754 562.938 789.515 562.523 789.417 561.982C789.353 561.632 789.357 561.281 789.43 560.927C789.506 560.573 789.656 560.249 789.877 559.955C790.103 559.661 790.403 559.431 790.778 559.265L792.805 560C792.404 560.188 792.076 560.39 791.82 560.607C791.565 560.825 791.439 561.087 791.443 561.393C791.439 561.598 791.49 561.756 791.597 561.866C791.703 561.977 791.859 562.033 792.063 562.033C792.204 562.033 792.33 562.013 792.44 561.975C792.551 561.941 792.649 561.909 792.734 561.879L793.016 563.286C792.858 563.375 792.656 563.46 792.408 563.541C792.166 563.626 791.882 563.669 791.558 563.669Z" fill="#012F69"/>
<path d="M568.365 645L566.955 642.27H566.855H565.255V645H564.375V638.04H566.735C567.569 638.04 568.189 638.217 568.595 638.57C569.002 638.917 569.205 639.427 569.205 640.1C569.205 640.6 569.095 641.023 568.875 641.37C568.655 641.717 568.332 641.963 567.905 642.11L569.425 645H568.365ZM566.745 641.44C567.265 641.44 567.645 641.34 567.885 641.14C568.132 640.933 568.255 640.587 568.255 640.1C568.255 639.653 568.132 639.34 567.885 639.16C567.645 638.973 567.262 638.88 566.735 638.88H565.255V641.44H566.745ZM575.447 642.68H571.747C571.801 643.193 571.971 643.603 572.257 643.91C572.551 644.21 572.947 644.36 573.447 644.36C573.747 644.36 574.037 644.3 574.317 644.18C574.604 644.053 574.894 643.87 575.187 643.63H575.227V644.51C574.934 644.723 574.644 644.88 574.357 644.98C574.071 645.073 573.764 645.12 573.437 645.12C572.904 645.12 572.441 645.003 572.047 644.77C571.654 644.537 571.351 644.213 571.137 643.8C570.931 643.38 570.827 642.9 570.827 642.36C570.827 641.847 570.921 641.387 571.107 640.98C571.301 640.567 571.574 640.243 571.927 640.01C572.281 639.777 572.694 639.66 573.167 639.66C573.647 639.66 574.057 639.78 574.397 640.02C574.744 640.253 575.004 640.577 575.177 640.99C575.357 641.403 575.447 641.87 575.447 642.39V642.68ZM573.177 640.39C572.764 640.39 572.434 640.54 572.187 640.84C571.941 641.14 571.794 641.527 571.747 642H574.537C574.491 641.513 574.354 641.123 574.127 640.83C573.907 640.537 573.591 640.39 573.177 640.39ZM577.584 638.6C577.397 638.6 577.244 638.54 577.124 638.42C577.01 638.3 576.954 638.147 576.954 637.96C576.954 637.773 577.01 637.62 577.124 637.5C577.244 637.38 577.397 637.32 577.584 637.32C577.77 637.32 577.92 637.38 578.034 637.5C578.154 637.62 578.214 637.773 578.214 637.96C578.214 638.147 578.154 638.3 578.034 638.42C577.92 638.54 577.77 638.6 577.584 638.6ZM576.434 647.44C576.24 647.44 576.087 647.43 575.974 647.41C575.86 647.39 575.737 647.343 575.604 647.27V646.51C575.73 646.577 575.844 646.62 575.944 646.64C576.044 646.66 576.167 646.67 576.314 646.67C576.6 646.67 576.81 646.573 576.944 646.38C577.077 646.193 577.144 645.933 577.144 645.6V639.78H578.024V645.6C578.024 646.18 577.89 646.63 577.624 646.95C577.357 647.277 576.96 647.44 576.434 647.44ZM584.246 642.68H580.546C580.6 643.193 580.77 643.603 581.056 643.91C581.35 644.21 581.746 644.36 582.246 644.36C582.546 644.36 582.836 644.3 583.116 644.18C583.403 644.053 583.693 643.87 583.986 643.63H584.026V644.51C583.733 644.723 583.443 644.88 583.156 644.98C582.87 645.073 582.563 645.12 582.236 645.12C581.703 645.12 581.24 645.003 580.846 644.77C580.453 644.537 580.15 644.213 579.936 643.8C579.73 643.38 579.626 642.9 579.626 642.36C579.626 641.847 579.72 641.387 579.906 640.98C580.1 640.567 580.373 640.243 580.726 640.01C581.08 639.777 581.493 639.66 581.966 639.66C582.446 639.66 582.856 639.78 583.196 640.02C583.543 640.253 583.803 640.577 583.976 640.99C584.156 641.403 584.246 641.87 584.246 642.39V642.68ZM581.976 640.39C581.563 640.39 581.233 640.54 580.986 640.84C580.74 641.14 580.593 641.527 580.546 642H583.336C583.29 641.513 583.153 641.123 582.926 640.83C582.706 640.537 582.39 640.39 581.976 640.39ZM587.322 645.12C587.002 645.12 586.686 645.073 586.372 644.98C586.066 644.88 585.776 644.74 585.502 644.56V643.64C586.109 644.107 586.709 644.34 587.302 644.34C587.649 644.34 587.929 644.27 588.142 644.13C588.356 643.983 588.462 643.79 588.462 643.55C588.462 643.383 588.409 643.247 588.302 643.14C588.202 643.033 588.076 642.95 587.922 642.89C587.769 642.83 587.549 642.757 587.262 642.67C586.909 642.57 586.616 642.473 586.382 642.38C586.156 642.28 585.962 642.137 585.802 641.95C585.642 641.757 585.562 641.507 585.562 641.2C585.562 640.733 585.739 640.36 586.092 640.08C586.446 639.8 586.909 639.66 587.482 639.66C588.056 639.66 588.576 639.81 589.042 640.11V641C588.782 640.8 588.529 640.657 588.282 640.57C588.042 640.483 587.789 640.44 587.522 640.44C587.189 640.44 586.926 640.5 586.732 640.62C586.539 640.74 586.442 640.907 586.442 641.12C586.442 641.273 586.492 641.4 586.592 641.5C586.699 641.6 586.829 641.68 586.982 641.74C587.136 641.8 587.356 641.873 587.642 641.96C588.002 642.067 588.296 642.17 588.522 642.27C588.749 642.363 588.942 642.51 589.102 642.71C589.262 642.903 589.342 643.157 589.342 643.47C589.342 643.79 589.256 644.077 589.082 644.33C588.909 644.577 588.669 644.77 588.362 644.91C588.056 645.05 587.709 645.12 587.322 645.12ZM592.052 639.78H593.492V640.54H592.052V643.53C592.052 643.777 592.106 643.977 592.212 644.13C592.326 644.277 592.489 644.35 592.702 644.35C592.849 644.35 592.979 644.337 593.092 644.31C593.212 644.277 593.346 644.227 593.492 644.16V644.94C593.339 645.013 593.192 645.06 593.052 645.08C592.912 645.107 592.742 645.12 592.542 645.12C592.116 645.12 591.779 644.983 591.532 644.71C591.292 644.437 591.172 644.073 591.172 643.62V640.54H590.172V639.78H591.172V638.38L592.052 637.92V639.78ZM597.546 639.66V640.63H597.396C597.083 640.63 596.8 640.687 596.546 640.8C596.3 640.913 596.093 641.077 595.926 641.29V645H595.046V640.94L594.826 639.78H595.706L595.886 640.71C596.16 640.31 596.39 640.037 596.576 639.89C596.77 639.737 596.99 639.66 597.236 639.66H597.546ZM602.715 645L602.575 644.27C602.269 644.557 601.972 644.77 601.685 644.91C601.405 645.05 601.075 645.12 600.695 645.12C600.222 645.12 599.852 644.963 599.585 644.65C599.325 644.337 599.195 643.92 599.195 643.4V639.78H600.075V643.28C600.075 643.6 600.149 643.857 600.295 644.05C600.442 644.237 600.652 644.33 600.925 644.33C601.239 644.33 601.512 644.273 601.745 644.16C601.985 644.047 602.235 643.877 602.495 643.65V639.78H603.375V643.84L603.595 645H602.715ZM605.982 638.6C605.795 638.6 605.642 638.54 605.522 638.42C605.409 638.3 605.352 638.147 605.352 637.96C605.352 637.773 605.409 637.62 605.522 637.5C605.642 637.38 605.795 637.32 605.982 637.32C606.169 637.32 606.319 637.38 606.432 637.5C606.552 637.62 606.612 637.773 606.612 637.96C606.612 638.147 606.552 638.3 606.432 638.42C606.319 638.54 606.169 638.6 605.982 638.6ZM604.832 647.44C604.639 647.44 604.485 647.43 604.372 647.41C604.259 647.39 604.135 647.343 604.002 647.27V646.51C604.129 646.577 604.242 646.62 604.342 646.64C604.442 646.66 604.565 646.67 604.712 646.67C604.999 646.67 605.209 646.573 605.342 646.38C605.475 646.193 605.542 645.933 605.542 645.6V639.78H606.422V645.6C606.422 646.18 606.289 646.63 606.022 646.95C605.755 647.277 605.359 647.44 604.832 647.44ZM611.785 646.62C611.878 646.62 611.981 646.593 612.095 646.54C612.208 646.493 612.315 646.43 612.415 646.35H612.455V646.98C612.228 647.147 611.975 647.23 611.695 647.23C611.435 647.23 611.211 647.147 611.025 646.98C610.845 646.82 610.755 646.593 610.755 646.3C610.755 646.04 610.828 645.79 610.975 645.55C611.128 645.31 611.325 645.113 611.565 644.96L611.435 644.25C611.175 644.537 610.891 644.753 610.585 644.9C610.285 645.047 609.945 645.12 609.565 645.12C609.091 645.12 608.708 644.987 608.415 644.72C608.121 644.447 607.975 644.087 607.975 643.64C607.975 643.06 608.208 642.633 608.675 642.36C609.141 642.087 609.741 641.95 610.475 641.95C610.741 641.95 611.035 641.967 611.355 642V641.64C611.355 641.28 611.255 640.993 611.055 640.78C610.861 640.56 610.608 640.45 610.295 640.45C609.921 640.45 609.581 640.5 609.275 640.6C608.975 640.7 608.665 640.857 608.345 641.07V640.22C608.658 640.013 608.978 639.87 609.305 639.79C609.631 639.703 610.005 639.66 610.425 639.66C610.958 639.66 611.391 639.83 611.725 640.17C612.065 640.51 612.235 640.96 612.235 641.52V643.84L612.455 645C612.421 645.027 612.298 645.117 612.085 645.27C611.871 645.423 611.711 645.577 611.605 645.73C611.505 645.89 611.455 646.053 611.455 646.22C611.455 646.487 611.565 646.62 611.785 646.62ZM609.745 644.38C610.065 644.38 610.351 644.313 610.605 644.18C610.858 644.047 611.108 643.853 611.355 643.6V642.62H610.435C609.428 642.62 608.925 642.943 608.925 643.59C608.925 643.83 609.001 644.023 609.155 644.17C609.308 644.31 609.505 644.38 609.745 644.38ZM616.125 645.12C615.639 645.12 615.212 645.003 614.845 644.77C614.479 644.537 614.199 644.217 614.005 643.81C613.812 643.397 613.715 642.93 613.715 642.41C613.715 641.883 613.812 641.413 614.005 641C614.199 640.58 614.479 640.253 614.845 640.02C615.212 639.78 615.642 639.66 616.135 639.66C616.482 639.66 616.785 639.697 617.045 639.77C617.305 639.843 617.552 639.977 617.785 640.17V641.02H617.745C617.505 640.82 617.255 640.677 616.995 640.59C616.742 640.503 616.452 640.46 616.125 640.46C615.652 640.46 615.285 640.643 615.025 641.01C614.772 641.377 614.645 641.847 614.645 642.42C614.645 642.973 614.772 643.43 615.025 643.79C615.285 644.143 615.649 644.32 616.115 644.32C616.462 644.32 616.772 644.267 617.045 644.16C617.319 644.047 617.589 643.87 617.855 643.63H617.895V644.48C617.649 644.713 617.382 644.88 617.095 644.98C616.815 645.073 616.492 645.12 616.125 645.12ZM623.729 645.12C623.409 645.12 623.092 645.073 622.779 644.98C622.472 644.88 622.182 644.74 621.909 644.56V643.64C622.515 644.107 623.115 644.34 623.709 644.34C624.055 644.34 624.335 644.27 624.549 644.13C624.762 643.983 624.869 643.79 624.869 643.55C624.869 643.383 624.815 643.247 624.709 643.14C624.609 643.033 624.482 642.95 624.329 642.89C624.175 642.83 623.955 642.757 623.669 642.67C623.315 642.57 623.022 642.473 622.789 642.38C622.562 642.28 622.369 642.137 622.209 641.95C622.049 641.757 621.969 641.507 621.969 641.2C621.969 640.733 622.145 640.36 622.499 640.08C622.852 639.8 623.315 639.66 623.889 639.66C624.462 639.66 624.982 639.81 625.449 640.11V641C625.189 640.8 624.935 640.657 624.689 640.57C624.449 640.483 624.195 640.44 623.929 640.44C623.595 640.44 623.332 640.5 623.139 640.62C622.945 640.74 622.849 640.907 622.849 641.12C622.849 641.273 622.899 641.4 622.999 641.5C623.105 641.6 623.235 641.68 623.389 641.74C623.542 641.8 623.762 641.873 624.049 641.96C624.409 642.067 624.702 642.17 624.929 642.27C625.155 642.363 625.349 642.51 625.509 642.71C625.669 642.903 625.749 643.157 625.749 643.47C625.749 643.79 625.662 644.077 625.489 644.33C625.315 644.577 625.075 644.77 624.769 644.91C624.462 645.05 624.115 645.12 623.729 645.12ZM627.729 638.6C627.542 638.6 627.389 638.54 627.269 638.42C627.155 638.3 627.099 638.147 627.099 637.96C627.099 637.773 627.155 637.62 627.269 637.5C627.389 637.38 627.542 637.32 627.729 637.32C627.915 637.32 628.065 637.38 628.179 637.5C628.299 637.62 628.359 637.773 628.359 637.96C628.359 638.147 628.299 638.3 628.179 638.42C628.065 638.54 627.915 638.6 627.729 638.6ZM628.169 639.78V645H627.289V639.78H628.169ZM634.451 642.68H630.751C630.805 643.193 630.975 643.603 631.261 643.91C631.555 644.21 631.951 644.36 632.451 644.36C632.751 644.36 633.041 644.3 633.321 644.18C633.608 644.053 633.898 643.87 634.191 643.63H634.231V644.51L634.151 644.57C633.865 644.77 633.648 644.93 633.501 645.05C633.361 645.17 633.248 645.303 633.161 645.45C633.075 645.597 633.031 645.77 633.031 645.97C633.031 646.183 633.078 646.347 633.171 646.46C633.271 646.573 633.398 646.63 633.551 646.63C633.751 646.63 633.965 646.54 634.191 646.36H634.231V646.99C634.005 647.157 633.751 647.24 633.471 647.24C633.158 647.24 632.888 647.13 632.661 646.91C632.441 646.697 632.331 646.407 632.331 646.04C632.331 645.707 632.431 645.397 632.631 645.11C632.585 645.117 632.521 645.12 632.441 645.12C631.908 645.12 631.445 645.003 631.051 644.77C630.658 644.537 630.355 644.213 630.141 643.8C629.935 643.38 629.831 642.9 629.831 642.36C629.831 641.847 629.925 641.387 630.111 640.98C630.305 640.567 630.578 640.243 630.931 640.01C631.285 639.777 631.698 639.66 632.171 639.66C632.651 639.66 633.061 639.78 633.401 640.02C633.748 640.253 634.008 640.577 634.181 640.99C634.361 641.403 634.451 641.87 634.451 642.39V642.68ZM632.181 640.39C631.768 640.39 631.438 640.54 631.191 640.84C630.945 641.14 630.798 641.527 630.751 642H633.541C633.495 641.513 633.358 641.123 633.131 640.83C632.911 640.537 632.595 640.39 632.181 640.39ZM639.18 638.04H641.44C643.174 638.04 644.04 638.8 644.04 640.32C644.04 641.087 643.824 641.673 643.39 642.08C642.964 642.48 642.337 642.68 641.51 642.68H640.06V645H639.18V638.04ZM641.48 641.86C642.054 641.86 642.464 641.743 642.71 641.51C642.964 641.277 643.09 640.893 643.09 640.36C643.09 639.827 642.964 639.447 642.71 639.22C642.464 638.993 642.04 638.88 641.44 638.88H640.06V641.86H641.48ZM648.782 645L648.642 644.25C648.382 644.537 648.098 644.753 647.792 644.9C647.492 645.047 647.152 645.12 646.772 645.12C646.298 645.12 645.915 644.987 645.622 644.72C645.328 644.447 645.182 644.087 645.182 643.64C645.182 643.06 645.415 642.633 645.882 642.36C646.348 642.087 646.948 641.95 647.682 641.95C647.948 641.95 648.242 641.967 648.562 642V641.64C648.562 641.28 648.462 640.993 648.262 640.78C648.068 640.56 647.815 640.45 647.502 640.45C647.128 640.45 646.788 640.5 646.482 640.6C646.182 640.7 645.872 640.857 645.552 641.07V640.22C645.865 640.013 646.185 639.87 646.512 639.79C646.838 639.703 647.212 639.66 647.632 639.66C648.165 639.66 648.598 639.83 648.932 640.17C649.272 640.51 649.442 640.96 649.442 641.52V643.84L649.662 645H648.782ZM646.952 644.38C647.272 644.38 647.558 644.313 647.812 644.18C648.065 644.047 648.315 643.853 648.562 643.6V642.62H647.642C646.635 642.62 646.132 642.943 646.132 643.59C646.132 643.83 646.208 644.023 646.362 644.17C646.515 644.31 646.712 644.38 646.952 644.38ZM654.123 639.66C654.616 639.66 654.989 639.813 655.243 640.12C655.496 640.42 655.623 640.84 655.623 641.38V645H654.743V641.5C654.743 641.167 654.673 640.91 654.533 640.73C654.393 640.543 654.179 640.45 653.893 640.45C653.566 640.45 653.289 640.503 653.063 640.61C652.843 640.717 652.596 640.89 652.323 641.13V645H651.443V640.94L651.223 639.78H652.103L652.243 640.51C652.556 640.21 652.846 639.993 653.113 639.86C653.386 639.727 653.723 639.66 654.123 639.66ZM659.369 646.16C658.049 645.093 657.389 643.547 657.389 641.52C657.389 640.58 657.549 639.72 657.869 638.94C658.196 638.153 658.696 637.467 659.369 636.88L659.759 637.36C659.246 637.9 658.879 638.517 658.659 639.21C658.446 639.903 658.339 640.673 658.339 641.52C658.339 642.4 658.442 643.187 658.649 643.88C658.862 644.567 659.236 645.167 659.769 645.68L659.369 646.16ZM661.645 638.6C661.458 638.6 661.305 638.54 661.185 638.42C661.071 638.3 661.015 638.147 661.015 637.96C661.015 637.773 661.071 637.62 661.185 637.5C661.305 637.38 661.458 637.32 661.645 637.32C661.831 637.32 661.981 637.38 662.095 637.5C662.215 637.62 662.275 637.773 662.275 637.96C662.275 638.147 662.215 638.3 662.095 638.42C661.981 638.54 661.831 638.6 661.645 638.6ZM662.085 639.78V645H661.205V639.78H662.085ZM663.527 645.68C664.061 645.167 664.431 644.567 664.637 643.88C664.851 643.187 664.957 642.4 664.957 641.52C664.957 640.673 664.847 639.903 664.627 639.21C664.414 638.517 664.051 637.9 663.537 637.36L663.927 636.88C664.601 637.467 665.097 638.153 665.417 638.94C665.744 639.72 665.907 640.58 665.907 641.52C665.907 643.547 665.247 645.093 663.927 646.16L663.527 645.68ZM672.866 639.66C673.319 639.66 673.706 639.78 674.026 640.02C674.346 640.26 674.586 640.587 674.746 641C674.912 641.413 674.996 641.88 674.996 642.4C674.996 642.92 674.899 643.387 674.706 643.8C674.519 644.207 674.246 644.527 673.886 644.76C673.532 644.993 673.112 645.11 672.626 645.11C672.379 645.11 672.149 645.083 671.936 645.03C671.722 644.977 671.496 644.9 671.256 644.8V647.32H670.376V640.94L670.156 639.78H671.036L671.166 640.45C671.619 639.923 672.186 639.66 672.866 639.66ZM672.536 644.33C673.016 644.33 673.386 644.15 673.646 643.79C673.912 643.43 674.046 642.967 674.046 642.4C674.046 641.833 673.942 641.37 673.736 641.01C673.536 640.65 673.219 640.47 672.786 640.47C672.479 640.47 672.202 640.533 671.956 640.66C671.716 640.787 671.482 640.973 671.256 641.22V644.13C671.689 644.263 672.116 644.33 672.536 644.33ZM679.382 639.66V640.63H679.232C678.919 640.63 678.636 640.687 678.382 640.8C678.136 640.913 677.929 641.077 677.762 641.29V645H676.882V640.94L676.662 639.78H677.542L677.722 640.71C677.996 640.31 678.226 640.037 678.412 639.89C678.606 639.737 678.826 639.66 679.072 639.66H679.382ZM684.771 644.31V645H680.351V644.41L683.431 640.47H680.571V639.78H684.551V640.37L681.481 644.31H684.771ZM690.487 639.78L687.497 647.32H686.597L687.497 645.06L685.427 639.78H686.327L687.957 644.06L689.547 639.78H690.487ZM692.212 638.6C692.026 638.6 691.872 638.54 691.752 638.42C691.639 638.3 691.582 638.147 691.582 637.96C691.582 637.773 691.639 637.62 691.752 637.5C691.872 637.38 692.026 637.32 692.212 637.32C692.399 637.32 692.549 637.38 692.662 637.5C692.782 637.62 692.842 637.773 692.842 637.96C692.842 638.147 692.782 638.3 692.662 638.42C692.549 638.54 692.399 638.6 692.212 638.6ZM691.062 647.44C690.869 647.44 690.716 647.43 690.602 647.41C690.489 647.39 690.366 647.343 690.232 647.27V646.51C690.359 646.577 690.472 646.62 690.572 646.64C690.672 646.66 690.796 646.67 690.942 646.67C691.229 646.67 691.439 646.573 691.572 646.38C691.706 646.193 691.772 645.933 691.772 645.6V639.78H692.652V645.6C692.652 646.18 692.519 646.63 692.252 646.95C691.986 647.277 691.589 647.44 691.062 647.44ZM700.345 639.66C700.839 639.66 701.212 639.813 701.465 640.12C701.719 640.42 701.845 640.84 701.845 641.38V645H700.965V641.5C700.965 641.167 700.895 640.91 700.755 640.73C700.615 640.543 700.402 640.45 700.115 640.45C699.822 640.45 699.575 640.503 699.375 640.61C699.175 640.717 698.945 640.89 698.685 641.13C698.692 641.183 698.695 641.267 698.695 641.38V645H697.815V641.5C697.815 641.167 697.745 640.91 697.605 640.73C697.465 640.543 697.252 640.45 696.965 640.45C696.672 640.45 696.425 640.503 696.225 640.61C696.025 640.71 695.799 640.88 695.545 641.12V645H694.665V640.94L694.445 639.78H695.325L695.465 640.5C695.765 640.2 696.035 639.987 696.275 639.86C696.522 639.727 696.829 639.66 697.195 639.66C697.542 639.66 697.829 639.737 698.055 639.89C698.289 640.043 698.459 640.263 698.565 640.55C698.885 640.23 699.169 640.003 699.415 639.87C699.662 639.73 699.972 639.66 700.345 639.66ZM707.549 645L707.409 644.27C707.103 644.557 706.806 644.77 706.519 644.91C706.239 645.05 705.909 645.12 705.529 645.12C705.056 645.12 704.686 644.963 704.419 644.65C704.159 644.337 704.029 643.92 704.029 643.4V639.78H704.909V643.28C704.909 643.6 704.983 643.857 705.129 644.05C705.276 644.237 705.486 644.33 705.759 644.33C706.073 644.33 706.346 644.273 706.579 644.16C706.819 644.047 707.069 643.877 707.329 643.65V639.78H708.209V643.84L708.429 645H707.549ZM710.816 638.6C710.629 638.6 710.476 638.54 710.356 638.42C710.243 638.3 710.186 638.147 710.186 637.96C710.186 637.773 710.243 637.62 710.356 637.5C710.476 637.38 710.629 637.32 710.816 637.32C711.003 637.32 711.153 637.38 711.266 637.5C711.386 637.62 711.446 637.773 711.446 637.96C711.446 638.147 711.386 638.3 711.266 638.42C711.153 638.54 711.003 638.6 710.816 638.6ZM709.666 647.44C709.473 647.44 709.319 647.43 709.206 647.41C709.093 647.39 708.969 647.343 708.836 647.27V646.51C708.963 646.577 709.076 646.62 709.176 646.64C709.276 646.66 709.399 646.67 709.546 646.67C709.833 646.67 710.043 646.573 710.176 646.38C710.309 646.193 710.376 645.933 710.376 645.6V639.78H711.256V645.6C711.256 646.18 711.123 646.63 710.856 646.95C710.589 647.277 710.193 647.44 709.666 647.44ZM717.479 642.68H713.779C713.832 643.193 714.002 643.603 714.289 643.91C714.582 644.21 714.979 644.36 715.479 644.36C715.779 644.36 716.069 644.3 716.349 644.18C716.635 644.053 716.925 643.87 717.219 643.63H717.259V644.51C716.965 644.723 716.675 644.88 716.389 644.98C716.102 645.073 715.795 645.12 715.469 645.12C714.935 645.12 714.472 645.003 714.079 644.77C713.685 644.537 713.382 644.213 713.169 643.8C712.962 643.38 712.859 642.9 712.859 642.36C712.859 641.847 712.952 641.387 713.139 640.98C713.332 640.567 713.605 640.243 713.959 640.01C714.312 639.777 714.725 639.66 715.199 639.66C715.679 639.66 716.089 639.78 716.429 640.02C716.775 640.253 717.035 640.577 717.209 640.99C717.389 641.403 717.479 641.87 717.479 642.39V642.68ZM715.209 640.39C714.795 640.39 714.465 640.54 714.219 640.84C713.972 641.14 713.825 641.527 713.779 642H716.569C716.522 641.513 716.385 641.123 716.159 640.83C715.939 640.537 715.622 640.39 715.209 640.39Z" fill="white"/>
<path d="M732.93 638.04L730.8 645H729.5L727.94 639.74L726.38 645H725.08L722.95 638.04H724.11L725.76 643.62L727.38 638.04H728.55L730.17 643.62L731.82 638.04H732.93ZM737.005 645L736.875 644.31C736.375 644.85 735.775 645.12 735.075 645.12C734.582 645.12 734.179 644.987 733.865 644.72C733.552 644.447 733.395 644.087 733.395 643.64C733.395 643.06 733.622 642.623 734.075 642.33C734.529 642.03 735.139 641.88 735.905 641.88C736.219 641.88 736.512 641.893 736.785 641.92V641.64C736.785 641.307 736.692 641.05 736.505 640.87C736.325 640.69 736.069 640.6 735.735 640.6C735.369 640.6 735.032 640.653 734.725 640.76C734.425 640.867 734.109 641.037 733.775 641.27V640.27C734.082 640.05 734.399 639.893 734.725 639.8C735.059 639.707 735.432 639.66 735.845 639.66C736.472 639.66 736.965 639.827 737.325 640.16C737.685 640.487 737.865 640.94 737.865 641.52V643.84L738.085 645H737.005ZM735.265 644.26C735.552 644.26 735.815 644.2 736.055 644.08C736.302 643.953 736.545 643.77 736.785 643.53V642.68H735.845C735.425 642.68 735.099 642.747 734.865 642.88C734.632 643.013 734.515 643.24 734.515 643.56C734.515 643.78 734.582 643.953 734.715 644.08C734.849 644.2 735.032 644.26 735.265 644.26ZM742.276 639.66V640.78H742.116C741.543 640.78 741.083 640.96 740.736 641.32V645H739.656V640.94L739.436 639.78H740.516L740.676 640.6C740.923 640.247 741.14 640.003 741.326 639.87C741.513 639.73 741.723 639.66 741.956 639.66H742.276ZM747.375 645L747.215 644.3C746.889 644.593 746.589 644.803 746.315 644.93C746.049 645.057 745.739 645.12 745.385 645.12C744.905 645.12 744.522 644.963 744.235 644.65C743.949 644.33 743.805 643.917 743.805 643.41V639.78H744.885V643.01C744.885 643.37 744.955 643.653 745.095 643.86C745.235 644.06 745.439 644.16 745.705 644.16C745.965 644.16 746.202 644.107 746.415 644C746.635 643.893 746.865 643.73 747.105 643.51V639.78H748.185V643.84L748.405 645H747.375ZM753.002 639.66C753.509 639.66 753.905 639.813 754.192 640.12C754.479 640.427 754.622 640.843 754.622 641.37V645H753.542V641.77C753.542 641.383 753.472 641.097 753.332 640.91C753.192 640.717 752.975 640.62 752.682 640.62C752.422 640.62 752.185 640.673 751.972 640.78C751.765 640.88 751.549 641.04 751.322 641.26V645H750.242V640.94L750.022 639.78H751.052L751.212 640.48C751.519 640.187 751.805 639.977 752.072 639.85C752.339 639.723 752.649 639.66 753.002 639.66ZM758.428 642.67L757.718 643.47V645H756.638V637.46H757.718V642.13L759.788 639.78H761.038L759.128 641.9L761.158 645H759.878L758.428 642.67ZM762.829 638.78C762.629 638.78 762.459 638.713 762.319 638.58C762.179 638.44 762.109 638.267 762.109 638.06C762.109 637.847 762.179 637.673 762.319 637.54C762.459 637.4 762.629 637.33 762.829 637.33C763.029 637.33 763.199 637.4 763.339 637.54C763.479 637.673 763.549 637.847 763.549 638.06C763.549 638.267 763.479 638.44 763.339 638.58C763.199 638.713 763.029 638.78 762.829 638.78ZM763.369 639.78V645H762.289V639.78H763.369ZM768.435 638.78C768.235 638.78 768.065 638.713 767.925 638.58C767.785 638.44 767.715 638.267 767.715 638.06C767.715 637.847 767.785 637.673 767.925 637.54C768.065 637.4 768.235 637.33 768.435 637.33C768.635 637.33 768.805 637.4 768.945 637.54C769.085 637.673 769.155 637.847 769.155 638.06C769.155 638.267 769.085 638.44 768.945 638.58C768.805 638.713 768.635 638.78 768.435 638.78ZM768.975 639.78V645H767.895V639.78H768.975ZM776.29 639.66C776.717 639.66 777.087 639.777 777.4 640.01C777.713 640.243 777.953 640.567 778.12 640.98C778.287 641.387 778.37 641.85 778.37 642.37C778.37 642.89 778.27 643.36 778.07 643.78C777.877 644.193 777.603 644.52 777.25 644.76C776.897 644.993 776.487 645.11 776.02 645.11C775.547 645.11 775.083 645.007 774.63 644.8V647.32H773.55V640.94L773.33 639.78H774.36L774.52 640.48C774.753 640.213 775.02 640.01 775.32 639.87C775.62 639.73 775.943 639.66 776.29 639.66ZM775.85 644.19C776.297 644.19 776.637 644.03 776.87 643.71C777.103 643.383 777.22 642.94 777.22 642.38C777.22 641.84 777.127 641.41 776.94 641.09C776.76 640.763 776.483 640.6 776.11 640.6C775.583 640.6 775.09 640.84 774.63 641.32V644.01C775.043 644.13 775.45 644.19 775.85 644.19ZM782.237 645.12C781.723 645.12 781.277 645.007 780.897 644.78C780.517 644.553 780.223 644.237 780.017 643.83C779.817 643.417 779.717 642.937 779.717 642.39C779.717 641.843 779.817 641.367 780.017 640.96C780.223 640.547 780.517 640.227 780.897 640C781.277 639.773 781.723 639.66 782.237 639.66C782.75 639.66 783.197 639.773 783.577 640C783.957 640.227 784.247 640.547 784.447 640.96C784.653 641.367 784.757 641.843 784.757 642.39C784.757 642.937 784.653 643.417 784.447 643.83C784.247 644.237 783.957 644.553 783.577 644.78C783.197 645.007 782.75 645.12 782.237 645.12ZM782.237 644.21C782.683 644.21 783.023 644.05 783.257 643.73C783.49 643.403 783.607 642.957 783.607 642.39C783.607 641.823 783.49 641.38 783.257 641.06C783.023 640.733 782.683 640.57 782.237 640.57C781.79 640.57 781.45 640.733 781.217 641.06C780.99 641.38 780.877 641.823 780.877 642.39C780.877 642.957 780.99 643.403 781.217 643.73C781.45 644.05 781.79 644.21 782.237 644.21ZM786.293 637.46H787.373V645H786.293V637.46ZM789.636 638.78C789.436 638.78 789.266 638.713 789.126 638.58C788.986 638.44 788.916 638.267 788.916 638.06C788.916 637.847 788.986 637.673 789.126 637.54C789.266 637.4 789.436 637.33 789.636 637.33C789.836 637.33 790.006 637.4 790.146 637.54C790.286 637.673 790.356 637.847 790.356 638.06C790.356 638.267 790.286 638.44 790.146 638.58C790.006 638.713 789.836 638.78 789.636 638.78ZM790.176 639.78V645H789.096V639.78H790.176ZM793.269 639.78H794.599V640.64H793.269V643.42C793.269 643.667 793.319 643.86 793.419 644C793.525 644.14 793.682 644.21 793.889 644.21C794.102 644.21 794.342 644.147 794.609 644.02V644.94C794.329 645.06 794.012 645.12 793.659 645.12C793.185 645.12 792.822 644.977 792.569 644.69C792.315 644.403 792.189 643.997 792.189 643.47V640.64H791.299V639.78H792.189V638.38L793.269 637.92V639.78ZM800.472 639.78L797.482 647.32H796.422L797.302 645.11L795.212 639.78H796.312L797.862 643.85L799.362 639.78H800.472ZM803.438 642.67L802.728 643.47V645H801.648V637.46H802.728V642.13L804.798 639.78H806.048L804.138 641.9L806.168 645H804.888L803.438 642.67ZM811.644 642.73H807.974C808.027 643.19 808.187 643.553 808.454 643.82C808.727 644.08 809.094 644.21 809.554 644.21C809.854 644.21 810.16 644.153 810.474 644.04C810.787 643.92 811.09 643.75 811.384 643.53H811.424V644.5C811.404 644.513 811.31 644.577 811.144 644.69C810.844 644.903 810.614 645.103 810.454 645.29C810.3 645.477 810.224 645.677 810.224 645.89C810.224 646.063 810.27 646.207 810.364 646.32C810.464 646.433 810.594 646.49 810.754 646.49C810.94 646.49 811.15 646.403 811.384 646.23H811.424V646.98C811.157 647.147 810.89 647.23 810.624 647.23C810.41 647.23 810.207 647.18 810.014 647.08C809.82 646.987 809.66 646.847 809.534 646.66C809.414 646.48 809.354 646.263 809.354 646.01C809.354 645.697 809.45 645.4 809.644 645.12H809.544C809.004 645.12 808.534 645.007 808.134 644.78C807.734 644.553 807.427 644.233 807.214 643.82C807 643.4 806.894 642.917 806.894 642.37C806.894 641.843 806.99 641.377 807.184 640.97C807.384 640.557 807.667 640.237 808.034 640.01C808.4 639.777 808.827 639.66 809.314 639.66C809.794 639.66 810.207 639.777 810.554 640.01C810.907 640.237 811.177 640.557 811.364 640.97C811.55 641.383 811.644 641.857 811.644 642.39V642.73ZM809.314 640.54C808.947 640.54 808.647 640.67 808.414 640.93C808.18 641.183 808.037 641.523 807.984 641.95H810.534C810.48 641.51 810.35 641.167 810.144 640.92C809.944 640.667 809.667 640.54 809.314 640.54ZM818.692 639.66C819.119 639.66 819.489 639.777 819.802 640.01C820.116 640.243 820.356 640.567 820.522 640.98C820.689 641.387 820.772 641.85 820.772 642.37C820.772 642.89 820.672 643.36 820.472 643.78C820.279 644.193 820.006 644.52 819.652 644.76C819.299 644.993 818.889 645.11 818.422 645.11C817.949 645.11 817.486 645.007 817.032 644.8V647.32H815.952V640.94L815.732 639.78H816.762L816.922 640.48C817.156 640.213 817.422 640.01 817.722 639.87C818.022 639.73 818.346 639.66 818.692 639.66ZM818.252 644.19C818.699 644.19 819.039 644.03 819.272 643.71C819.506 643.383 819.622 642.94 819.622 642.38C819.622 641.84 819.529 641.41 819.342 641.09C819.162 640.763 818.886 640.6 818.512 640.6C817.986 640.6 817.492 640.84 817.032 641.32V644.01C817.446 644.13 817.852 644.19 818.252 644.19ZM825.079 639.66V640.78H824.919C824.346 640.78 823.886 640.96 823.539 641.32V645H822.459V640.94L822.239 639.78H823.319L823.479 640.6C823.726 640.247 823.942 640.003 824.129 639.87C824.316 639.73 824.526 639.66 824.759 639.66H825.079ZM831.068 639.78L828.078 647.32H827.018L827.898 645.11L825.808 639.78H826.908L828.458 643.85L829.958 639.78H831.068ZM839.614 639.78L837.994 645H836.654L835.524 641.21L834.414 645H833.074L831.454 639.78H832.554L833.794 643.93L834.994 639.78H836.094L837.314 643.94L838.554 639.78H839.614ZM844.007 645L843.877 644.31C843.377 644.85 842.777 645.12 842.077 645.12C841.584 645.12 841.181 644.987 840.867 644.72C840.554 644.447 840.397 644.087 840.397 643.64C840.397 643.06 840.624 642.623 841.077 642.33C841.531 642.03 842.141 641.88 842.907 641.88C843.221 641.88 843.514 641.893 843.787 641.92V641.64C843.787 641.307 843.694 641.05 843.507 640.87C843.327 640.69 843.071 640.6 842.737 640.6C842.371 640.6 842.034 640.653 841.727 640.76C841.427 640.867 841.111 641.037 840.777 641.27V640.27C841.084 640.05 841.401 639.893 841.727 639.8C842.061 639.707 842.434 639.66 842.847 639.66C843.474 639.66 843.967 639.827 844.327 640.16C844.687 640.487 844.867 640.94 844.867 641.52V643.84L845.087 645H844.007ZM842.267 644.26C842.554 644.26 842.817 644.2 843.057 644.08C843.304 643.953 843.547 643.77 843.787 643.53V642.68H842.847C842.427 642.68 842.101 642.747 841.867 642.88C841.634 643.013 841.517 643.24 841.517 643.56C841.517 643.78 841.584 643.953 841.717 644.08C841.851 644.2 842.034 644.26 842.267 644.26ZM847.868 639.78H849.198V640.64H847.868V643.42C847.868 643.667 847.918 643.86 848.018 644C848.125 644.14 848.282 644.21 848.488 644.21C848.702 644.21 848.942 644.147 849.208 644.02V644.94C848.928 645.06 848.612 645.12 848.258 645.12C847.785 645.12 847.422 644.977 847.168 644.69C846.915 644.403 846.788 643.997 846.788 643.47V640.64H845.898V639.78H846.788V638.38L847.868 637.92V639.78ZM853.412 639.66C853.919 639.66 854.315 639.813 854.602 640.12C854.889 640.427 855.032 640.843 855.032 641.37V645H853.952V641.77C853.952 641.383 853.882 641.097 853.742 640.91C853.602 640.717 853.385 640.62 853.092 640.62C852.832 640.62 852.595 640.673 852.382 640.78C852.175 640.88 851.959 641.04 851.732 641.26V645H850.652V640.94L850.432 639.78H851.462L851.622 640.48C851.929 640.187 852.215 639.977 852.482 639.85C852.749 639.723 853.059 639.66 853.412 639.66ZM859.239 645.12C858.725 645.12 858.279 645.007 857.899 644.78C857.519 644.553 857.225 644.237 857.019 643.83C856.819 643.417 856.719 642.937 856.719 642.39C856.719 641.843 856.819 641.367 857.019 640.96C857.225 640.547 857.519 640.227 857.899 640C858.279 639.773 858.725 639.66 859.239 639.66C859.752 639.66 860.199 639.773 860.579 640C860.959 640.227 861.249 640.547 861.449 640.96C861.655 641.367 861.759 641.843 861.759 642.39C861.759 642.937 861.655 643.417 861.449 643.83C861.249 644.237 860.959 644.553 860.579 644.78C860.199 645.007 859.752 645.12 859.239 645.12ZM859.239 644.21C859.685 644.21 860.025 644.05 860.259 643.73C860.492 643.403 860.609 642.957 860.609 642.39C860.609 641.823 860.492 641.38 860.259 641.06C860.025 640.733 859.685 640.57 859.239 640.57C858.792 640.57 858.452 640.733 858.219 641.06C857.992 641.38 857.879 641.823 857.879 642.39C857.879 642.957 857.992 643.403 858.219 643.73C858.452 644.05 858.792 644.21 859.239 644.21ZM864.835 645.12C864.508 645.12 864.182 645.073 863.855 644.98C863.535 644.88 863.235 644.74 862.955 644.56V643.49C863.268 643.73 863.568 643.907 863.855 644.02C864.148 644.133 864.455 644.19 864.775 644.19C865.115 644.19 865.382 644.13 865.575 644.01C865.768 643.89 865.865 643.727 865.865 643.52C865.865 643.307 865.775 643.15 865.595 643.05C865.422 642.95 865.145 642.85 864.765 642.75C864.398 642.657 864.098 642.56 863.865 642.46C863.638 642.36 863.442 642.21 863.275 642.01C863.108 641.81 863.025 641.54 863.025 641.2C863.025 640.733 863.208 640.36 863.575 640.08C863.948 639.8 864.438 639.66 865.045 639.66C865.632 639.66 866.168 639.81 866.655 640.11V641.15C866.388 640.95 866.132 640.807 865.885 640.72C865.645 640.633 865.385 640.59 865.105 640.59C864.785 640.59 864.535 640.64 864.355 640.74C864.175 640.84 864.085 640.983 864.085 641.17C864.085 641.357 864.168 641.497 864.335 641.59C864.502 641.677 864.772 641.77 865.145 641.87C865.518 641.97 865.822 642.07 866.055 642.17C866.288 642.263 866.488 642.417 866.655 642.63C866.828 642.843 866.915 643.127 866.915 643.48C866.915 643.8 866.825 644.083 866.645 644.33C866.472 644.577 866.225 644.77 865.905 644.91C865.592 645.05 865.235 645.12 864.835 645.12ZM865.605 637.18H866.855L865.495 638.93H864.515L865.605 637.18ZM870.565 645.12C870.045 645.12 869.592 645.007 869.205 644.78C868.825 644.553 868.532 644.237 868.325 643.83C868.118 643.417 868.015 642.943 868.015 642.41C868.015 641.87 868.118 641.393 868.325 640.98C868.538 640.567 868.835 640.243 869.215 640.01C869.602 639.777 870.052 639.66 870.565 639.66C871.225 639.66 871.755 639.81 872.155 640.11V641.1H872.115C871.675 640.773 871.165 640.61 870.585 640.61C870.118 640.61 869.762 640.773 869.515 641.1C869.268 641.427 869.145 641.867 869.145 642.42C869.145 642.96 869.265 643.387 869.505 643.7C869.752 644.013 870.108 644.17 870.575 644.17C871.155 644.17 871.688 643.977 872.175 643.59H872.215V644.59C871.788 644.943 871.238 645.12 870.565 645.12ZM874.235 638.78C874.035 638.78 873.865 638.713 873.725 638.58C873.585 638.44 873.515 638.267 873.515 638.06C873.515 637.847 873.585 637.673 873.725 637.54C873.865 637.4 874.035 637.33 874.235 637.33C874.435 637.33 874.605 637.4 874.745 637.54C874.885 637.673 874.955 637.847 874.955 638.06C874.955 638.267 874.885 638.44 874.745 638.58C874.605 638.713 874.435 638.78 874.235 638.78ZM874.775 639.78V645H873.695V639.78H874.775Z" fill="white"/>
<path d="M722.64 646H875.635V646.5H722.64V646Z" fill="white"/>
<path d="M634.932 613V611.688L640.898 603.131H634.898V601.364H643.511V602.676L637.551 611.233H643.545V613H634.932ZM649.78 613H647.53L651.626 601.364H654.228L658.331 613H656.081L652.973 603.75H652.882L649.78 613ZM649.853 608.438H655.99V610.131H649.853V608.438ZM662.563 613V601.364H666.927C667.821 601.364 668.571 601.519 669.177 601.83C669.787 602.14 670.247 602.576 670.558 603.136C670.872 603.693 671.029 604.343 671.029 605.085C671.029 605.831 670.87 606.479 670.552 607.028C670.238 607.574 669.774 607.996 669.16 608.295C668.546 608.591 667.793 608.739 666.899 608.739H663.791V606.989H666.614C667.137 606.989 667.565 606.917 667.899 606.773C668.232 606.625 668.478 606.411 668.637 606.131C668.8 605.847 668.882 605.498 668.882 605.085C668.882 604.672 668.8 604.32 668.637 604.028C668.474 603.733 668.226 603.509 667.893 603.358C667.56 603.203 667.13 603.125 666.603 603.125H664.671V613H662.563ZM668.575 607.727L671.455 613H669.103L666.274 607.727H668.575ZM675.67 613V601.364H683.238V603.131H677.778V606.29H682.846V608.057H677.778V611.233H683.283V613H675.67ZM692.679 601.364H694.77V609.545C694.766 610.295 694.607 610.941 694.293 611.483C693.979 612.021 693.539 612.436 692.975 612.727C692.414 613.015 691.761 613.159 691.014 613.159C690.333 613.159 689.719 613.038 689.174 612.795C688.632 612.549 688.202 612.186 687.884 611.705C687.566 611.223 687.407 610.625 687.407 609.909H689.503C689.507 610.223 689.575 610.494 689.708 610.722C689.844 610.949 690.032 611.123 690.27 611.244C690.509 611.366 690.783 611.426 691.094 611.426C691.431 611.426 691.717 611.356 691.952 611.216C692.187 611.072 692.365 610.86 692.486 610.58C692.611 610.299 692.675 609.955 692.679 609.545V601.364ZM699.757 613V601.364H707.325V603.131H701.865V606.29H706.933V608.057H701.865V611.233H707.371V613H699.757ZM718.5 604.562C718.447 604.066 718.223 603.68 717.829 603.403C717.439 603.127 716.932 602.989 716.307 602.989C715.867 602.989 715.49 603.055 715.176 603.188C714.861 603.32 714.621 603.5 714.454 603.727C714.288 603.955 714.202 604.214 714.199 604.506C714.199 604.748 714.254 604.958 714.363 605.136C714.477 605.314 714.63 605.466 714.824 605.591C715.017 605.712 715.231 605.814 715.466 605.898C715.7 605.981 715.937 606.051 716.176 606.108L717.267 606.381C717.706 606.483 718.129 606.621 718.534 606.795C718.943 606.97 719.308 607.189 719.63 607.455C719.956 607.72 720.214 608.04 720.403 608.415C720.593 608.79 720.687 609.229 720.687 609.733C720.687 610.415 720.513 611.015 720.164 611.534C719.816 612.049 719.312 612.453 718.653 612.744C717.998 613.032 717.204 613.176 716.272 613.176C715.367 613.176 714.581 613.036 713.914 612.756C713.252 612.475 712.733 612.066 712.358 611.528C711.986 610.991 711.786 610.335 711.755 609.562H713.829C713.86 609.968 713.985 610.305 714.204 610.574C714.424 610.843 714.71 611.044 715.062 611.176C715.418 611.309 715.816 611.375 716.255 611.375C716.714 611.375 717.115 611.307 717.46 611.17C717.808 611.03 718.081 610.837 718.278 610.591C718.475 610.341 718.575 610.049 718.579 609.716C718.575 609.413 718.486 609.163 718.312 608.966C718.138 608.765 717.894 608.598 717.579 608.466C717.269 608.33 716.905 608.208 716.488 608.102L715.164 607.761C714.206 607.515 713.449 607.142 712.892 606.642C712.339 606.138 712.062 605.47 712.062 604.636C712.062 603.951 712.248 603.35 712.619 602.835C712.994 602.32 713.504 601.92 714.147 601.636C714.791 601.348 715.521 601.205 716.335 601.205C717.161 601.205 717.884 601.348 718.505 601.636C719.13 601.92 719.621 602.316 719.977 602.824C720.333 603.328 720.517 603.907 720.528 604.562H718.5ZM724.755 603.131V601.364H734.039V603.131H730.443V613H728.352V603.131H724.755ZM738.529 613V601.364H742.893C743.787 601.364 744.537 601.519 745.143 601.83C745.752 602.14 746.213 602.576 746.523 603.136C746.838 603.693 746.995 604.343 746.995 605.085C746.995 605.831 746.836 606.479 746.518 607.028C746.203 607.574 745.739 607.996 745.126 608.295C744.512 608.591 743.758 608.739 742.864 608.739H739.756V606.989H742.58C743.103 606.989 743.531 606.917 743.864 606.773C744.198 606.625 744.444 606.411 744.603 606.131C744.766 605.847 744.847 605.498 744.847 605.085C744.847 604.672 744.766 604.32 744.603 604.028C744.44 603.733 744.192 603.509 743.859 603.358C743.525 603.203 743.095 603.125 742.569 603.125H740.637V613H738.529ZM744.54 607.727L747.421 613H745.069L742.239 607.727H744.54ZM758.97 601.364H761.078V608.966C761.078 609.799 760.881 610.532 760.488 611.165C760.097 611.797 759.548 612.292 758.84 612.648C758.131 613 757.304 613.176 756.357 613.176C755.406 613.176 754.577 613 753.868 612.648C753.16 612.292 752.611 611.797 752.22 611.165C751.83 610.532 751.635 609.799 751.635 608.966V601.364H753.743V608.79C753.743 609.275 753.849 609.706 754.061 610.085C754.277 610.464 754.58 610.761 754.97 610.977C755.361 611.189 755.823 611.295 756.357 611.295C756.891 611.295 757.353 611.189 757.743 610.977C758.137 610.761 758.44 610.464 758.652 610.085C758.864 609.706 758.97 609.275 758.97 608.79V601.364ZM770.661 601.364H772.751V609.545C772.748 610.295 772.589 610.941 772.274 611.483C771.96 612.021 771.52 612.436 770.956 612.727C770.395 613.015 769.742 613.159 768.996 613.159C768.314 613.159 767.7 613.038 767.155 612.795C766.613 612.549 766.183 612.186 765.865 611.705C765.547 611.223 765.388 610.625 765.388 609.909H767.484C767.488 610.223 767.556 610.494 767.689 610.722C767.825 610.949 768.013 611.123 768.251 611.244C768.49 611.366 768.765 611.426 769.075 611.426C769.412 611.426 769.698 611.356 769.933 611.216C770.168 611.072 770.346 610.86 770.467 610.58C770.592 610.299 770.657 609.955 770.661 609.545V601.364ZM790.731 604.562C790.678 604.066 790.454 603.68 790.061 603.403C789.67 603.127 789.163 602.989 788.538 602.989C788.098 602.989 787.721 603.055 787.407 603.188C787.093 603.32 786.852 603.5 786.686 603.727C786.519 603.955 786.434 604.214 786.43 604.506C786.43 604.748 786.485 604.958 786.595 605.136C786.708 605.314 786.862 605.466 787.055 605.591C787.248 605.712 787.462 605.814 787.697 605.898C787.932 605.981 788.168 606.051 788.407 606.108L789.498 606.381C789.937 606.483 790.36 606.621 790.765 606.795C791.174 606.97 791.54 607.189 791.862 607.455C792.187 607.72 792.445 608.04 792.634 608.415C792.824 608.79 792.918 609.229 792.918 609.733C792.918 610.415 792.744 611.015 792.396 611.534C792.047 612.049 791.543 612.453 790.884 612.744C790.229 613.032 789.436 613.176 788.504 613.176C787.598 613.176 786.812 613.036 786.146 612.756C785.483 612.475 784.964 612.066 784.589 611.528C784.218 610.991 784.017 610.335 783.987 609.562H786.061C786.091 609.968 786.216 610.305 786.436 610.574C786.655 610.843 786.941 611.044 787.293 611.176C787.65 611.309 788.047 611.375 788.487 611.375C788.945 611.375 789.346 611.307 789.691 611.17C790.04 611.03 790.312 610.837 790.509 610.591C790.706 610.341 790.807 610.049 790.811 609.716C790.807 609.413 790.718 609.163 790.543 608.966C790.369 608.765 790.125 608.598 789.811 608.466C789.5 608.33 789.136 608.208 788.72 608.102L787.396 607.761C786.437 607.515 785.68 607.142 785.123 606.642C784.57 606.138 784.293 605.47 784.293 604.636C784.293 603.951 784.479 603.35 784.85 602.835C785.225 602.32 785.735 601.92 786.379 601.636C787.023 601.348 787.752 601.205 788.566 601.205C789.392 601.205 790.115 601.348 790.737 601.636C791.362 601.92 791.852 602.316 792.208 602.824C792.564 603.328 792.748 603.907 792.759 604.562H790.731ZM799.606 601.364V613H797.498V601.364H799.606ZM804.588 613V601.364H812.157V603.131H806.696V606.29H811.764V608.057H806.696V611.233H812.202V613H804.588ZM811.1 616.307C810.611 616.307 810.202 616.178 809.872 615.92C809.547 615.663 809.355 615.292 809.299 614.807C809.257 614.511 809.282 614.212 809.372 613.909C809.463 613.606 809.626 613.324 809.861 613.062C810.096 612.801 810.407 612.581 810.793 612.403L812.196 613C811.844 613.197 811.549 613.405 811.31 613.625C811.071 613.845 810.952 614.102 810.952 614.398C810.952 614.58 810.996 614.72 811.083 614.818C811.174 614.917 811.318 614.966 811.514 614.966C811.658 614.966 811.783 614.947 811.889 614.909C811.999 614.871 812.092 614.837 812.168 614.807L812.372 615.966C812.236 616.045 812.062 616.121 811.85 616.193C811.638 616.269 811.388 616.307 811.1 616.307Z" fill="white"/>
<path d="M634 616.182H813.162V617.273H634V616.182Z" fill="white"/>
<g filter="url(#filter0_d_227_47)">
<rect x="541" y="665" width="50" height="50" rx="10" fill="#475994" shape-rendering="crispEdges"/>
<g clip-path="url(#clip2_227_47)">
<path d="M570.988 680.134V683.08H569.236C567.863 683.08 567.607 683.739 567.607 684.687V686.796H570.877L570.442 690.1H567.607V698.571H564.192V690.1H561.346V686.796H564.192V684.364C564.192 681.54 565.922 680 568.444 680C569.649 680 570.687 680.089 570.988 680.134Z" fill="white"/>
</g>
</g>
<g filter="url(#filter1_d_227_47)">
<rect x="603" y="665" width="50" height="50" rx="10" fill="#111111" shape-rendering="crispEdges"/>
<g clip-path="url(#clip3_227_47)">
<path fill-rule="evenodd" clip-rule="evenodd" d="M628 680.249C625.624 680.246 623.324 681.09 621.513 682.629C619.703 684.168 618.499 686.302 618.119 688.648C617.738 690.993 618.206 693.398 619.437 695.43C620.668 697.463 622.583 698.99 624.838 699.739C625.342 699.831 625.52 699.518 625.52 699.254V697.554C622.727 698.161 622.137 696.209 622.137 696.209C621.952 695.604 621.558 695.085 621.026 694.742C620.124 694.128 621.1 694.128 621.1 694.128C621.416 694.173 621.718 694.289 621.983 694.468C622.248 694.646 622.469 694.883 622.629 695.16C622.764 695.406 622.947 695.623 623.167 695.798C623.387 695.974 623.64 696.104 623.91 696.181C624.18 696.259 624.463 696.282 624.743 696.25C625.022 696.218 625.293 696.131 625.538 695.995C625.577 695.49 625.795 695.015 626.152 694.656C623.93 694.405 621.597 693.545 621.597 689.745C621.582 688.753 621.949 687.792 622.622 687.063C622.322 686.2 622.358 685.255 622.721 684.417C622.721 684.417 623.562 684.147 625.471 685.442C627.11 684.992 628.841 684.992 630.48 685.442C632.389 684.147 633.224 684.417 633.224 684.417C633.592 685.246 633.636 686.184 633.347 687.044C634.02 687.774 634.387 688.734 634.372 689.727C634.372 693.57 632.033 694.411 629.805 694.638C630.044 694.878 630.228 695.167 630.346 695.485C630.463 695.802 630.511 696.142 630.486 696.479V699.223C630.486 699.549 630.664 699.801 631.174 699.702C633.403 698.934 635.289 697.402 636.499 695.377C637.709 693.353 638.164 690.966 637.784 688.638C637.404 686.311 636.214 684.192 634.424 682.657C632.634 681.122 630.358 680.269 628 680.249Z" fill="white"/>
</g>
</g>
<g filter="url(#filter2_d_227_47)">
<rect x="665" y="665" width="50" height="50" rx="10" fill="#DD4B39" shape-rendering="crispEdges"/>
<path d="M690.173 688.772H698.264C698.343 689.208 698.399 689.631 698.399 690.201C698.399 695.089 695.117 698.571 690.173 698.571C685.43 698.571 681.602 694.743 681.602 690C681.602 685.257 685.43 681.429 690.173 681.429C692.483 681.429 694.425 682.277 695.921 683.671L693.587 685.916C692.952 685.301 691.835 684.587 690.172 684.587C687.248 684.587 684.859 687.009 684.859 690.001C684.859 692.992 687.249 695.413 690.173 695.413C693.566 695.413 694.838 692.98 695.039 691.719H690.173V688.772Z" fill="white"/>
</g>
<g filter="url(#filter3_d_227_47)">
<rect x="727" y="665" width="50" height="50" rx="10" fill="#0477B8" shape-rendering="crispEdges"/>
<path d="M747.324 686.976V698.036H743.641V686.976H747.324ZM747.558 683.56C747.569 684.62 746.766 685.469 745.482 685.469H745.46C744.222 685.469 743.429 684.62 743.429 683.56C743.429 682.477 744.254 681.651 745.504 681.651C746.766 681.651 747.547 682.477 747.558 683.56ZM760.572 691.696V698.036H756.899V692.121C756.899 690.636 756.364 689.621 755.036 689.621C754.02 689.621 753.417 690.301 753.149 690.96C753.06 691.206 753.027 691.529 753.027 691.864V698.036H749.354C749.399 688.014 749.354 686.976 749.354 686.976H753.027V688.584H753.004C753.484 687.825 754.355 686.72 756.342 686.72C758.764 686.72 760.572 688.305 760.572 691.698V691.696Z" fill="white"/>
</g>
<g filter="url(#filter4_d_227_47)">
<rect x="789" y="665" width="50" height="50" rx="10" fill="black" shape-rendering="crispEdges"/>
<path d="M818.792 682.5H821.348L815.765 688.882L822.333 697.565H817.19L813.162 692.298L808.553 697.565H805.995L811.967 690.74L805.667 682.5H810.94L814.582 687.314L818.792 682.5ZM817.896 696.035H819.312L810.17 683.95H808.65L817.895 696.036L817.896 696.035Z" fill="white"/>
</g>
<g filter="url(#filter5_d_227_47)">
<rect x="851" y="665" width="50" height="50" rx="10" fill="#4D7DB3" shape-rendering="crispEdges"/>
<g clip-path="url(#clip4_227_47)">
<path d="M886.961 684.07C887.123 683.531 886.961 683.136 886.206 683.136H883.691C883.205 683.1 882.756 683.388 882.595 683.855C882.595 683.855 881.319 686.963 879.504 688.994C878.911 689.587 878.641 689.766 878.336 689.766C878.174 689.766 877.941 689.587 877.941 689.048V684.07C877.941 683.423 877.761 683.136 877.222 683.136H873.269C872.927 683.118 872.64 683.37 872.622 683.711C872.622 684.322 873.52 684.466 873.628 686.173V689.874C873.628 690.683 873.484 690.827 873.161 690.827C872.298 690.827 870.232 687.7 869.01 684.106C868.777 683.405 868.525 683.136 867.878 683.136H865.363C864.644 683.136 864.5 683.477 864.5 683.855C864.5 684.538 865.363 687.844 868.471 692.21C870.555 695.193 873.484 696.81 876.144 696.81C877.743 696.81 877.941 696.451 877.941 695.84V693.576C877.941 692.857 878.084 692.713 878.605 692.713C878.983 692.713 879.612 692.893 881.103 694.33C882.81 696.038 883.098 696.81 884.05 696.81H886.566C887.284 696.81 887.644 696.451 887.446 695.75C887.248 695.049 886.404 694.025 885.326 692.803C884.733 692.102 883.852 691.366 883.601 690.988C883.223 690.503 883.331 690.288 883.601 689.874C883.583 689.856 886.638 685.544 886.961 684.07Z" fill="white"/>
</g>
</g>
<defs>
<filter id="filter0_d_227_47" x="521" y="651" width="90" height="90" filterUnits="userSpaceOnUse" color-interpolation-filters="sRGB">
<feFlood flood-opacity="0" result="BackgroundImageFix"/>
<feColorMatrix in="SourceAlpha" type="matrix" values="0 0 0 0 0 0 0 0 0 0 0 0 0 0 0 0 0 0 127 0" result="hardAlpha"/>
<feOffset dy="6"/>
<feGaussianBlur stdDeviation="10"/>
<feComposite in2="hardAlpha" operator="out"/>
<feColorMatrix type="matrix" values="0 0 0 0 0.270588 0 0 0 0 0.290196 0 0 0 0 0.992157 0 0 0 0.15 0"/>
<feBlend mode="normal" in2="BackgroundImageFix" result="effect1_dropShadow_227_47"/>
<feBlend mode="normal" in="SourceGraphic" in2="effect1_dropShadow_227_47" result="shape"/>
</filter>
<filter id="filter1_d_227_47" x="583" y="651" width="90" height="90" filterUnits="userSpaceOnUse" color-interpolation-filters="sRGB">
<feFlood flood-opacity="0" result="BackgroundImageFix"/>
<feColorMatrix in="SourceAlpha" type="matrix" values="0 0 0 0 0 0 0 0 0 0 0 0 0 0 0 0 0 0 127 0" result="hardAlpha"/>
<feOffset dy="6"/>
<feGaussianBlur stdDeviation="10"/>
<feComposite in2="hardAlpha" operator="out"/>
<feColorMatrix type="matrix" values="0 0 0 0 0.270588 0 0 0 0 0.290196 0 0 0 0 0.992157 0 0 0 0.15 0"/>
<feBlend mode="normal" in2="BackgroundImageFix" result="effect1_dropShadow_227_47"/>
<feBlend mode="normal" in="SourceGraphic" in2="effect1_dropShadow_227_47" result="shape"/>
</filter>
<filter id="filter2_d_227_47" x="645" y="651" width="90" height="90" filterUnits="userSpaceOnUse" color-interpolation-filters="sRGB">
<feFlood flood-opacity="0" result="BackgroundImageFix"/>
<feColorMatrix in="SourceAlpha" type="matrix" values="0 0 0 0 0 0 0 0 0 0 0 0 0 0 0 0 0 0 127 0" result="hardAlpha"/>
<feOffset dy="6"/>
<feGaussianBlur stdDeviation="10"/>
<feComposite in2="hardAlpha" operator="out"/>
<feColorMatrix type="matrix" values="0 0 0 0 0.270588 0 0 0 0 0.290196 0 0 0 0 0.992157 0 0 0 0.15 0"/>
<feBlend mode="normal" in2="BackgroundImageFix" result="effect1_dropShadow_227_47"/>
<feBlend mode="normal" in="SourceGraphic" in2="effect1_dropShadow_227_47" result="shape"/>
</filter>
<filter id="filter3_d_227_47" x="707" y="651" width="90" height="90" filterUnits="userSpaceOnUse" color-interpolation-filters="sRGB">
<feFlood flood-opacity="0" result="BackgroundImageFix"/>
<feColorMatrix in="SourceAlpha" type="matrix" values="0 0 0 0 0 0 0 0 0 0 0 0 0 0 0 0 0 0 127 0" result="hardAlpha"/>
<feOffset dy="6"/>
<feGaussianBlur stdDeviation="10"/>
<feComposite in2="hardAlpha" operator="out"/>
<feColorMatrix type="matrix" values="0 0 0 0 0.270588 0 0 0 0 0.290196 0 0 0 0 0.992157 0 0 0 0.15 0"/>
<feBlend mode="normal" in2="BackgroundImageFix" result="effect1_dropShadow_227_47"/>
<feBlend mode="normal" in="SourceGraphic" in2="effect1_dropShadow_227_47" result="shape"/>
</filter>
<filter id="filter4_d_227_47" x="769" y="651" width="90" height="90" filterUnits="userSpaceOnUse" color-interpolation-filters="sRGB">
<feFlood flood-opacity="0" result="BackgroundImageFix"/>
<feColorMatrix in="SourceAlpha" type="matrix" values="0 0 0 0 0 0 0 0 0 0 0 0 0 0 0 0 0 0 127 0" result="hardAlpha"/>
<feOffset dy="6"/>
<feGaussianBlur stdDeviation="10"/>
<feComposite in2="hardAlpha" operator="out"/>
<feColorMatrix type="matrix" values="0 0 0 0 0.270588 0 0 0 0 0.290196 0 0 0 0 0.992157 0 0 0 0.15 0"/>
<feBlend mode="normal" in2="BackgroundImageFix" result="effect1_dropShadow_227_47"/>
<feBlend mode="normal" in="SourceGraphic" in2="effect1_dropShadow_227_47" result="shape"/>
</filter>
<filter id="filter5_d_227_47" x="831" y="651" width="90" height="90" filterUnits="userSpaceOnUse" color-interpolation-filters="sRGB">
<feFlood flood-opacity="0" result="BackgroundImageFix"/>
<feColorMatrix in="SourceAlpha" type="matrix" values="0 0 0 0 0 0 0 0 0 0 0 0 0 0 0 0 0 0 127 0" result="hardAlpha"/>
<feOffset dy="6"/>
<feGaussianBlur stdDeviation="10"/>
<feComposite in2="hardAlpha" operator="out"/>
<feColorMatrix type="matrix" values="0 0 0 0 0.270588 0 0 0 0 0.290196 0 0 0 0 0.992157 0 0 0 0.15 0"/>
<feBlend mode="normal" in2="BackgroundImageFix" result="effect1_dropShadow_227_47"/>
<feBlend mode="normal" in="SourceGraphic" in2="effect1_dropShadow_227_47" result="shape"/>
</filter>
<clipPath id="clip0_227_47">
<rect width="310" height="25" fill="white" transform="translate(566.155 390)"/>
</clipPath>
<clipPath id="clip1_227_47">
<rect width="310" height="25" fill="white" transform="translate(566.155 465)"/>
</clipPath>
<clipPath id="clip2_227_47">
<rect width="20" height="20" fill="white" transform="translate(556 680)"/>
</clipPath>
<clipPath id="clip3_227_47">
<rect width="20" height="20" fill="white" transform="translate(618 680)"/>
</clipPath>
<clipPath id="clip4_227_47">
<rect width="23" height="23" fill="white" transform="translate(864.5 678.5)"/>
</clipPath>
</defs>
</svg>
