<svg width="1440" height="1012" viewBox="0 0 1440 1012" fill="none" xmlns="http://www.w3.org/2000/svg">
<rect width="1440" height="1012" fill="#6200FF"/>
<path d="M543.782 363V360.443L559.464 337.034H543.612V333.909H563.669V336.466L547.987 359.875H563.839V363H543.782ZM570.941 363H567.248L577.93 333.909H581.566L592.248 363H588.555L579.862 338.511H579.635L570.941 363ZM572.305 351.636H587.191V354.761H572.305V351.636ZM596.78 363V333.909H606.609C608.882 333.909 610.747 334.297 612.206 335.074C613.664 335.841 614.744 336.897 615.444 338.241C616.145 339.586 616.495 341.116 616.495 342.83C616.495 344.544 616.145 346.063 615.444 347.389C614.744 348.715 613.669 349.757 612.22 350.514C610.771 351.262 608.92 351.636 606.666 351.636H598.711V348.455H606.552C608.105 348.455 609.355 348.227 610.302 347.773C611.259 347.318 611.95 346.674 612.376 345.841C612.812 344.998 613.03 343.994 613.03 342.83C613.03 341.665 612.812 340.647 612.376 339.776C611.941 338.904 611.245 338.232 610.288 337.759C609.332 337.276 608.067 337.034 606.495 337.034H600.302V363H596.78ZM610.473 349.932L617.632 363H613.541L606.495 349.932H610.473ZM622.366 363V333.909H639.922V337.034H625.888V346.864H639.013V349.989H625.888V359.875H640.15V363H622.366ZM657.408 333.909H660.931V354.705C660.931 356.561 660.59 358.137 659.908 359.435C659.226 360.732 658.265 361.717 657.025 362.389C655.784 363.062 654.321 363.398 652.635 363.398C651.044 363.398 649.629 363.109 648.388 362.531C647.148 361.944 646.172 361.111 645.462 360.031C644.752 358.952 644.397 357.669 644.397 356.182H647.863C647.863 357.006 648.066 357.725 648.473 358.341C648.89 358.947 649.458 359.42 650.178 359.761C650.898 360.102 651.717 360.273 652.635 360.273C653.649 360.273 654.51 360.06 655.221 359.634C655.931 359.207 656.471 358.582 656.84 357.759C657.219 356.925 657.408 355.907 657.408 354.705V333.909ZM667.991 363V333.909H685.547V337.034H671.513V346.864H684.638V349.989H671.513V359.875H685.775V363H667.991ZM707.806 341.182C707.635 339.742 706.944 338.625 705.732 337.83C704.52 337.034 703.033 336.636 701.272 336.636C699.984 336.636 698.857 336.845 697.891 337.261C696.935 337.678 696.187 338.251 695.647 338.98C695.116 339.709 694.851 340.538 694.851 341.466C694.851 342.242 695.036 342.91 695.405 343.469C695.784 344.018 696.267 344.477 696.854 344.847C697.441 345.206 698.057 345.505 698.701 345.741C699.345 345.969 699.937 346.153 700.476 346.295L703.431 347.091C704.188 347.29 705.031 347.564 705.959 347.915C706.897 348.265 707.792 348.743 708.644 349.349C709.506 349.946 710.216 350.713 710.775 351.651C711.333 352.588 711.613 353.739 711.613 355.102C711.613 356.674 711.201 358.095 710.377 359.364C709.562 360.633 708.369 361.641 706.797 362.389C705.235 363.137 703.336 363.511 701.101 363.511C699.018 363.511 697.214 363.175 695.689 362.503C694.174 361.83 692.981 360.893 692.11 359.69C691.248 358.488 690.76 357.091 690.647 355.5H694.283C694.378 356.598 694.747 357.508 695.391 358.227C696.044 358.937 696.868 359.468 697.863 359.818C698.866 360.159 699.946 360.33 701.101 360.33C702.446 360.33 703.653 360.112 704.723 359.676C705.794 359.231 706.641 358.616 707.266 357.83C707.891 357.034 708.204 356.106 708.204 355.045C708.204 354.08 707.934 353.294 707.394 352.688C706.854 352.081 706.144 351.589 705.263 351.21C704.383 350.831 703.431 350.5 702.408 350.216L698.829 349.193C696.556 348.54 694.757 347.607 693.431 346.395C692.105 345.183 691.442 343.597 691.442 341.636C691.442 340.008 691.883 338.587 692.763 337.375C693.653 336.153 694.847 335.206 696.343 334.534C697.848 333.852 699.529 333.511 701.385 333.511C703.26 333.511 704.927 333.848 706.385 334.52C707.844 335.183 708.999 336.092 709.851 337.247C710.713 338.402 711.168 339.714 711.215 341.182H707.806ZM715.814 337.034V333.909H737.632V337.034H728.484V363H724.961V337.034H715.814ZM743.069 363V333.909H752.898C755.171 333.909 757.036 334.297 758.495 335.074C759.953 335.841 761.033 336.897 761.733 338.241C762.434 339.586 762.785 341.116 762.785 342.83C762.785 344.544 762.434 346.063 761.733 347.389C761.033 348.715 759.958 349.757 758.509 350.514C757.06 351.262 755.209 351.636 752.955 351.636H745V348.455H752.841C754.394 348.455 755.644 348.227 756.591 347.773C757.548 347.318 758.239 346.674 758.665 345.841C759.101 344.998 759.319 343.994 759.319 342.83C759.319 341.665 759.101 340.647 758.665 339.776C758.23 338.904 757.534 338.232 756.577 337.759C755.621 337.276 754.357 337.034 752.785 337.034H746.591V363H743.069ZM756.762 349.932L763.921 363H759.83L752.785 349.932H756.762ZM787.745 333.909H791.268V353.17C791.268 355.159 790.799 356.935 789.862 358.497C788.934 360.05 787.622 361.277 785.927 362.176C784.232 363.066 782.244 363.511 779.961 363.511C777.679 363.511 775.691 363.066 773.995 362.176C772.3 361.277 770.984 360.05 770.047 358.497C769.119 356.935 768.655 355.159 768.655 353.17V333.909H772.177V352.886C772.177 354.307 772.49 355.571 773.115 356.679C773.74 357.777 774.63 358.644 775.785 359.278C776.95 359.903 778.342 360.216 779.961 360.216C781.581 360.216 782.973 359.903 784.138 359.278C785.302 358.644 786.192 357.777 786.808 356.679C787.433 355.571 787.745 354.307 787.745 352.886V333.909ZM809.439 333.909H812.962V354.705C812.962 356.561 812.621 358.137 811.939 359.435C811.258 360.732 810.296 361.717 809.056 362.389C807.815 363.062 806.352 363.398 804.667 363.398C803.076 363.398 801.66 363.109 800.419 362.531C799.179 361.944 798.204 361.111 797.493 360.031C796.783 358.952 796.428 357.669 796.428 356.182H799.894C799.894 357.006 800.098 357.725 800.505 358.341C800.921 358.947 801.49 359.42 802.209 359.761C802.929 360.102 803.748 360.273 804.667 360.273C805.68 360.273 806.542 360.06 807.252 359.634C807.962 359.207 808.502 358.582 808.871 357.759C809.25 356.925 809.439 355.907 809.439 354.705V333.909ZM847.181 341.182C847.01 339.742 846.319 338.625 845.107 337.83C843.895 337.034 842.408 336.636 840.647 336.636C839.359 336.636 838.232 336.845 837.266 337.261C836.31 337.678 835.562 338.251 835.022 338.98C834.491 339.709 834.226 340.538 834.226 341.466C834.226 342.242 834.411 342.91 834.78 343.469C835.159 344.018 835.642 344.477 836.229 344.847C836.816 345.206 837.432 345.505 838.076 345.741C838.72 345.969 839.312 346.153 839.851 346.295L842.806 347.091C843.563 347.29 844.406 347.564 845.334 347.915C846.272 348.265 847.167 348.743 848.019 349.349C848.881 349.946 849.591 350.713 850.15 351.651C850.708 352.588 850.988 353.739 850.988 355.102C850.988 356.674 850.576 358.095 849.752 359.364C848.937 360.633 847.744 361.641 846.172 362.389C844.61 363.137 842.711 363.511 840.476 363.511C838.393 363.511 836.589 363.175 835.064 362.503C833.549 361.83 832.356 360.893 831.485 359.69C830.623 358.488 830.135 357.091 830.022 355.5H833.658C833.753 356.598 834.122 357.508 834.766 358.227C835.419 358.937 836.243 359.468 837.238 359.818C838.241 360.159 839.321 360.33 840.476 360.33C841.821 360.33 843.028 360.112 844.098 359.676C845.169 359.231 846.016 358.616 846.641 357.83C847.266 357.034 847.579 356.106 847.579 355.045C847.579 354.08 847.309 353.294 846.769 352.688C846.229 352.081 845.519 351.589 844.638 351.21C843.758 350.831 842.806 350.5 841.783 350.216L838.204 349.193C835.931 348.54 834.132 347.607 832.806 346.395C831.48 345.183 830.817 343.597 830.817 341.636C830.817 340.008 831.258 338.587 832.138 337.375C833.028 336.153 834.222 335.206 835.718 334.534C837.223 333.852 838.904 333.511 840.76 333.511C842.635 333.511 844.302 333.848 845.76 334.52C847.219 335.183 848.374 336.092 849.226 337.247C850.088 338.402 850.543 339.714 850.59 341.182H847.181ZM860.302 333.909V363H856.78V333.909H860.302ZM867.366 363V333.909H884.922V337.034H870.888V346.864H884.013V349.989H870.888V359.875H885.15V363H867.366ZM882.479 371.523C881.314 371.523 880.348 371.201 879.581 370.557C878.824 369.922 878.445 368.994 878.445 367.773C878.445 367.072 878.616 366.371 878.956 365.67C879.297 364.97 879.847 364.293 880.604 363.639C881.362 362.986 882.366 362.375 883.616 361.807L885.15 363C884.297 363.625 883.535 364.288 882.863 364.989C882.19 365.689 881.854 366.466 881.854 367.318C881.854 367.744 881.958 368.076 882.167 368.312C882.375 368.559 882.763 368.682 883.331 368.682C883.758 368.682 884.136 368.625 884.468 368.511C884.799 368.398 885.064 368.284 885.263 368.17L885.491 370.67C885.178 370.869 884.766 371.059 884.255 371.239C883.753 371.428 883.161 371.523 882.479 371.523ZM893.26 359.278C892.56 359.278 891.958 359.027 891.456 358.526C890.955 358.024 890.704 357.422 890.704 356.722C890.704 356.021 890.955 355.42 891.456 354.918C891.958 354.416 892.56 354.165 893.26 354.165C893.961 354.165 894.562 354.416 895.064 354.918C895.566 355.42 895.817 356.021 895.817 356.722C895.817 357.186 895.699 357.612 895.462 358C895.235 358.388 894.927 358.701 894.539 358.938C894.16 359.165 893.734 359.278 893.26 359.278ZM893.26 344.562C892.56 344.562 891.958 344.312 891.456 343.81C890.955 343.308 890.704 342.706 890.704 342.006C890.704 341.305 890.955 340.704 891.456 340.202C891.958 339.7 892.56 339.449 893.26 339.449C893.961 339.449 894.562 339.7 895.064 340.202C895.566 340.704 895.817 341.305 895.817 342.006C895.817 342.47 895.699 342.896 895.462 343.284C895.235 343.672 894.927 343.985 894.539 344.222C894.16 344.449 893.734 344.562 893.26 344.562Z" fill="white"/>
<rect x="352.5" y="628" width="735" height="56.5" rx="10" fill="white"/>
<path d="M622.589 665V663.357L629.122 654.191H622.576V651.909H632.599V653.552L626.06 662.718H632.612V665H622.589ZM639.692 665H636.726L641.245 651.909H644.812L649.325 665H646.359L643.08 654.901H642.977L639.692 665ZM639.506 659.854H646.512V662.015H639.506V659.854ZM653.6 665V651.909H658.765C659.754 651.909 660.597 652.086 661.296 652.44C661.999 652.789 662.534 653.286 662.901 653.929C663.271 654.568 663.457 655.32 663.457 656.185C663.457 657.055 663.269 657.803 662.894 658.429C662.519 659.051 661.976 659.528 661.264 659.861C660.557 660.193 659.7 660.359 658.695 660.359H655.237V658.135H658.247C658.776 658.135 659.215 658.062 659.564 657.918C659.913 657.773 660.173 657.555 660.344 657.266C660.519 656.976 660.606 656.616 660.606 656.185C660.606 655.751 660.519 655.384 660.344 655.086C660.173 654.788 659.911 654.562 659.558 654.408C659.208 654.251 658.767 654.172 658.234 654.172H656.368V665H653.6ZM660.67 659.043L663.923 665H660.868L657.685 659.043H660.67ZM668.113 665V651.909H676.934V654.191H670.88V657.31H676.48V659.592H670.88V662.718H676.959V665H668.113ZM687.076 651.909H689.811V661.037C689.811 661.881 689.622 662.614 689.243 663.236C688.868 663.858 688.346 664.337 687.676 664.674C687.007 665.011 686.23 665.179 685.343 665.179C684.555 665.179 683.839 665.04 683.196 664.763C682.556 664.482 682.049 664.056 681.674 663.485C681.299 662.91 681.114 662.187 681.118 661.318H683.873C683.882 661.663 683.952 661.96 684.084 662.207C684.221 662.45 684.406 662.637 684.64 662.769C684.879 662.897 685.16 662.961 685.484 662.961C685.825 662.961 686.113 662.888 686.347 662.744C686.586 662.594 686.767 662.377 686.89 662.092C687.014 661.806 687.076 661.455 687.076 661.037V651.909ZM694.8 665V651.909H703.621V654.191H697.568V657.31H703.167V659.592H697.568V662.718H703.646V665H694.8ZM715.623 655.674C715.572 655.158 715.352 654.758 714.964 654.472C714.577 654.187 714.05 654.044 713.386 654.044C712.934 654.044 712.553 654.108 712.241 654.236C711.93 654.359 711.692 654.532 711.526 654.754C711.364 654.975 711.283 655.227 711.283 655.508C711.274 655.742 711.323 655.947 711.43 656.121C711.54 656.296 711.692 656.447 711.883 656.575C712.075 656.699 712.297 656.808 712.548 656.901C712.8 656.991 713.068 657.067 713.354 657.131L714.53 657.413C715.101 657.54 715.625 657.711 716.102 657.924C716.58 658.137 716.993 658.399 717.342 658.71C717.692 659.021 717.962 659.388 718.154 659.81C718.35 660.232 718.45 660.715 718.455 661.261C718.45 662.062 718.246 662.756 717.841 663.344C717.44 663.928 716.861 664.382 716.102 664.706C715.348 665.026 714.438 665.185 713.373 665.185C712.316 665.185 711.396 665.023 710.611 664.7C709.832 664.376 709.222 663.896 708.783 663.261C708.349 662.622 708.121 661.832 708.099 660.89H710.778C710.807 661.329 710.933 661.695 711.155 661.989C711.381 662.279 711.681 662.499 712.056 662.648C712.435 662.793 712.864 662.865 713.341 662.865C713.81 662.865 714.217 662.797 714.562 662.661C714.911 662.524 715.182 662.335 715.374 662.092C715.565 661.849 715.661 661.57 715.661 661.254C715.661 660.96 715.574 660.713 715.399 660.513C715.229 660.312 714.977 660.142 714.645 660.001C714.317 659.861 713.914 659.733 713.437 659.618L712.011 659.26C710.908 658.991 710.036 658.572 709.397 658.001C708.758 657.43 708.44 656.661 708.445 655.693C708.44 654.901 708.651 654.208 709.077 653.616C709.508 653.023 710.098 652.561 710.848 652.229C711.598 651.896 712.45 651.73 713.405 651.73C714.376 651.73 715.224 651.896 715.949 652.229C716.678 652.561 717.244 653.023 717.649 653.616C718.054 654.208 718.263 654.894 718.276 655.674H715.623ZM722.518 654.191V651.909H733.269V654.191H729.261V665H726.525V654.191H722.518ZM737.74 665V651.909H742.904C743.893 651.909 744.737 652.086 745.436 652.44C746.139 652.789 746.674 653.286 747.04 653.929C747.411 654.568 747.596 655.32 747.596 656.185C747.596 657.055 747.409 657.803 747.034 658.429C746.659 659.051 746.115 659.528 745.404 659.861C744.696 660.193 743.84 660.359 742.834 660.359H739.376V658.135H742.387C742.915 658.135 743.354 658.062 743.703 657.918C744.053 657.773 744.313 657.555 744.483 657.266C744.658 656.976 744.745 656.616 744.745 656.185C744.745 655.751 744.658 655.384 744.483 655.086C744.313 654.788 744.051 654.562 743.697 654.408C743.348 654.251 742.907 654.172 742.374 654.172H740.507V665H737.74ZM744.809 659.043L748.063 665H745.007L741.824 659.043H744.809ZM760.338 651.909H763.106V660.411C763.106 661.365 762.878 662.2 762.422 662.916C761.97 663.632 761.337 664.19 760.523 664.591C759.71 664.987 758.761 665.185 757.679 665.185C756.592 665.185 755.642 664.987 754.828 664.591C754.014 664.19 753.381 663.632 752.93 662.916C752.478 662.2 752.252 661.365 752.252 660.411V651.909H755.02V660.174C755.02 660.673 755.129 661.116 755.346 661.504C755.567 661.891 755.879 662.196 756.279 662.418C756.68 662.639 757.146 662.75 757.679 662.75C758.216 662.75 758.683 662.639 759.079 662.418C759.479 662.196 759.788 661.891 760.006 661.504C760.227 661.116 760.338 660.673 760.338 660.174V651.909ZM773.324 651.909H776.06V661.037C776.06 661.881 775.871 662.614 775.491 663.236C775.116 663.858 774.594 664.337 773.925 664.674C773.256 665.011 772.479 665.179 771.592 665.179C770.804 665.179 770.088 665.04 769.445 664.763C768.805 664.482 768.298 664.056 767.923 663.485C767.548 662.91 767.363 662.187 767.367 661.318H770.122C770.131 661.663 770.201 661.96 770.333 662.207C770.469 662.45 770.655 662.637 770.889 662.769C771.128 662.897 771.409 662.961 771.733 662.961C772.074 662.961 772.361 662.888 772.596 662.744C772.834 662.594 773.016 662.377 773.139 662.092C773.263 661.806 773.324 661.455 773.324 661.037V651.909ZM795.016 655.674C794.965 655.158 794.746 654.758 794.358 654.472C793.97 654.187 793.444 654.044 792.779 654.044C792.327 654.044 791.946 654.108 791.635 654.236C791.324 654.359 791.085 654.532 790.919 654.754C790.757 654.975 790.676 655.227 790.676 655.508C790.667 655.742 790.716 655.947 790.823 656.121C790.934 656.296 791.085 656.447 791.277 656.575C791.469 656.699 791.69 656.808 791.942 656.901C792.193 656.991 792.462 657.067 792.747 657.131L793.923 657.413C794.494 657.54 795.018 657.711 795.496 657.924C795.973 658.137 796.386 658.399 796.736 658.71C797.085 659.021 797.356 659.388 797.547 659.81C797.743 660.232 797.844 660.715 797.848 661.261C797.844 662.062 797.639 662.756 797.234 663.344C796.834 663.928 796.254 664.382 795.496 664.706C794.741 665.026 793.832 665.185 792.766 665.185C791.709 665.185 790.789 665.023 790.005 664.7C789.225 664.376 788.616 663.896 788.177 663.261C787.742 662.622 787.514 661.832 787.493 660.89H790.171C790.201 661.329 790.327 661.695 790.548 661.989C790.774 662.279 791.074 662.499 791.449 662.648C791.829 662.793 792.257 662.865 792.734 662.865C793.203 662.865 793.61 662.797 793.955 662.661C794.305 662.524 794.575 662.335 794.767 662.092C794.959 661.849 795.055 661.57 795.055 661.254C795.055 660.96 794.967 660.713 794.792 660.513C794.622 660.312 794.371 660.142 794.038 660.001C793.71 659.861 793.307 659.733 792.83 659.618L791.405 659.26C790.301 658.991 789.43 658.572 788.79 658.001C788.151 657.43 787.834 656.661 787.838 655.693C787.834 654.901 788.045 654.208 788.471 653.616C788.901 653.023 789.491 652.561 790.241 652.229C790.991 651.896 791.844 651.73 792.798 651.73C793.77 651.73 794.618 651.896 795.342 652.229C796.071 652.561 796.638 653.023 797.042 653.616C797.447 654.208 797.656 654.894 797.669 655.674H795.016ZM805.177 651.909V665H802.41V651.909H805.177ZM810.154 665V651.909H818.976V654.191H812.922V657.31H818.522V659.592H812.922V662.718H819.001V665H810.154ZM817.761 668.669C817.194 668.669 816.719 668.522 816.336 668.228C815.956 667.938 815.718 667.523 815.62 666.982C815.556 666.632 815.56 666.281 815.632 665.927C815.709 665.573 815.858 665.249 816.08 664.955C816.306 664.661 816.606 664.431 816.981 664.265L819.007 665C818.607 665.188 818.279 665.39 818.023 665.607C817.767 665.825 817.642 666.087 817.646 666.393C817.642 666.598 817.693 666.756 817.799 666.866C817.906 666.977 818.061 667.033 818.266 667.033C818.407 667.033 818.532 667.013 818.643 666.975C818.754 666.941 818.852 666.909 818.937 666.879L819.218 668.286C819.061 668.375 818.858 668.46 818.611 668.541C818.368 668.626 818.085 668.669 817.761 668.669Z" fill="#012F69"/>
<rect x="728" y="552.5" width="359" height="59" rx="9.5" stroke="white"/>
<g clip-path="url(#clip0_290_155)">
<path d="M754.349 589V573.727H759.51C760.708 573.727 761.688 573.944 762.448 574.376C763.214 574.804 763.781 575.383 764.148 576.114C764.516 576.844 764.7 577.66 764.7 578.56C764.7 579.46 764.516 580.277 764.148 581.013C763.786 581.749 763.224 582.336 762.463 582.773C761.702 583.206 760.728 583.422 759.54 583.422H755.841V581.781H759.48C760.3 581.781 760.959 581.64 761.456 581.356C761.953 581.073 762.314 580.69 762.538 580.208C762.766 579.721 762.881 579.171 762.881 578.56C762.881 577.948 762.766 577.401 762.538 576.919C762.314 576.437 761.951 576.059 761.449 575.786C760.947 575.507 760.281 575.368 759.45 575.368H756.199V589H754.349ZM771.971 589.239C770.937 589.239 770.03 588.993 769.249 588.5C768.474 588.008 767.867 587.32 767.43 586.435C766.997 585.55 766.781 584.516 766.781 583.332C766.781 582.139 766.997 581.098 767.43 580.208C767.867 579.318 768.474 578.627 769.249 578.135C770.03 577.642 770.937 577.396 771.971 577.396C773.005 577.396 773.91 577.642 774.686 578.135C775.466 578.627 776.073 579.318 776.505 580.208C776.943 581.098 777.162 582.139 777.162 583.332C777.162 584.516 776.943 585.55 776.505 586.435C776.073 587.32 775.466 588.008 774.686 588.5C773.91 588.993 773.005 589.239 771.971 589.239ZM771.971 587.658C772.757 587.658 773.403 587.456 773.91 587.054C774.417 586.651 774.793 586.121 775.036 585.465C775.28 584.809 775.402 584.098 775.402 583.332C775.402 582.567 775.28 581.853 775.036 581.192C774.793 580.531 774.417 579.996 773.91 579.589C773.403 579.181 772.757 578.977 771.971 578.977C771.186 578.977 770.539 579.181 770.032 579.589C769.525 579.996 769.15 580.531 768.906 581.192C768.663 581.853 768.541 582.567 768.541 583.332C768.541 584.098 768.663 584.809 768.906 585.465C769.15 586.121 769.525 586.651 770.032 587.054C770.539 587.456 771.186 587.658 771.971 587.658ZM782.054 589L778.564 577.545H780.413L782.889 586.315H783.008L785.454 577.545H787.333L789.75 586.286H789.869L792.345 577.545H794.194L790.704 589H788.974L786.468 580.2H786.289L783.784 589H782.054ZM801.502 577.545V579.037H795.566V577.545H801.502ZM797.297 574.801H799.056V585.719C799.056 586.216 799.129 586.589 799.273 586.837C799.422 587.081 799.611 587.245 799.839 587.33C800.073 587.409 800.319 587.449 800.578 587.449C800.772 587.449 800.931 587.439 801.055 587.419C801.179 587.394 801.279 587.374 801.353 587.359L801.711 588.94C801.592 588.985 801.425 589.03 801.212 589.075C800.998 589.124 800.727 589.149 800.399 589.149C799.902 589.149 799.414 589.042 798.937 588.828C798.465 588.615 798.072 588.289 797.759 587.852C797.451 587.414 797.297 586.862 797.297 586.196V574.801ZM808.68 589.239C807.646 589.239 806.739 588.993 805.958 588.5C805.183 588.008 804.576 587.32 804.139 586.435C803.706 585.55 803.49 584.516 803.49 583.332C803.49 582.139 803.706 581.098 804.139 580.208C804.576 579.318 805.183 578.627 805.958 578.135C806.739 577.642 807.646 577.396 808.68 577.396C809.714 577.396 810.619 577.642 811.395 578.135C812.175 578.627 812.782 579.318 813.214 580.208C813.652 581.098 813.871 582.139 813.871 583.332C813.871 584.516 813.652 585.55 813.214 586.435C812.782 587.32 812.175 588.008 811.395 588.5C810.619 588.993 809.714 589.239 808.68 589.239ZM808.68 587.658C809.466 587.658 810.112 587.456 810.619 587.054C811.126 586.651 811.502 586.121 811.745 585.465C811.989 584.809 812.111 584.098 812.111 583.332C812.111 582.567 811.989 581.853 811.745 581.192C811.502 580.531 811.126 579.996 810.619 579.589C810.112 579.181 809.466 578.977 808.68 578.977C807.895 578.977 807.248 579.181 806.741 579.589C806.234 579.996 805.859 580.531 805.615 581.192C805.372 581.853 805.25 582.567 805.25 583.332C805.25 584.098 805.372 584.809 805.615 585.465C805.859 586.121 806.234 586.651 806.741 587.054C807.248 587.456 807.895 587.658 808.68 587.658ZM807.875 575.994L809.694 572.534H811.753L809.426 575.994H807.875ZM816.557 589V577.545H818.257V579.276H818.377C818.585 578.709 818.963 578.249 819.51 577.896C820.057 577.543 820.674 577.366 821.36 577.366C821.489 577.366 821.65 577.369 821.844 577.374C822.038 577.379 822.185 577.386 822.284 577.396V579.186C822.225 579.171 822.088 579.149 821.874 579.119C821.665 579.084 821.444 579.067 821.21 579.067C820.654 579.067 820.157 579.184 819.719 579.417C819.286 579.646 818.943 579.964 818.69 580.372C818.441 580.775 818.317 581.234 818.317 581.751V589H816.557ZM824.042 589V587.658L830.545 579.305V579.186H824.251V577.545H832.812V578.947L826.488 587.24V587.359H833.021V589H824.042ZM843.398 582.109V589H841.638V573.727H843.398V579.335H843.547C843.816 578.744 844.218 578.274 844.755 577.926C845.297 577.573 846.018 577.396 846.918 577.396C847.699 577.396 848.382 577.553 848.969 577.866C849.555 578.174 850.01 578.649 850.333 579.29C850.662 579.927 850.826 580.737 850.826 581.722V589H849.066V581.841C849.066 580.931 848.83 580.228 848.357 579.73C847.89 579.228 847.241 578.977 846.411 578.977C845.834 578.977 845.317 579.099 844.86 579.343C844.407 579.586 844.049 579.942 843.786 580.409C843.527 580.876 843.398 581.443 843.398 582.109ZM857.416 589.268C856.69 589.268 856.032 589.132 855.44 588.858C854.848 588.58 854.378 588.18 854.03 587.658C853.682 587.131 853.508 586.494 853.508 585.749C853.508 585.092 853.638 584.56 853.896 584.153C854.155 583.74 854.5 583.417 854.933 583.183C855.365 582.95 855.843 582.776 856.365 582.661C856.892 582.542 857.421 582.447 857.953 582.378C858.649 582.288 859.213 582.221 859.646 582.176C860.083 582.127 860.402 582.045 860.6 581.93C860.804 581.816 860.906 581.617 860.906 581.334V581.274C860.906 580.538 860.705 579.967 860.302 579.559C859.904 579.151 859.3 578.947 858.49 578.947C857.65 578.947 856.991 579.131 856.514 579.499C856.036 579.867 855.701 580.26 855.507 580.678L853.837 580.081C854.135 579.385 854.533 578.843 855.03 578.455C855.532 578.062 856.079 577.789 856.67 577.635C857.267 577.476 857.854 577.396 858.43 577.396C858.798 577.396 859.221 577.441 859.698 577.531C860.18 577.615 860.645 577.792 861.093 578.06C861.545 578.328 861.92 578.734 862.219 579.276C862.517 579.817 862.666 580.543 862.666 581.453V589H860.906V587.449H860.817C860.697 587.697 860.498 587.963 860.22 588.247C859.942 588.53 859.571 588.771 859.109 588.97C858.647 589.169 858.082 589.268 857.416 589.268ZM857.685 587.688C858.381 587.688 858.967 587.551 859.445 587.277C859.927 587.004 860.29 586.651 860.533 586.218C860.782 585.786 860.906 585.331 860.906 584.854V583.243C860.832 583.332 860.668 583.414 860.414 583.489C860.165 583.559 859.877 583.621 859.549 583.675C859.226 583.725 858.91 583.77 858.602 583.81C858.299 583.844 858.052 583.874 857.864 583.899C857.406 583.959 856.979 584.056 856.581 584.19C856.188 584.319 855.87 584.516 855.626 584.779C855.388 585.038 855.268 585.391 855.268 585.838C855.268 586.45 855.495 586.912 855.947 587.225C856.404 587.533 856.984 587.688 857.685 587.688ZM873.992 580.111L872.411 580.558C872.312 580.295 872.165 580.039 871.971 579.79C871.782 579.537 871.524 579.328 871.195 579.164C870.867 579 870.447 578.918 869.935 578.918C869.234 578.918 868.65 579.079 868.183 579.402C867.72 579.721 867.489 580.126 867.489 580.618C867.489 581.055 867.648 581.401 867.966 581.654C868.285 581.908 868.782 582.119 869.458 582.288L871.158 582.706C872.182 582.955 872.945 583.335 873.448 583.847C873.95 584.354 874.201 585.008 874.201 585.808C874.201 586.464 874.012 587.051 873.634 587.568C873.261 588.085 872.739 588.493 872.068 588.791C871.397 589.089 870.616 589.239 869.726 589.239C868.558 589.239 867.591 588.985 866.825 588.478C866.06 587.971 865.575 587.23 865.371 586.256L867.042 585.838C867.201 586.455 867.502 586.917 867.944 587.225C868.392 587.533 868.976 587.688 869.697 587.688C870.517 587.688 871.168 587.513 871.65 587.165C872.138 586.812 872.381 586.39 872.381 585.898C872.381 585.5 872.242 585.167 871.964 584.898C871.685 584.625 871.258 584.421 870.681 584.287L868.772 583.839C867.723 583.591 866.952 583.206 866.46 582.684C865.973 582.157 865.729 581.498 865.729 580.707C865.729 580.061 865.911 579.489 866.274 578.992C866.642 578.495 867.141 578.105 867.773 577.821C868.409 577.538 869.13 577.396 869.935 577.396C871.069 577.396 871.959 577.645 872.605 578.142C873.256 578.639 873.719 579.295 873.992 580.111ZM880.251 579.455V580.767L875.209 582.676V581.364L880.251 579.455ZM878.61 573.727V589H876.85V573.727H878.61ZM886.487 589.239C885.453 589.239 884.545 588.993 883.765 588.5C882.989 588.008 882.383 587.32 881.945 586.435C881.513 585.55 881.297 584.516 881.297 583.332C881.297 582.139 881.513 581.098 881.945 580.208C882.383 579.318 882.989 578.627 883.765 578.135C884.545 577.642 885.453 577.396 886.487 577.396C887.521 577.396 888.426 577.642 889.201 578.135C889.982 578.627 890.588 579.318 891.021 580.208C891.458 581.098 891.677 582.139 891.677 583.332C891.677 584.516 891.458 585.55 891.021 586.435C890.588 587.32 889.982 588.008 889.201 588.5C888.426 588.993 887.521 589.239 886.487 589.239ZM886.487 587.658C887.272 587.658 887.919 587.456 888.426 587.054C888.933 586.651 889.308 586.121 889.552 585.465C889.795 584.809 889.917 584.098 889.917 583.332C889.917 582.567 889.795 581.853 889.552 581.192C889.308 580.531 888.933 579.996 888.426 579.589C887.919 579.181 887.272 578.977 886.487 578.977C885.701 578.977 885.055 579.181 884.548 579.589C884.041 579.996 883.665 580.531 883.422 581.192C883.178 581.853 883.056 582.567 883.056 583.332C883.056 584.098 883.178 584.809 883.422 585.465C883.665 586.121 884.041 586.651 884.548 587.054C885.055 587.456 885.701 587.658 886.487 587.658Z" fill="white"/>
</g>
<rect x="354" y="552.5" width="359" height="59" rx="9.5" stroke="white"/>
<g clip-path="url(#clip1_290_155)">
<path d="M380.349 589V573.727H382.199V580.528H390.342V573.727H392.192V589H390.342V582.169H382.199V589H380.349ZM399.026 589.268C398.301 589.268 397.642 589.132 397.05 588.858C396.459 588.58 395.989 588.18 395.641 587.658C395.293 587.131 395.119 586.494 395.119 585.749C395.119 585.092 395.248 584.56 395.507 584.153C395.765 583.74 396.111 583.417 396.543 583.183C396.976 582.95 397.453 582.776 397.975 582.661C398.502 582.542 399.031 582.447 399.563 582.378C400.259 582.288 400.824 582.221 401.256 582.176C401.694 582.127 402.012 582.045 402.211 581.93C402.415 581.816 402.517 581.617 402.517 581.334V581.274C402.517 580.538 402.315 579.967 401.912 579.559C401.515 579.151 400.911 578.947 400.1 578.947C399.26 578.947 398.601 579.131 398.124 579.499C397.647 579.867 397.311 580.26 397.117 580.678L395.447 580.081C395.745 579.385 396.143 578.843 396.64 578.455C397.142 578.062 397.689 577.789 398.281 577.635C398.877 577.476 399.464 577.396 400.041 577.396C400.409 577.396 400.831 577.441 401.308 577.531C401.791 577.615 402.256 577.792 402.703 578.06C403.155 578.328 403.531 578.734 403.829 579.276C404.127 579.817 404.276 580.543 404.276 581.453V589H402.517V587.449H402.427C402.308 587.697 402.109 587.963 401.83 588.247C401.552 588.53 401.182 588.771 400.719 588.97C400.257 589.169 399.693 589.268 399.026 589.268ZM399.295 587.688C399.991 587.688 400.578 587.551 401.055 587.277C401.537 587.004 401.9 586.651 402.144 586.218C402.392 585.786 402.517 585.331 402.517 584.854V583.243C402.442 583.332 402.278 583.414 402.024 583.489C401.776 583.559 401.487 583.621 401.159 583.675C400.836 583.725 400.52 583.77 400.212 583.81C399.909 583.844 399.663 583.874 399.474 583.899C399.017 583.959 398.589 584.056 398.191 584.19C397.798 584.319 397.48 584.516 397.237 584.779C396.998 585.038 396.879 585.391 396.879 585.838C396.879 586.45 397.105 586.912 397.557 587.225C398.015 587.533 398.594 587.688 399.295 587.688ZM415.602 580.111L414.021 580.558C413.922 580.295 413.775 580.039 413.581 579.79C413.392 579.537 413.134 579.328 412.806 579.164C412.478 579 412.058 578.918 411.546 578.918C410.845 578.918 410.26 579.079 409.793 579.402C409.331 579.721 409.1 580.126 409.1 580.618C409.1 581.055 409.259 581.401 409.577 581.654C409.895 581.908 410.392 582.119 411.068 582.288L412.769 582.706C413.793 582.955 414.556 583.335 415.058 583.847C415.56 584.354 415.811 585.008 415.811 585.808C415.811 586.464 415.622 587.051 415.244 587.568C414.872 588.085 414.35 588.493 413.678 588.791C413.007 589.089 412.227 589.239 411.337 589.239C410.168 589.239 409.201 588.985 408.436 588.478C407.67 587.971 407.185 587.23 406.982 586.256L408.652 585.838C408.811 586.455 409.112 586.917 409.554 587.225C410.002 587.533 410.586 587.688 411.307 587.688C412.127 587.688 412.778 587.513 413.261 587.165C413.748 586.812 413.992 586.39 413.992 585.898C413.992 585.5 413.852 585.167 413.574 584.898C413.296 584.625 412.868 584.421 412.291 584.287L410.382 583.839C409.333 583.591 408.563 583.206 408.07 582.684C407.583 582.157 407.34 581.498 407.34 580.707C407.34 580.061 407.521 579.489 407.884 578.992C408.252 578.495 408.752 578.105 409.383 577.821C410.019 577.538 410.74 577.396 411.546 577.396C412.679 577.396 413.569 577.645 414.215 578.142C414.867 578.639 415.329 579.295 415.602 580.111ZM421.861 579.455V580.767L416.82 582.676V581.364L421.861 579.455ZM420.22 573.727V589H418.46V573.727H420.22ZM428.097 589.239C427.063 589.239 426.156 588.993 425.375 588.5C424.6 588.008 423.993 587.32 423.556 586.435C423.123 585.55 422.907 584.516 422.907 583.332C422.907 582.139 423.123 581.098 423.556 580.208C423.993 579.318 424.6 578.627 425.375 578.135C426.156 577.642 427.063 577.396 428.097 577.396C429.131 577.396 430.036 577.642 430.812 578.135C431.592 578.627 432.199 579.318 432.631 580.208C433.069 581.098 433.288 582.139 433.288 583.332C433.288 584.516 433.069 585.55 432.631 586.435C432.199 587.32 431.592 588.008 430.812 588.5C430.036 588.993 429.131 589.239 428.097 589.239ZM428.097 587.658C428.883 587.658 429.529 587.456 430.036 587.054C430.543 586.651 430.919 586.121 431.162 585.465C431.406 584.809 431.528 584.098 431.528 583.332C431.528 582.567 431.406 581.853 431.162 581.192C430.919 580.531 430.543 579.996 430.036 579.589C429.529 579.181 428.883 578.977 428.097 578.977C427.312 578.977 426.665 579.181 426.158 579.589C425.651 579.996 425.276 580.531 425.032 581.192C424.789 581.853 424.667 582.567 424.667 583.332C424.667 584.098 424.789 584.809 425.032 585.465C425.276 586.121 425.651 586.651 426.158 587.054C426.665 587.456 427.312 587.658 428.097 587.658Z" fill="white"/>
</g>
<rect x="728" y="476.5" width="359" height="59" rx="9.5" stroke="white"/>
<g clip-path="url(#clip2_290_155)">
<path d="M757.124 513L752.947 497.727H754.827L758.018 510.166H758.168L761.419 497.727H763.507L766.759 510.166H766.908L770.099 497.727H771.979L767.803 513H765.893L762.523 500.83H762.403L759.033 513H757.124ZM774.044 513V501.545H775.804V513H774.044ZM774.939 499.636C774.596 499.636 774.3 499.52 774.052 499.286C773.808 499.052 773.686 498.771 773.686 498.443C773.686 498.115 773.808 497.834 774.052 497.6C774.3 497.367 774.596 497.25 774.939 497.25C775.282 497.25 775.576 497.367 775.819 497.6C776.068 497.834 776.192 498.115 776.192 498.443C776.192 498.771 776.068 499.052 775.819 499.286C775.576 499.52 775.282 499.636 774.939 499.636ZM783.83 513.239C782.727 513.239 781.775 512.995 780.974 512.508C780.179 512.016 779.565 511.33 779.132 510.45C778.705 509.565 778.491 508.536 778.491 507.362C778.491 506.189 778.705 505.155 779.132 504.26C779.565 503.36 780.166 502.659 780.937 502.157C781.712 501.65 782.617 501.396 783.651 501.396C784.248 501.396 784.837 501.496 785.419 501.695C786 501.893 786.53 502.217 787.007 502.664C787.484 503.107 787.865 503.693 788.148 504.424C788.432 505.155 788.573 506.055 788.573 507.124V507.869H779.744V506.348H786.783C786.783 505.702 786.654 505.125 786.396 504.618C786.142 504.111 785.779 503.711 785.307 503.417C784.84 503.124 784.288 502.977 783.651 502.977C782.95 502.977 782.344 503.151 781.832 503.499C781.325 503.842 780.934 504.29 780.661 504.842C780.388 505.393 780.251 505.985 780.251 506.616V507.631C780.251 508.496 780.4 509.229 780.698 509.831C781.002 510.427 781.422 510.882 781.959 511.195C782.495 511.504 783.119 511.658 783.83 511.658C784.293 511.658 784.71 511.593 785.083 511.464C785.461 511.33 785.787 511.131 786.06 510.867C786.334 510.599 786.545 510.266 786.694 509.868L788.394 510.345C788.215 510.922 787.915 511.429 787.492 511.866C787.069 512.299 786.547 512.637 785.926 512.881C785.304 513.119 784.606 513.239 783.83 513.239ZM792.891 508.824L792.861 506.646H793.219L798.231 501.545H800.408L795.069 506.945H794.919L792.891 508.824ZM791.25 513V497.727H793.01V513H791.25ZM798.529 513L794.054 507.332L795.307 506.109L800.766 513H798.529Z" fill="white"/>
</g>
<rect x="354" y="476.5" width="359" height="59" rx="9.5" stroke="white"/>
<g clip-path="url(#clip3_290_155)">
<path d="M380.349 513V497.727H389.567V499.368H382.199V504.528H389.089V506.169H382.199V511.359H389.686V513H380.349ZM392.662 513V501.545H394.362V503.335H394.511C394.75 502.724 395.135 502.249 395.667 501.911C396.199 501.568 396.838 501.396 397.583 501.396C398.339 501.396 398.968 501.568 399.47 501.911C399.977 502.249 400.373 502.724 400.656 503.335H400.775C401.069 502.744 401.509 502.274 402.095 501.926C402.682 501.573 403.385 501.396 404.206 501.396C405.23 501.396 406.067 501.717 406.719 502.358C407.37 502.995 407.696 503.987 407.696 505.334V513H405.936V505.334C405.936 504.489 405.705 503.885 405.242 503.522C404.78 503.159 404.235 502.977 403.609 502.977C402.804 502.977 402.18 503.221 401.737 503.708C401.295 504.19 401.074 504.802 401.074 505.543V513H399.284V505.155C399.284 504.504 399.072 503.979 398.65 503.581C398.227 503.179 397.683 502.977 397.017 502.977C396.559 502.977 396.132 503.099 395.734 503.343C395.341 503.586 395.023 503.924 394.779 504.357C394.541 504.784 394.422 505.279 394.422 505.841V513H392.662ZM414.284 513.268C413.558 513.268 412.9 513.132 412.308 512.858C411.716 512.58 411.247 512.18 410.899 511.658C410.551 511.131 410.377 510.494 410.377 509.749C410.377 509.092 410.506 508.56 410.764 508.153C411.023 507.74 411.368 507.417 411.801 507.183C412.233 506.95 412.711 506.776 413.233 506.661C413.76 506.542 414.289 506.447 414.821 506.378C415.517 506.288 416.081 506.221 416.514 506.176C416.952 506.127 417.27 506.045 417.469 505.93C417.672 505.816 417.774 505.617 417.774 505.334V505.274C417.774 504.538 417.573 503.967 417.17 503.559C416.773 503.151 416.169 502.947 415.358 502.947C414.518 502.947 413.859 503.131 413.382 503.499C412.905 503.867 412.569 504.26 412.375 504.678L410.705 504.081C411.003 503.385 411.401 502.843 411.898 502.455C412.4 502.062 412.947 501.789 413.539 501.635C414.135 501.476 414.722 501.396 415.298 501.396C415.666 501.396 416.089 501.441 416.566 501.531C417.048 501.615 417.513 501.792 417.961 502.06C418.413 502.328 418.789 502.734 419.087 503.276C419.385 503.817 419.534 504.543 419.534 505.453V513H417.774V511.449H417.685C417.566 511.697 417.367 511.963 417.088 512.247C416.81 512.53 416.439 512.771 415.977 512.97C415.515 513.169 414.95 513.268 414.284 513.268ZM414.553 511.688C415.249 511.688 415.835 511.551 416.313 511.277C416.795 511.004 417.158 510.651 417.401 510.218C417.65 509.786 417.774 509.331 417.774 508.854V507.243C417.7 507.332 417.536 507.414 417.282 507.489C417.034 507.559 416.745 507.621 416.417 507.675C416.094 507.725 415.778 507.77 415.47 507.81C415.167 507.844 414.921 507.874 414.732 507.899C414.274 507.959 413.847 508.056 413.449 508.19C413.056 508.319 412.738 508.516 412.494 508.779C412.256 509.038 412.137 509.391 412.137 509.838C412.137 510.45 412.363 510.912 412.815 511.225C413.273 511.533 413.852 511.688 414.553 511.688ZM422.747 513V501.545H424.506V513H422.747ZM423.641 499.636C423.298 499.636 423.003 499.52 422.754 499.286C422.51 499.052 422.389 498.771 422.389 498.443C422.389 498.115 422.51 497.834 422.754 497.6C423.003 497.367 423.298 497.25 423.641 497.25C423.984 497.25 424.278 497.367 424.521 497.6C424.77 497.834 424.894 498.115 424.894 498.443C424.894 498.771 424.77 499.052 424.521 499.286C424.278 499.52 423.984 499.636 423.641 499.636ZM429.49 497.727V513H427.73V497.727H429.49Z" fill="white"/>
</g>
<rect x="728" y="400.5" width="359" height="59" rx="9.5" stroke="white"/>
<g clip-path="url(#clip4_290_155)">
<path d="M766.46 421.727V437H764.67L756.348 425.009H756.199V437H754.349V421.727H756.139L764.491 433.749H764.641V421.727H766.46ZM773.293 437.268C772.567 437.268 771.908 437.132 771.317 436.858C770.725 436.58 770.255 436.18 769.907 435.658C769.559 435.131 769.385 434.494 769.385 433.749C769.385 433.092 769.515 432.56 769.773 432.153C770.032 431.74 770.377 431.417 770.81 431.183C771.242 430.95 771.72 430.776 772.242 430.661C772.769 430.542 773.298 430.447 773.83 430.378C774.526 430.288 775.09 430.221 775.523 430.176C775.96 430.127 776.278 430.045 776.477 429.93C776.681 429.816 776.783 429.617 776.783 429.334V429.274C776.783 428.538 776.582 427.967 776.179 427.559C775.781 427.151 775.177 426.947 774.367 426.947C773.527 426.947 772.868 427.131 772.391 427.499C771.913 427.867 771.578 428.26 771.384 428.678L769.714 428.081C770.012 427.385 770.41 426.843 770.907 426.455C771.409 426.062 771.956 425.789 772.547 425.635C773.144 425.476 773.731 425.396 774.307 425.396C774.675 425.396 775.098 425.441 775.575 425.531C776.057 425.615 776.522 425.792 776.97 426.06C777.422 426.328 777.797 426.734 778.096 427.276C778.394 427.817 778.543 428.543 778.543 429.453V437H776.783V435.449H776.694C776.574 435.697 776.375 435.963 776.097 436.247C775.819 436.53 775.448 436.771 774.986 436.97C774.524 437.169 773.959 437.268 773.293 437.268ZM773.562 435.688C774.258 435.688 774.844 435.551 775.321 435.277C775.804 435.004 776.167 434.651 776.41 434.218C776.659 433.786 776.783 433.331 776.783 432.854V431.243C776.709 431.332 776.544 431.414 776.291 431.489C776.042 431.559 775.754 431.621 775.426 431.675C775.103 431.725 774.787 431.77 774.479 431.81C774.176 431.844 773.929 431.874 773.741 431.899C773.283 431.959 772.856 432.056 772.458 432.19C772.065 432.319 771.747 432.516 771.503 432.779C771.265 433.038 771.145 433.391 771.145 433.838C771.145 434.45 771.372 434.912 771.824 435.225C772.281 435.533 772.861 435.688 773.562 435.688ZM781.427 437V435.658L787.93 427.305V427.186H781.636V425.545H790.197V426.947L783.873 435.24V435.359H790.406V437H781.427ZM795.712 437L792.222 425.545H794.071L796.547 434.315H796.666L799.112 425.545H800.992L803.408 434.286H803.527L806.003 425.545H807.852L804.362 437H802.632L800.127 428.2H799.948L797.442 437H795.712ZM810.179 437V425.545H811.939V437H810.179ZM811.074 423.636C810.731 423.636 810.435 423.52 810.187 423.286C809.943 423.052 809.821 422.771 809.821 422.443C809.821 422.115 809.943 421.834 810.187 421.6C810.435 421.367 810.731 421.25 811.074 421.25C811.417 421.25 811.71 421.367 811.954 421.6C812.203 421.834 812.327 422.115 812.327 422.443C812.327 422.771 812.203 423.052 811.954 423.286C811.71 423.52 811.417 423.636 811.074 423.636ZM823.276 428.111L821.695 428.558C821.596 428.295 821.449 428.039 821.255 427.79C821.066 427.537 820.808 427.328 820.48 427.164C820.152 427 819.731 426.918 819.219 426.918C818.518 426.918 817.934 427.079 817.467 427.402C817.005 427.721 816.773 428.126 816.773 428.618C816.773 429.055 816.932 429.401 817.251 429.654C817.569 429.908 818.066 430.119 818.742 430.288L820.442 430.706C821.467 430.955 822.23 431.335 822.732 431.847C823.234 432.354 823.485 433.008 823.485 433.808C823.485 434.464 823.296 435.051 822.918 435.568C822.545 436.085 822.023 436.493 821.352 436.791C820.681 437.089 819.9 437.239 819.011 437.239C817.842 437.239 816.875 436.985 816.11 436.478C815.344 435.971 814.859 435.23 814.655 434.256L816.326 433.838C816.485 434.455 816.786 434.917 817.228 435.225C817.676 435.533 818.26 435.688 818.981 435.688C819.801 435.688 820.452 435.513 820.935 435.165C821.422 434.812 821.665 434.39 821.665 433.898C821.665 433.5 821.526 433.167 821.248 432.898C820.969 432.625 820.542 432.421 819.965 432.287L818.056 431.839C817.007 431.591 816.236 431.206 815.744 430.684C815.257 430.157 815.013 429.498 815.013 428.707C815.013 428.061 815.195 427.489 815.558 426.992C815.926 426.495 816.425 426.105 817.057 425.821C817.693 425.538 818.414 425.396 819.219 425.396C820.353 425.396 821.243 425.645 821.889 426.142C822.54 426.639 823.003 427.295 823.276 428.111ZM827.775 432.824L827.745 430.646H828.103L833.114 425.545H835.292L829.952 430.945H829.803L827.775 432.824ZM826.134 437V421.727H827.894V437H826.134ZM833.413 437L828.938 431.332L830.191 430.109L835.65 437H833.413ZM841.739 437.239C840.705 437.239 839.797 436.993 839.017 436.5C838.241 436.008 837.635 435.32 837.197 434.435C836.765 433.55 836.548 432.516 836.548 431.332C836.548 430.139 836.765 429.098 837.197 428.208C837.635 427.318 838.241 426.627 839.017 426.135C839.797 425.642 840.705 425.396 841.739 425.396C842.773 425.396 843.678 425.642 844.453 426.135C845.234 426.627 845.84 427.318 846.273 428.208C846.71 429.098 846.929 430.139 846.929 431.332C846.929 432.516 846.71 433.55 846.273 434.435C845.84 435.32 845.234 436.008 844.453 436.5C843.678 436.993 842.773 437.239 841.739 437.239ZM841.739 435.658C842.524 435.658 843.171 435.456 843.678 435.054C844.185 434.651 844.56 434.121 844.804 433.465C845.047 432.809 845.169 432.098 845.169 431.332C845.169 430.567 845.047 429.853 844.804 429.192C844.56 428.531 844.185 427.996 843.678 427.589C843.171 427.181 842.524 426.977 841.739 426.977C840.953 426.977 840.307 427.181 839.8 427.589C839.293 427.996 838.917 428.531 838.674 429.192C838.43 429.853 838.308 430.567 838.308 431.332C838.308 432.098 838.43 432.809 838.674 433.465C838.917 434.121 839.293 434.651 839.8 435.054C840.307 435.456 840.953 435.658 841.739 435.658Z" fill="white"/>
</g>
<rect x="354" y="400.5" width="359" height="59" rx="9.5" stroke="white"/>
<g clip-path="url(#clip5_290_155)">
<path d="M382.199 421.727V437H380.349V421.727H382.199ZM385.668 437V425.545H387.369V427.335H387.518C387.756 426.724 388.142 426.249 388.674 425.911C389.206 425.568 389.845 425.396 390.59 425.396C391.346 425.396 391.975 425.568 392.477 425.911C392.984 426.249 393.379 426.724 393.663 427.335H393.782C394.075 426.744 394.515 426.274 395.102 425.926C395.689 425.573 396.392 425.396 397.212 425.396C398.237 425.396 399.074 425.717 399.726 426.358C400.377 426.995 400.703 427.987 400.703 429.334V437H398.943V429.334C398.943 428.489 398.711 427.885 398.249 427.522C397.787 427.159 397.242 426.977 396.616 426.977C395.81 426.977 395.187 427.221 394.744 427.708C394.302 428.19 394.08 428.802 394.08 429.543V437H392.291V429.155C392.291 428.504 392.079 427.979 391.657 427.581C391.234 427.179 390.69 426.977 390.024 426.977C389.566 426.977 389.139 427.099 388.741 427.343C388.348 427.586 388.03 427.924 387.786 428.357C387.548 428.784 387.428 429.279 387.428 429.841V437H385.668ZM403.92 437V425.545H405.68V437H403.92ZM404.815 423.636C404.472 423.636 404.176 423.52 403.928 423.286C403.684 423.052 403.562 422.771 403.562 422.443C403.562 422.115 403.684 421.834 403.928 421.6C404.176 421.367 404.472 421.25 404.815 421.25C405.158 421.25 405.452 421.367 405.695 421.6C405.944 421.834 406.068 422.115 406.068 422.443C406.068 422.771 405.944 423.052 405.695 423.286C405.452 423.52 405.158 423.636 404.815 423.636ZM413.706 437.239C412.603 437.239 411.651 436.995 410.85 436.508C410.055 436.016 409.441 435.33 409.008 434.45C408.581 433.565 408.367 432.536 408.367 431.362C408.367 430.189 408.581 429.155 409.008 428.26C409.441 427.36 410.042 426.659 410.813 426.157C411.588 425.65 412.493 425.396 413.527 425.396C414.124 425.396 414.713 425.496 415.295 425.695C415.876 425.893 416.406 426.217 416.883 426.664C417.36 427.107 417.741 427.693 418.024 428.424C418.308 429.155 418.449 430.055 418.449 431.124V431.869H409.62V430.348H416.659C416.659 429.702 416.53 429.125 416.272 428.618C416.018 428.111 415.655 427.711 415.183 427.417C414.716 427.124 414.164 426.977 413.527 426.977C412.826 426.977 412.22 427.151 411.708 427.499C411.201 427.842 410.81 428.29 410.537 428.842C410.263 429.393 410.127 429.985 410.127 430.616V431.631C410.127 432.496 410.276 433.229 410.574 433.831C410.877 434.427 411.298 434.882 411.835 435.195C412.371 435.504 412.995 435.658 413.706 435.658C414.169 435.658 414.586 435.593 414.959 435.464C415.337 435.33 415.663 435.131 415.936 434.867C416.21 434.599 416.421 434.266 416.57 433.868L418.27 434.345C418.091 434.922 417.79 435.429 417.368 435.866C416.945 436.299 416.423 436.637 415.802 436.881C415.18 437.119 414.482 437.239 413.706 437.239ZM413.766 441.474C413.154 441.474 412.647 441.305 412.245 440.967C411.847 440.634 411.648 440.147 411.648 439.506C411.648 439.138 411.738 438.77 411.917 438.402C412.096 438.034 412.384 437.679 412.782 437.336C413.179 436.993 413.706 436.672 414.363 436.374L415.168 437C414.721 437.328 414.32 437.676 413.967 438.044C413.614 438.412 413.438 438.82 413.438 439.267C413.438 439.491 413.493 439.665 413.602 439.789C413.711 439.918 413.915 439.983 414.213 439.983C414.437 439.983 414.636 439.953 414.81 439.893C414.984 439.834 415.123 439.774 415.228 439.714L415.347 441.027C415.183 441.131 414.967 441.231 414.698 441.325C414.435 441.425 414.124 441.474 413.766 441.474Z" fill="white"/>
</g>
<path d="M648.932 719V717.688L654.898 709.131H648.898V707.364H657.511V708.676L651.551 717.233H657.545V719H648.932ZM663.78 719H661.53L665.626 707.364H668.228L672.331 719H670.081L666.973 709.75H666.882L663.78 719ZM663.853 714.438H669.99V716.131H663.853V714.438ZM676.563 719V707.364H678.671V717.233H683.796V719H676.563ZM698.27 713.182C698.27 714.436 698.036 715.509 697.566 716.403C697.1 717.294 696.464 717.975 695.657 718.449C694.854 718.922 693.943 719.159 692.924 719.159C691.905 719.159 690.992 718.922 690.185 718.449C689.382 717.972 688.746 717.288 688.276 716.398C687.81 715.504 687.577 714.432 687.577 713.182C687.577 711.928 687.81 710.856 688.276 709.966C688.746 709.072 689.382 708.388 690.185 707.915C690.992 707.441 691.905 707.205 692.924 707.205C693.943 707.205 694.854 707.441 695.657 707.915C696.464 708.388 697.1 709.072 697.566 709.966C698.036 710.856 698.27 711.928 698.27 713.182ZM696.151 713.182C696.151 712.299 696.013 711.555 695.736 710.949C695.464 710.339 695.085 709.879 694.6 709.568C694.115 709.254 693.556 709.097 692.924 709.097C692.291 709.097 691.733 709.254 691.248 709.568C690.763 709.879 690.382 710.339 690.106 710.949C689.833 711.555 689.697 712.299 689.697 713.182C689.697 714.064 689.833 714.811 690.106 715.42C690.382 716.027 690.763 716.487 691.248 716.801C691.733 717.112 692.291 717.267 692.924 717.267C693.556 717.267 694.115 717.112 694.6 716.801C695.085 716.487 695.464 716.027 695.736 715.42C696.013 714.811 696.151 714.064 696.151 713.182ZM710.759 711.08C710.664 710.773 710.533 710.498 710.367 710.256C710.204 710.009 710.007 709.799 709.776 709.625C709.549 709.451 709.287 709.32 708.992 709.233C708.696 709.142 708.374 709.097 708.026 709.097C707.401 709.097 706.844 709.254 706.355 709.568C705.867 709.883 705.482 710.345 705.202 710.955C704.925 711.561 704.787 712.299 704.787 713.17C704.787 714.049 704.925 714.794 705.202 715.403C705.479 716.013 705.863 716.477 706.355 716.795C706.848 717.11 707.42 717.267 708.071 717.267C708.662 717.267 709.174 717.153 709.605 716.926C710.041 716.699 710.376 716.377 710.611 715.96C710.846 715.54 710.963 715.047 710.963 714.483L711.441 714.557H708.282V712.909H713.003V714.307C713.003 715.303 712.791 716.165 712.367 716.892C711.943 717.619 711.359 718.18 710.617 718.574C709.874 718.964 709.022 719.159 708.06 719.159C706.988 719.159 706.047 718.919 705.236 718.438C704.429 717.953 703.799 717.265 703.344 716.375C702.893 715.481 702.668 714.42 702.668 713.193C702.668 712.254 702.8 711.415 703.066 710.676C703.335 709.938 703.71 709.311 704.191 708.795C704.672 708.277 705.236 707.883 705.884 707.614C706.532 707.341 707.236 707.205 707.997 707.205C708.641 707.205 709.242 707.299 709.799 707.489C710.355 707.674 710.85 707.939 711.282 708.284C711.717 708.629 712.075 709.038 712.355 709.511C712.636 709.985 712.819 710.508 712.907 711.08H710.759ZM725.077 707.364H727.185V714.966C727.185 715.799 726.988 716.532 726.594 717.165C726.204 717.797 725.654 718.292 724.946 718.648C724.238 719 723.41 719.176 722.463 719.176C721.512 719.176 720.683 719 719.974 718.648C719.266 718.292 718.717 717.797 718.327 717.165C717.937 716.532 717.741 715.799 717.741 714.966V707.364H719.849V714.79C719.849 715.275 719.955 715.706 720.168 716.085C720.384 716.464 720.687 716.761 721.077 716.977C721.467 717.189 721.929 717.295 722.463 717.295C722.997 717.295 723.459 717.189 723.849 716.977C724.243 716.761 724.546 716.464 724.759 716.085C724.971 715.706 725.077 715.275 725.077 714.79V707.364ZM736.767 707.364H738.858V715.545C738.854 716.295 738.695 716.941 738.38 717.483C738.066 718.021 737.627 718.436 737.062 718.727C736.502 719.015 735.848 719.159 735.102 719.159C734.42 719.159 733.807 719.038 733.261 718.795C732.719 718.549 732.289 718.186 731.971 717.705C731.653 717.223 731.494 716.625 731.494 715.909H733.591C733.594 716.223 733.663 716.494 733.795 716.722C733.932 716.949 734.119 717.123 734.358 717.244C734.596 717.366 734.871 717.426 735.182 717.426C735.519 717.426 735.805 717.356 736.039 717.216C736.274 717.072 736.452 716.86 736.574 716.58C736.699 716.299 736.763 715.955 736.767 715.545V707.364ZM756.837 710.562C756.784 710.066 756.561 709.68 756.167 709.403C755.777 709.127 755.269 708.989 754.644 708.989C754.205 708.989 753.828 709.055 753.513 709.188C753.199 709.32 752.958 709.5 752.792 709.727C752.625 709.955 752.54 710.214 752.536 710.506C752.536 710.748 752.591 710.958 752.701 711.136C752.814 711.314 752.968 711.466 753.161 711.591C753.354 711.712 753.568 711.814 753.803 711.898C754.038 711.981 754.275 712.051 754.513 712.108L755.604 712.381C756.044 712.483 756.466 712.621 756.871 712.795C757.28 712.97 757.646 713.189 757.968 713.455C758.294 713.72 758.551 714.04 758.741 714.415C758.93 714.79 759.025 715.229 759.025 715.733C759.025 716.415 758.85 717.015 758.502 717.534C758.154 718.049 757.65 718.453 756.991 718.744C756.335 719.032 755.542 719.176 754.61 719.176C753.705 719.176 752.919 719.036 752.252 718.756C751.589 718.475 751.07 718.066 750.695 717.528C750.324 716.991 750.123 716.335 750.093 715.562H752.167C752.197 715.968 752.322 716.305 752.542 716.574C752.761 716.843 753.047 717.044 753.4 717.176C753.756 717.309 754.154 717.375 754.593 717.375C755.051 717.375 755.453 717.307 755.797 717.17C756.146 717.03 756.419 716.837 756.616 716.591C756.813 716.341 756.913 716.049 756.917 715.716C756.913 715.413 756.824 715.163 756.65 714.966C756.475 714.765 756.231 714.598 755.917 714.466C755.606 714.33 755.243 714.208 754.826 714.102L753.502 713.761C752.544 713.515 751.786 713.142 751.229 712.642C750.676 712.138 750.4 711.47 750.4 710.636C750.4 709.951 750.585 709.35 750.957 708.835C751.332 708.32 751.841 707.92 752.485 707.636C753.129 707.348 753.858 707.205 754.672 707.205C755.498 707.205 756.222 707.348 756.843 707.636C757.468 707.92 757.958 708.316 758.314 708.824C758.671 709.328 758.854 709.907 758.866 710.562H756.837ZM765.712 707.364V719H763.604V707.364H765.712ZM770.695 719V707.364H778.263V709.131H772.803V712.29H777.871V714.057H772.803V717.233H778.308V719H770.695ZM777.206 722.307C776.717 722.307 776.308 722.178 775.979 721.92C775.653 721.663 775.462 721.292 775.405 720.807C775.363 720.511 775.388 720.212 775.479 719.909C775.57 719.606 775.732 719.324 775.967 719.062C776.202 718.801 776.513 718.581 776.899 718.403L778.303 719C777.95 719.197 777.655 719.405 777.416 719.625C777.178 719.845 777.058 720.102 777.058 720.398C777.058 720.58 777.102 720.72 777.189 720.818C777.28 720.917 777.424 720.966 777.621 720.966C777.765 720.966 777.89 720.947 777.996 720.909C778.106 720.871 778.198 720.837 778.274 720.807L778.479 721.966C778.342 722.045 778.168 722.121 777.956 722.193C777.744 722.269 777.494 722.307 777.206 722.307Z" fill="white"/>
<path d="M648 722.182H779.268V723.273H648V722.182Z" fill="white"/>
<path d="M569.216 758L567.806 755.27H567.706H566.106V758H565.226V751.04H567.586C568.419 751.04 569.039 751.217 569.446 751.57C569.852 751.917 570.056 752.427 570.056 753.1C570.056 753.6 569.946 754.023 569.726 754.37C569.506 754.717 569.182 754.963 568.756 755.11L570.276 758H569.216ZM567.596 754.44C568.116 754.44 568.496 754.34 568.736 754.14C568.982 753.933 569.106 753.587 569.106 753.1C569.106 752.653 568.982 752.34 568.736 752.16C568.496 751.973 568.112 751.88 567.586 751.88H566.106V754.44H567.596ZM576.298 755.68H572.598C572.651 756.193 572.821 756.603 573.108 756.91C573.401 757.21 573.798 757.36 574.298 757.36C574.598 757.36 574.888 757.3 575.168 757.18C575.454 757.053 575.744 756.87 576.038 756.63H576.078V757.51C575.784 757.723 575.494 757.88 575.208 757.98C574.921 758.073 574.614 758.12 574.288 758.12C573.754 758.12 573.291 758.003 572.898 757.77C572.504 757.537 572.201 757.213 571.988 756.8C571.781 756.38 571.678 755.9 571.678 755.36C571.678 754.847 571.771 754.387 571.958 753.98C572.151 753.567 572.424 753.243 572.778 753.01C573.131 752.777 573.544 752.66 574.018 752.66C574.498 752.66 574.908 752.78 575.248 753.02C575.594 753.253 575.854 753.577 576.028 753.99C576.208 754.403 576.298 754.87 576.298 755.39V755.68ZM574.028 753.39C573.614 753.39 573.284 753.54 573.038 753.84C572.791 754.14 572.644 754.527 572.598 755H575.388C575.341 754.513 575.204 754.123 574.978 753.83C574.758 753.537 574.441 753.39 574.028 753.39ZM578.434 751.6C578.247 751.6 578.094 751.54 577.974 751.42C577.86 751.3 577.804 751.147 577.804 750.96C577.804 750.773 577.86 750.62 577.974 750.5C578.094 750.38 578.247 750.32 578.434 750.32C578.62 750.32 578.77 750.38 578.884 750.5C579.004 750.62 579.064 750.773 579.064 750.96C579.064 751.147 579.004 751.3 578.884 751.42C578.77 751.54 578.62 751.6 578.434 751.6ZM577.284 760.44C577.09 760.44 576.937 760.43 576.824 760.41C576.71 760.39 576.587 760.343 576.454 760.27V759.51C576.58 759.577 576.694 759.62 576.794 759.64C576.894 759.66 577.017 759.67 577.164 759.67C577.45 759.67 577.66 759.573 577.794 759.38C577.927 759.193 577.994 758.933 577.994 758.6V752.78H578.874V758.6C578.874 759.18 578.74 759.63 578.474 759.95C578.207 760.277 577.81 760.44 577.284 760.44ZM585.096 755.68H581.396C581.45 756.193 581.62 756.603 581.906 756.91C582.2 757.21 582.596 757.36 583.096 757.36C583.396 757.36 583.686 757.3 583.966 757.18C584.253 757.053 584.543 756.87 584.836 756.63H584.876V757.51C584.583 757.723 584.293 757.88 584.006 757.98C583.72 758.073 583.413 758.12 583.086 758.12C582.553 758.12 582.09 758.003 581.696 757.77C581.303 757.537 581 757.213 580.786 756.8C580.58 756.38 580.476 755.9 580.476 755.36C580.476 754.847 580.57 754.387 580.756 753.98C580.95 753.567 581.223 753.243 581.576 753.01C581.93 752.777 582.343 752.66 582.816 752.66C583.296 752.66 583.706 752.78 584.046 753.02C584.393 753.253 584.653 753.577 584.826 753.99C585.006 754.403 585.096 754.87 585.096 755.39V755.68ZM582.826 753.39C582.413 753.39 582.083 753.54 581.836 753.84C581.59 754.14 581.443 754.527 581.396 755H584.186C584.14 754.513 584.003 754.123 583.776 753.83C583.556 753.537 583.24 753.39 582.826 753.39ZM588.172 758.12C587.852 758.12 587.536 758.073 587.222 757.98C586.916 757.88 586.626 757.74 586.352 757.56V756.64C586.959 757.107 587.559 757.34 588.152 757.34C588.499 757.34 588.779 757.27 588.992 757.13C589.206 756.983 589.312 756.79 589.312 756.55C589.312 756.383 589.259 756.247 589.152 756.14C589.052 756.033 588.926 755.95 588.772 755.89C588.619 755.83 588.399 755.757 588.112 755.67C587.759 755.57 587.466 755.473 587.232 755.38C587.006 755.28 586.812 755.137 586.652 754.95C586.492 754.757 586.412 754.507 586.412 754.2C586.412 753.733 586.589 753.36 586.942 753.08C587.296 752.8 587.759 752.66 588.332 752.66C588.906 752.66 589.426 752.81 589.892 753.11V754C589.632 753.8 589.379 753.657 589.132 753.57C588.892 753.483 588.639 753.44 588.372 753.44C588.039 753.44 587.776 753.5 587.582 753.62C587.389 753.74 587.292 753.907 587.292 754.12C587.292 754.273 587.342 754.4 587.442 754.5C587.549 754.6 587.679 754.68 587.832 754.74C587.986 754.8 588.206 754.873 588.492 754.96C588.852 755.067 589.146 755.17 589.372 755.27C589.599 755.363 589.792 755.51 589.952 755.71C590.112 755.903 590.192 756.157 590.192 756.47C590.192 756.79 590.106 757.077 589.932 757.33C589.759 757.577 589.519 757.77 589.212 757.91C588.906 758.05 588.559 758.12 588.172 758.12ZM592.902 752.78H594.342V753.54H592.902V756.53C592.902 756.777 592.956 756.977 593.062 757.13C593.176 757.277 593.339 757.35 593.552 757.35C593.699 757.35 593.829 757.337 593.942 757.31C594.062 757.277 594.196 757.227 594.342 757.16V757.94C594.189 758.013 594.042 758.06 593.902 758.08C593.762 758.107 593.592 758.12 593.392 758.12C592.966 758.12 592.629 757.983 592.382 757.71C592.142 757.437 592.022 757.073 592.022 756.62V753.54H591.022V752.78H592.022V751.38L592.902 750.92V752.78ZM598.396 752.66V753.63H598.246C597.933 753.63 597.65 753.687 597.396 753.8C597.15 753.913 596.943 754.077 596.776 754.29V758H595.896V753.94L595.676 752.78H596.556L596.736 753.71C597.01 753.31 597.24 753.037 597.426 752.89C597.62 752.737 597.84 752.66 598.086 752.66H598.396ZM603.566 758L603.426 757.27C603.119 757.557 602.822 757.77 602.536 757.91C602.256 758.05 601.926 758.12 601.546 758.12C601.072 758.12 600.702 757.963 600.436 757.65C600.176 757.337 600.046 756.92 600.046 756.4V752.78H600.926V756.28C600.926 756.6 600.999 756.857 601.146 757.05C601.292 757.237 601.502 757.33 601.776 757.33C602.089 757.33 602.362 757.273 602.596 757.16C602.836 757.047 603.086 756.877 603.346 756.65V752.78H604.226V756.84L604.446 758H603.566ZM606.832 751.6C606.645 751.6 606.492 751.54 606.372 751.42C606.259 751.3 606.202 751.147 606.202 750.96C606.202 750.773 606.259 750.62 606.372 750.5C606.492 750.38 606.645 750.32 606.832 750.32C607.019 750.32 607.169 750.38 607.282 750.5C607.402 750.62 607.462 750.773 607.462 750.96C607.462 751.147 607.402 751.3 607.282 751.42C607.169 751.54 607.019 751.6 606.832 751.6ZM605.682 760.44C605.489 760.44 605.335 760.43 605.222 760.41C605.109 760.39 604.985 760.343 604.852 760.27V759.51C604.979 759.577 605.092 759.62 605.192 759.64C605.292 759.66 605.415 759.67 605.562 759.67C605.849 759.67 606.059 759.573 606.192 759.38C606.325 759.193 606.392 758.933 606.392 758.6V752.78H607.272V758.6C607.272 759.18 607.139 759.63 606.872 759.95C606.605 760.277 606.209 760.44 605.682 760.44ZM612.635 759.62C612.728 759.62 612.831 759.593 612.945 759.54C613.058 759.493 613.165 759.43 613.265 759.35H613.305V759.98C613.078 760.147 612.825 760.23 612.545 760.23C612.285 760.23 612.061 760.147 611.875 759.98C611.695 759.82 611.605 759.593 611.605 759.3C611.605 759.04 611.678 758.79 611.825 758.55C611.978 758.31 612.175 758.113 612.415 757.96L612.285 757.25C612.025 757.537 611.741 757.753 611.435 757.9C611.135 758.047 610.795 758.12 610.415 758.12C609.941 758.12 609.558 757.987 609.265 757.72C608.971 757.447 608.825 757.087 608.825 756.64C608.825 756.06 609.058 755.633 609.525 755.36C609.991 755.087 610.591 754.95 611.325 754.95C611.591 754.95 611.885 754.967 612.205 755V754.64C612.205 754.28 612.105 753.993 611.905 753.78C611.711 753.56 611.458 753.45 611.145 753.45C610.771 753.45 610.431 753.5 610.125 753.6C609.825 753.7 609.515 753.857 609.195 754.07V753.22C609.508 753.013 609.828 752.87 610.155 752.79C610.481 752.703 610.855 752.66 611.275 752.66C611.808 752.66 612.241 752.83 612.575 753.17C612.915 753.51 613.085 753.96 613.085 754.52V756.84L613.305 758C613.271 758.027 613.148 758.117 612.935 758.27C612.721 758.423 612.561 758.577 612.455 758.73C612.355 758.89 612.305 759.053 612.305 759.22C612.305 759.487 612.415 759.62 612.635 759.62ZM610.595 757.38C610.915 757.38 611.201 757.313 611.455 757.18C611.708 757.047 611.958 756.853 612.205 756.6V755.62H611.285C610.278 755.62 609.775 755.943 609.775 756.59C609.775 756.83 609.851 757.023 610.005 757.17C610.158 757.31 610.355 757.38 610.595 757.38ZM616.976 758.12C616.489 758.12 616.062 758.003 615.696 757.77C615.329 757.537 615.049 757.217 614.856 756.81C614.662 756.397 614.566 755.93 614.566 755.41C614.566 754.883 614.662 754.413 614.856 754C615.049 753.58 615.329 753.253 615.696 753.02C616.062 752.78 616.492 752.66 616.986 752.66C617.332 752.66 617.636 752.697 617.896 752.77C618.156 752.843 618.402 752.977 618.636 753.17V754.02H618.596C618.356 753.82 618.106 753.677 617.846 753.59C617.592 753.503 617.302 753.46 616.976 753.46C616.502 753.46 616.136 753.643 615.876 754.01C615.622 754.377 615.496 754.847 615.496 755.42C615.496 755.973 615.622 756.43 615.876 756.79C616.136 757.143 616.499 757.32 616.966 757.32C617.312 757.32 617.622 757.267 617.896 757.16C618.169 757.047 618.439 756.87 618.706 756.63H618.746V757.48C618.499 757.713 618.232 757.88 617.946 757.98C617.666 758.073 617.342 758.12 616.976 758.12ZM624.579 758.12C624.259 758.12 623.942 758.073 623.629 757.98C623.322 757.88 623.032 757.74 622.759 757.56V756.64C623.365 757.107 623.965 757.34 624.559 757.34C624.905 757.34 625.185 757.27 625.399 757.13C625.612 756.983 625.719 756.79 625.719 756.55C625.719 756.383 625.665 756.247 625.559 756.14C625.459 756.033 625.332 755.95 625.179 755.89C625.025 755.83 624.805 755.757 624.519 755.67C624.165 755.57 623.872 755.473 623.639 755.38C623.412 755.28 623.219 755.137 623.059 754.95C622.899 754.757 622.819 754.507 622.819 754.2C622.819 753.733 622.995 753.36 623.349 753.08C623.702 752.8 624.165 752.66 624.739 752.66C625.312 752.66 625.832 752.81 626.299 753.11V754C626.039 753.8 625.785 753.657 625.539 753.57C625.299 753.483 625.045 753.44 624.779 753.44C624.445 753.44 624.182 753.5 623.989 753.62C623.795 753.74 623.699 753.907 623.699 754.12C623.699 754.273 623.749 754.4 623.849 754.5C623.955 754.6 624.085 754.68 624.239 754.74C624.392 754.8 624.612 754.873 624.899 754.96C625.259 755.067 625.552 755.17 625.779 755.27C626.005 755.363 626.199 755.51 626.359 755.71C626.519 755.903 626.599 756.157 626.599 756.47C626.599 756.79 626.512 757.077 626.339 757.33C626.165 757.577 625.925 757.77 625.619 757.91C625.312 758.05 624.965 758.12 624.579 758.12ZM628.579 751.6C628.392 751.6 628.239 751.54 628.119 751.42C628.005 751.3 627.949 751.147 627.949 750.96C627.949 750.773 628.005 750.62 628.119 750.5C628.239 750.38 628.392 750.32 628.579 750.32C628.765 750.32 628.915 750.38 629.029 750.5C629.149 750.62 629.209 750.773 629.209 750.96C629.209 751.147 629.149 751.3 629.029 751.42C628.915 751.54 628.765 751.6 628.579 751.6ZM629.019 752.78V758H628.139V752.78H629.019ZM635.301 755.68H631.601C631.655 756.193 631.825 756.603 632.111 756.91C632.405 757.21 632.801 757.36 633.301 757.36C633.601 757.36 633.891 757.3 634.171 757.18C634.458 757.053 634.748 756.87 635.041 756.63H635.081V757.51L635.001 757.57C634.715 757.77 634.498 757.93 634.351 758.05C634.211 758.17 634.098 758.303 634.011 758.45C633.925 758.597 633.881 758.77 633.881 758.97C633.881 759.183 633.928 759.347 634.021 759.46C634.121 759.573 634.248 759.63 634.401 759.63C634.601 759.63 634.815 759.54 635.041 759.36H635.081V759.99C634.855 760.157 634.601 760.24 634.321 760.24C634.008 760.24 633.738 760.13 633.511 759.91C633.291 759.697 633.181 759.407 633.181 759.04C633.181 758.707 633.281 758.397 633.481 758.11C633.435 758.117 633.371 758.12 633.291 758.12C632.758 758.12 632.295 758.003 631.901 757.77C631.508 757.537 631.205 757.213 630.991 756.8C630.785 756.38 630.681 755.9 630.681 755.36C630.681 754.847 630.775 754.387 630.961 753.98C631.155 753.567 631.428 753.243 631.781 753.01C632.135 752.777 632.548 752.66 633.021 752.66C633.501 752.66 633.911 752.78 634.251 753.02C634.598 753.253 634.858 753.577 635.031 753.99C635.211 754.403 635.301 754.87 635.301 755.39V755.68ZM633.031 753.39C632.618 753.39 632.288 753.54 632.041 753.84C631.795 754.14 631.648 754.527 631.601 755H634.391C634.345 754.513 634.208 754.123 633.981 753.83C633.761 753.537 633.445 753.39 633.031 753.39ZM640.03 751.04H642.29C644.024 751.04 644.89 751.8 644.89 753.32C644.89 754.087 644.674 754.673 644.24 755.08C643.814 755.48 643.187 755.68 642.36 755.68H640.91V758H640.03V751.04ZM642.33 754.86C642.904 754.86 643.314 754.743 643.56 754.51C643.814 754.277 643.94 753.893 643.94 753.36C643.94 752.827 643.814 752.447 643.56 752.22C643.314 751.993 642.89 751.88 642.29 751.88H640.91V754.86H642.33ZM649.632 758L649.492 757.25C649.232 757.537 648.949 757.753 648.642 757.9C648.342 758.047 648.002 758.12 647.622 758.12C647.149 758.12 646.765 757.987 646.472 757.72C646.179 757.447 646.032 757.087 646.032 756.64C646.032 756.06 646.265 755.633 646.732 755.36C647.199 755.087 647.799 754.95 648.532 754.95C648.799 754.95 649.092 754.967 649.412 755V754.64C649.412 754.28 649.312 753.993 649.112 753.78C648.919 753.56 648.665 753.45 648.352 753.45C647.979 753.45 647.639 753.5 647.332 753.6C647.032 753.7 646.722 753.857 646.402 754.07V753.22C646.715 753.013 647.035 752.87 647.362 752.79C647.689 752.703 648.062 752.66 648.482 752.66C649.015 752.66 649.449 752.83 649.782 753.17C650.122 753.51 650.292 753.96 650.292 754.52V756.84L650.512 758H649.632ZM647.802 757.38C648.122 757.38 648.409 757.313 648.662 757.18C648.915 757.047 649.165 756.853 649.412 756.6V755.62H648.492C647.485 755.62 646.982 755.943 646.982 756.59C646.982 756.83 647.059 757.023 647.212 757.17C647.365 757.31 647.562 757.38 647.802 757.38ZM654.973 752.66C655.466 752.66 655.839 752.813 656.093 753.12C656.346 753.42 656.473 753.84 656.473 754.38V758H655.593V754.5C655.593 754.167 655.523 753.91 655.383 753.73C655.243 753.543 655.029 753.45 654.743 753.45C654.416 753.45 654.139 753.503 653.913 753.61C653.693 753.717 653.446 753.89 653.173 754.13V758H652.293V753.94L652.073 752.78H652.953L653.093 753.51C653.406 753.21 653.696 752.993 653.963 752.86C654.236 752.727 654.573 752.66 654.973 752.66ZM660.219 759.16C658.899 758.093 658.239 756.547 658.239 754.52C658.239 753.58 658.399 752.72 658.719 751.94C659.046 751.153 659.546 750.467 660.219 749.88L660.609 750.36C660.096 750.9 659.729 751.517 659.509 752.21C659.296 752.903 659.189 753.673 659.189 754.52C659.189 755.4 659.292 756.187 659.499 756.88C659.712 757.567 660.086 758.167 660.619 758.68L660.219 759.16ZM662.495 751.6C662.308 751.6 662.155 751.54 662.035 751.42C661.921 751.3 661.865 751.147 661.865 750.96C661.865 750.773 661.921 750.62 662.035 750.5C662.155 750.38 662.308 750.32 662.495 750.32C662.681 750.32 662.831 750.38 662.945 750.5C663.065 750.62 663.125 750.773 663.125 750.96C663.125 751.147 663.065 751.3 662.945 751.42C662.831 751.54 662.681 751.6 662.495 751.6ZM662.935 752.78V758H662.055V752.78H662.935ZM664.377 758.68C664.911 758.167 665.281 757.567 665.487 756.88C665.701 756.187 665.807 755.4 665.807 754.52C665.807 753.673 665.697 752.903 665.477 752.21C665.264 751.517 664.901 750.9 664.387 750.36L664.777 749.88C665.451 750.467 665.947 751.153 666.267 751.94C666.594 752.72 666.757 753.58 666.757 754.52C666.757 756.547 666.097 758.093 664.777 759.16L664.377 758.68ZM673.716 752.66C674.169 752.66 674.556 752.78 674.876 753.02C675.196 753.26 675.436 753.587 675.596 754C675.762 754.413 675.846 754.88 675.846 755.4C675.846 755.92 675.749 756.387 675.556 756.8C675.369 757.207 675.096 757.527 674.736 757.76C674.382 757.993 673.962 758.11 673.476 758.11C673.229 758.11 672.999 758.083 672.786 758.03C672.572 757.977 672.346 757.9 672.106 757.8V760.32H671.226V753.94L671.006 752.78H671.886L672.016 753.45C672.469 752.923 673.036 752.66 673.716 752.66ZM673.386 757.33C673.866 757.33 674.236 757.15 674.496 756.79C674.762 756.43 674.896 755.967 674.896 755.4C674.896 754.833 674.792 754.37 674.586 754.01C674.386 753.65 674.069 753.47 673.636 753.47C673.329 753.47 673.052 753.533 672.806 753.66C672.566 753.787 672.332 753.973 672.106 754.22V757.13C672.539 757.263 672.966 757.33 673.386 757.33ZM680.232 752.66V753.63H680.082C679.769 753.63 679.486 753.687 679.232 753.8C678.986 753.913 678.779 754.077 678.612 754.29V758H677.732V753.94L677.512 752.78H678.392L678.572 753.71C678.846 753.31 679.076 753.037 679.262 752.89C679.456 752.737 679.676 752.66 679.922 752.66H680.232ZM685.622 757.31V758H681.202V757.41L684.282 753.47H681.422V752.78H685.402V753.37L682.332 757.31H685.622ZM691.337 752.78L688.347 760.32H687.447L688.347 758.06L686.277 752.78H687.177L688.807 757.06L690.397 752.78H691.337ZM693.063 751.6C692.876 751.6 692.723 751.54 692.603 751.42C692.489 751.3 692.433 751.147 692.433 750.96C692.433 750.773 692.489 750.62 692.603 750.5C692.723 750.38 692.876 750.32 693.063 750.32C693.249 750.32 693.399 750.38 693.513 750.5C693.633 750.62 693.693 750.773 693.693 750.96C693.693 751.147 693.633 751.3 693.513 751.42C693.399 751.54 693.249 751.6 693.063 751.6ZM691.913 760.44C691.719 760.44 691.566 760.43 691.453 760.41C691.339 760.39 691.216 760.343 691.083 760.27V759.51C691.209 759.577 691.323 759.62 691.423 759.64C691.523 759.66 691.646 759.67 691.793 759.67C692.079 759.67 692.289 759.573 692.423 759.38C692.556 759.193 692.623 758.933 692.623 758.6V752.78H693.503V758.6C693.503 759.18 693.369 759.63 693.103 759.95C692.836 760.277 692.439 760.44 691.913 760.44ZM701.195 752.66C701.689 752.66 702.062 752.813 702.315 753.12C702.569 753.42 702.695 753.84 702.695 754.38V758H701.815V754.5C701.815 754.167 701.745 753.91 701.605 753.73C701.465 753.543 701.252 753.45 700.965 753.45C700.672 753.45 700.425 753.503 700.225 753.61C700.025 753.717 699.795 753.89 699.535 754.13C699.542 754.183 699.545 754.267 699.545 754.38V758H698.665V754.5C698.665 754.167 698.595 753.91 698.455 753.73C698.315 753.543 698.102 753.45 697.815 753.45C697.522 753.45 697.275 753.503 697.075 753.61C696.875 753.71 696.649 753.88 696.395 754.12V758H695.515V753.94L695.295 752.78H696.175L696.315 753.5C696.615 753.2 696.885 752.987 697.125 752.86C697.372 752.727 697.679 752.66 698.045 752.66C698.392 752.66 698.679 752.737 698.905 752.89C699.139 753.043 699.309 753.263 699.415 753.55C699.735 753.23 700.019 753.003 700.265 752.87C700.512 752.73 700.822 752.66 701.195 752.66ZM708.4 758L708.26 757.27C707.953 757.557 707.656 757.77 707.37 757.91C707.09 758.05 706.76 758.12 706.38 758.12C705.906 758.12 705.536 757.963 705.27 757.65C705.01 757.337 704.88 756.92 704.88 756.4V752.78H705.76V756.28C705.76 756.6 705.833 756.857 705.98 757.05C706.126 757.237 706.336 757.33 706.61 757.33C706.923 757.33 707.196 757.273 707.43 757.16C707.67 757.047 707.92 756.877 708.18 756.65V752.78H709.06V756.84L709.28 758H708.4ZM711.666 751.6C711.479 751.6 711.326 751.54 711.206 751.42C711.093 751.3 711.036 751.147 711.036 750.96C711.036 750.773 711.093 750.62 711.206 750.5C711.326 750.38 711.479 750.32 711.666 750.32C711.853 750.32 712.003 750.38 712.116 750.5C712.236 750.62 712.296 750.773 712.296 750.96C712.296 751.147 712.236 751.3 712.116 751.42C712.003 751.54 711.853 751.6 711.666 751.6ZM710.516 760.44C710.323 760.44 710.169 760.43 710.056 760.41C709.943 760.39 709.819 760.343 709.686 760.27V759.51C709.813 759.577 709.926 759.62 710.026 759.64C710.126 759.66 710.249 759.67 710.396 759.67C710.683 759.67 710.893 759.573 711.026 759.38C711.159 759.193 711.226 758.933 711.226 758.6V752.78H712.106V758.6C712.106 759.18 711.973 759.63 711.706 759.95C711.439 760.277 711.043 760.44 710.516 760.44ZM718.329 755.68H714.629C714.682 756.193 714.852 756.603 715.139 756.91C715.432 757.21 715.829 757.36 716.329 757.36C716.629 757.36 716.919 757.3 717.199 757.18C717.485 757.053 717.775 756.87 718.069 756.63H718.109V757.51C717.815 757.723 717.525 757.88 717.239 757.98C716.952 758.073 716.645 758.12 716.319 758.12C715.785 758.12 715.322 758.003 714.929 757.77C714.535 757.537 714.232 757.213 714.019 756.8C713.812 756.38 713.709 755.9 713.709 755.36C713.709 754.847 713.802 754.387 713.989 753.98C714.182 753.567 714.455 753.243 714.809 753.01C715.162 752.777 715.575 752.66 716.049 752.66C716.529 752.66 716.939 752.78 717.279 753.02C717.625 753.253 717.885 753.577 718.059 753.99C718.239 754.403 718.329 754.87 718.329 755.39V755.68ZM716.059 753.39C715.645 753.39 715.315 753.54 715.069 753.84C714.822 754.14 714.675 754.527 714.629 755H717.419C717.372 754.513 717.235 754.123 717.009 753.83C716.789 753.537 716.472 753.39 716.059 753.39Z" fill="white"/>
<path d="M733.78 751.04L731.65 758H730.35L728.79 752.74L727.23 758H725.93L723.8 751.04H724.96L726.61 756.62L728.23 751.04H729.4L731.02 756.62L732.67 751.04H733.78ZM737.856 758L737.726 757.31C737.226 757.85 736.626 758.12 735.926 758.12C735.432 758.12 735.029 757.987 734.716 757.72C734.402 757.447 734.246 757.087 734.246 756.64C734.246 756.06 734.472 755.623 734.926 755.33C735.379 755.03 735.989 754.88 736.756 754.88C737.069 754.88 737.362 754.893 737.636 754.92V754.64C737.636 754.307 737.542 754.05 737.356 753.87C737.176 753.69 736.919 753.6 736.586 753.6C736.219 753.6 735.882 753.653 735.576 753.76C735.276 753.867 734.959 754.037 734.626 754.27V753.27C734.932 753.05 735.249 752.893 735.576 752.8C735.909 752.707 736.282 752.66 736.696 752.66C737.322 752.66 737.816 752.827 738.176 753.16C738.536 753.487 738.716 753.94 738.716 754.52V756.84L738.936 758H737.856ZM736.116 757.26C736.402 757.26 736.666 757.2 736.906 757.08C737.152 756.953 737.396 756.77 737.636 756.53V755.68H736.696C736.276 755.68 735.949 755.747 735.716 755.88C735.482 756.013 735.366 756.24 735.366 756.56C735.366 756.78 735.432 756.953 735.566 757.08C735.699 757.2 735.882 757.26 736.116 757.26ZM743.126 752.66V753.78H742.966C742.393 753.78 741.933 753.96 741.586 754.32V758H740.506V753.94L740.286 752.78H741.366L741.526 753.6C741.773 753.247 741.99 753.003 742.176 752.87C742.363 752.73 742.573 752.66 742.806 752.66H743.126ZM748.226 758L748.066 757.3C747.739 757.593 747.439 757.803 747.166 757.93C746.899 758.057 746.589 758.12 746.236 758.12C745.756 758.12 745.372 757.963 745.086 757.65C744.799 757.33 744.656 756.917 744.656 756.41V752.78H745.736V756.01C745.736 756.37 745.806 756.653 745.946 756.86C746.086 757.06 746.289 757.16 746.556 757.16C746.816 757.16 747.052 757.107 747.266 757C747.486 756.893 747.716 756.73 747.956 756.51V752.78H749.036V756.84L749.256 758H748.226ZM753.852 752.66C754.359 752.66 754.755 752.813 755.042 753.12C755.329 753.427 755.472 753.843 755.472 754.37V758H754.392V754.77C754.392 754.383 754.322 754.097 754.182 753.91C754.042 753.717 753.825 753.62 753.532 753.62C753.272 753.62 753.035 753.673 752.822 753.78C752.615 753.88 752.399 754.04 752.172 754.26V758H751.092V753.94L750.872 752.78H751.902L752.062 753.48C752.369 753.187 752.655 752.977 752.922 752.85C753.189 752.723 753.499 752.66 753.852 752.66ZM759.279 755.67L758.569 756.47V758H757.489V750.46H758.569V755.13L760.639 752.78H761.889L759.979 754.9L762.009 758H760.729L759.279 755.67ZM763.679 751.78C763.479 751.78 763.309 751.713 763.169 751.58C763.029 751.44 762.959 751.267 762.959 751.06C762.959 750.847 763.029 750.673 763.169 750.54C763.309 750.4 763.479 750.33 763.679 750.33C763.879 750.33 764.049 750.4 764.189 750.54C764.329 750.673 764.399 750.847 764.399 751.06C764.399 751.267 764.329 751.44 764.189 751.58C764.049 751.713 763.879 751.78 763.679 751.78ZM764.219 752.78V758H763.139V752.78H764.219ZM769.285 751.78C769.085 751.78 768.915 751.713 768.775 751.58C768.635 751.44 768.565 751.267 768.565 751.06C768.565 750.847 768.635 750.673 768.775 750.54C768.915 750.4 769.085 750.33 769.285 750.33C769.485 750.33 769.655 750.4 769.795 750.54C769.935 750.673 770.005 750.847 770.005 751.06C770.005 751.267 769.935 751.44 769.795 751.58C769.655 751.713 769.485 751.78 769.285 751.78ZM769.825 752.78V758H768.745V752.78H769.825ZM777.14 752.66C777.567 752.66 777.937 752.777 778.25 753.01C778.564 753.243 778.804 753.567 778.97 753.98C779.137 754.387 779.22 754.85 779.22 755.37C779.22 755.89 779.12 756.36 778.92 756.78C778.727 757.193 778.454 757.52 778.1 757.76C777.747 757.993 777.337 758.11 776.87 758.11C776.397 758.11 775.934 758.007 775.48 757.8V760.32H774.4V753.94L774.18 752.78H775.21L775.37 753.48C775.604 753.213 775.87 753.01 776.17 752.87C776.47 752.73 776.794 752.66 777.14 752.66ZM776.7 757.19C777.147 757.19 777.487 757.03 777.72 756.71C777.954 756.383 778.07 755.94 778.07 755.38C778.07 754.84 777.977 754.41 777.79 754.09C777.61 753.763 777.334 753.6 776.96 753.6C776.434 753.6 775.94 753.84 775.48 754.32V757.01C775.894 757.13 776.3 757.19 776.7 757.19ZM783.087 758.12C782.573 758.12 782.127 758.007 781.747 757.78C781.367 757.553 781.073 757.237 780.867 756.83C780.667 756.417 780.567 755.937 780.567 755.39C780.567 754.843 780.667 754.367 780.867 753.96C781.073 753.547 781.367 753.227 781.747 753C782.127 752.773 782.573 752.66 783.087 752.66C783.6 752.66 784.047 752.773 784.427 753C784.807 753.227 785.097 753.547 785.297 753.96C785.503 754.367 785.607 754.843 785.607 755.39C785.607 755.937 785.503 756.417 785.297 756.83C785.097 757.237 784.807 757.553 784.427 757.78C784.047 758.007 783.6 758.12 783.087 758.12ZM783.087 757.21C783.533 757.21 783.873 757.05 784.107 756.73C784.34 756.403 784.457 755.957 784.457 755.39C784.457 754.823 784.34 754.38 784.107 754.06C783.873 753.733 783.533 753.57 783.087 753.57C782.64 753.57 782.3 753.733 782.067 754.06C781.84 754.38 781.727 754.823 781.727 755.39C781.727 755.957 781.84 756.403 782.067 756.73C782.3 757.05 782.64 757.21 783.087 757.21ZM787.143 750.46H788.223V758H787.143V750.46ZM790.486 751.78C790.286 751.78 790.116 751.713 789.976 751.58C789.836 751.44 789.766 751.267 789.766 751.06C789.766 750.847 789.836 750.673 789.976 750.54C790.116 750.4 790.286 750.33 790.486 750.33C790.686 750.33 790.856 750.4 790.996 750.54C791.136 750.673 791.206 750.847 791.206 751.06C791.206 751.267 791.136 751.44 790.996 751.58C790.856 751.713 790.686 751.78 790.486 751.78ZM791.026 752.78V758H789.946V752.78H791.026ZM794.119 752.78H795.449V753.64H794.119V756.42C794.119 756.667 794.169 756.86 794.269 757C794.375 757.14 794.532 757.21 794.739 757.21C794.952 757.21 795.192 757.147 795.459 757.02V757.94C795.179 758.06 794.862 758.12 794.509 758.12C794.035 758.12 793.672 757.977 793.419 757.69C793.165 757.403 793.039 756.997 793.039 756.47V753.64H792.149V752.78H793.039V751.38L794.119 750.92V752.78ZM801.323 752.78L798.333 760.32H797.273L798.153 758.11L796.063 752.78H797.163L798.713 756.85L800.213 752.78H801.323ZM804.288 755.67L803.578 756.47V758H802.498V750.46H803.578V755.13L805.648 752.78H806.898L804.988 754.9L807.018 758H805.738L804.288 755.67ZM812.494 755.73H808.824C808.877 756.19 809.037 756.553 809.304 756.82C809.577 757.08 809.944 757.21 810.404 757.21C810.704 757.21 811.01 757.153 811.324 757.04C811.637 756.92 811.94 756.75 812.234 756.53H812.274V757.5C812.254 757.513 812.16 757.577 811.994 757.69C811.694 757.903 811.464 758.103 811.304 758.29C811.15 758.477 811.074 758.677 811.074 758.89C811.074 759.063 811.12 759.207 811.214 759.32C811.314 759.433 811.444 759.49 811.604 759.49C811.79 759.49 812 759.403 812.234 759.23H812.274V759.98C812.007 760.147 811.74 760.23 811.474 760.23C811.26 760.23 811.057 760.18 810.864 760.08C810.67 759.987 810.51 759.847 810.384 759.66C810.264 759.48 810.204 759.263 810.204 759.01C810.204 758.697 810.3 758.4 810.494 758.12H810.394C809.854 758.12 809.384 758.007 808.984 757.78C808.584 757.553 808.277 757.233 808.064 756.82C807.85 756.4 807.744 755.917 807.744 755.37C807.744 754.843 807.84 754.377 808.034 753.97C808.234 753.557 808.517 753.237 808.884 753.01C809.25 752.777 809.677 752.66 810.164 752.66C810.644 752.66 811.057 752.777 811.404 753.01C811.757 753.237 812.027 753.557 812.214 753.97C812.4 754.383 812.494 754.857 812.494 755.39V755.73ZM810.164 753.54C809.797 753.54 809.497 753.67 809.264 753.93C809.03 754.183 808.887 754.523 808.834 754.95H811.384C811.33 754.51 811.2 754.167 810.994 753.92C810.794 753.667 810.517 753.54 810.164 753.54ZM819.543 752.66C819.969 752.66 820.339 752.777 820.653 753.01C820.966 753.243 821.206 753.567 821.373 753.98C821.539 754.387 821.623 754.85 821.623 755.37C821.623 755.89 821.523 756.36 821.323 756.78C821.129 757.193 820.856 757.52 820.503 757.76C820.149 757.993 819.739 758.11 819.273 758.11C818.799 758.11 818.336 758.007 817.883 757.8V760.32H816.803V753.94L816.583 752.78H817.613L817.773 753.48C818.006 753.213 818.273 753.01 818.573 752.87C818.873 752.73 819.196 752.66 819.543 752.66ZM819.103 757.19C819.549 757.19 819.889 757.03 820.123 756.71C820.356 756.383 820.473 755.94 820.473 755.38C820.473 754.84 820.379 754.41 820.193 754.09C820.013 753.763 819.736 753.6 819.363 753.6C818.836 753.6 818.343 753.84 817.883 754.32V757.01C818.296 757.13 818.703 757.19 819.103 757.19ZM825.929 752.66V753.78H825.769C825.196 753.78 824.736 753.96 824.389 754.32V758H823.309V753.94L823.089 752.78H824.169L824.329 753.6C824.576 753.247 824.792 753.003 824.979 752.87C825.166 752.73 825.376 752.66 825.609 752.66H825.929ZM831.918 752.78L828.928 760.32H827.868L828.748 758.11L826.658 752.78H827.758L829.308 756.85L830.808 752.78H831.918ZM840.464 752.78L838.844 758H837.504L836.374 754.21L835.264 758H833.924L832.304 752.78H833.404L834.644 756.93L835.844 752.78H836.944L838.164 756.94L839.404 752.78H840.464ZM844.858 758L844.728 757.31C844.228 757.85 843.628 758.12 842.928 758.12C842.434 758.12 842.031 757.987 841.718 757.72C841.404 757.447 841.248 757.087 841.248 756.64C841.248 756.06 841.474 755.623 841.928 755.33C842.381 755.03 842.991 754.88 843.758 754.88C844.071 754.88 844.364 754.893 844.638 754.92V754.64C844.638 754.307 844.544 754.05 844.358 753.87C844.178 753.69 843.921 753.6 843.588 753.6C843.221 753.6 842.884 753.653 842.578 753.76C842.278 753.867 841.961 754.037 841.628 754.27V753.27C841.934 753.05 842.251 752.893 842.578 752.8C842.911 752.707 843.284 752.66 843.698 752.66C844.324 752.66 844.818 752.827 845.178 753.16C845.538 753.487 845.718 753.94 845.718 754.52V756.84L845.938 758H844.858ZM843.118 757.26C843.404 757.26 843.668 757.2 843.908 757.08C844.154 756.953 844.398 756.77 844.638 756.53V755.68H843.698C843.278 755.68 842.951 755.747 842.718 755.88C842.484 756.013 842.368 756.24 842.368 756.56C842.368 756.78 842.434 756.953 842.568 757.08C842.701 757.2 842.884 757.26 843.118 757.26ZM848.718 752.78H850.048V753.64H848.718V756.42C848.718 756.667 848.768 756.86 848.868 757C848.975 757.14 849.132 757.21 849.338 757.21C849.552 757.21 849.792 757.147 850.058 757.02V757.94C849.778 758.06 849.462 758.12 849.108 758.12C848.635 758.12 848.272 757.977 848.018 757.69C847.765 757.403 847.638 756.997 847.638 756.47V753.64H846.748V752.78H847.638V751.38L848.718 750.92V752.78ZM854.262 752.66C854.769 752.66 855.166 752.813 855.452 753.12C855.739 753.427 855.882 753.843 855.882 754.37V758H854.802V754.77C854.802 754.383 854.732 754.097 854.592 753.91C854.452 753.717 854.236 753.62 853.942 753.62C853.682 753.62 853.446 753.673 853.232 753.78C853.026 753.88 852.809 754.04 852.582 754.26V758H851.502V753.94L851.282 752.78H852.312L852.472 753.48C852.779 753.187 853.066 752.977 853.332 752.85C853.599 752.723 853.909 752.66 854.262 752.66ZM860.089 758.12C859.575 758.12 859.129 758.007 858.749 757.78C858.369 757.553 858.075 757.237 857.869 756.83C857.669 756.417 857.569 755.937 857.569 755.39C857.569 754.843 857.669 754.367 857.869 753.96C858.075 753.547 858.369 753.227 858.749 753C859.129 752.773 859.575 752.66 860.089 752.66C860.602 752.66 861.049 752.773 861.429 753C861.809 753.227 862.099 753.547 862.299 753.96C862.505 754.367 862.609 754.843 862.609 755.39C862.609 755.937 862.505 756.417 862.299 756.83C862.099 757.237 861.809 757.553 861.429 757.78C861.049 758.007 860.602 758.12 860.089 758.12ZM860.089 757.21C860.535 757.21 860.875 757.05 861.109 756.73C861.342 756.403 861.459 755.957 861.459 755.39C861.459 754.823 861.342 754.38 861.109 754.06C860.875 753.733 860.535 753.57 860.089 753.57C859.642 753.57 859.302 753.733 859.069 754.06C858.842 754.38 858.729 754.823 858.729 755.39C858.729 755.957 858.842 756.403 859.069 756.73C859.302 757.05 859.642 757.21 860.089 757.21ZM865.685 758.12C865.358 758.12 865.032 758.073 864.705 757.98C864.385 757.88 864.085 757.74 863.805 757.56V756.49C864.118 756.73 864.418 756.907 864.705 757.02C864.998 757.133 865.305 757.19 865.625 757.19C865.965 757.19 866.232 757.13 866.425 757.01C866.618 756.89 866.715 756.727 866.715 756.52C866.715 756.307 866.625 756.15 866.445 756.05C866.272 755.95 865.995 755.85 865.615 755.75C865.248 755.657 864.948 755.56 864.715 755.46C864.488 755.36 864.292 755.21 864.125 755.01C863.958 754.81 863.875 754.54 863.875 754.2C863.875 753.733 864.058 753.36 864.425 753.08C864.798 752.8 865.288 752.66 865.895 752.66C866.482 752.66 867.018 752.81 867.505 753.11V754.15C867.238 753.95 866.982 753.807 866.735 753.72C866.495 753.633 866.235 753.59 865.955 753.59C865.635 753.59 865.385 753.64 865.205 753.74C865.025 753.84 864.935 753.983 864.935 754.17C864.935 754.357 865.018 754.497 865.185 754.59C865.352 754.677 865.622 754.77 865.995 754.87C866.368 754.97 866.672 755.07 866.905 755.17C867.138 755.263 867.338 755.417 867.505 755.63C867.678 755.843 867.765 756.127 867.765 756.48C867.765 756.8 867.675 757.083 867.495 757.33C867.322 757.577 867.075 757.77 866.755 757.91C866.442 758.05 866.085 758.12 865.685 758.12ZM866.455 750.18H867.705L866.345 751.93H865.365L866.455 750.18ZM871.415 758.12C870.895 758.12 870.442 758.007 870.055 757.78C869.675 757.553 869.382 757.237 869.175 756.83C868.968 756.417 868.865 755.943 868.865 755.41C868.865 754.87 868.968 754.393 869.175 753.98C869.388 753.567 869.685 753.243 870.065 753.01C870.452 752.777 870.902 752.66 871.415 752.66C872.075 752.66 872.605 752.81 873.005 753.11V754.1H872.965C872.525 753.773 872.015 753.61 871.435 753.61C870.968 753.61 870.612 753.773 870.365 754.1C870.118 754.427 869.995 754.867 869.995 755.42C869.995 755.96 870.115 756.387 870.355 756.7C870.602 757.013 870.958 757.17 871.425 757.17C872.005 757.17 872.538 756.977 873.025 756.59H873.065V757.59C872.638 757.943 872.088 758.12 871.415 758.12ZM875.086 751.78C874.886 751.78 874.716 751.713 874.576 751.58C874.436 751.44 874.366 751.267 874.366 751.06C874.366 750.847 874.436 750.673 874.576 750.54C874.716 750.4 874.886 750.33 875.086 750.33C875.286 750.33 875.456 750.4 875.596 750.54C875.736 750.673 875.806 750.847 875.806 751.06C875.806 751.267 875.736 751.44 875.596 751.58C875.456 751.713 875.286 751.78 875.086 751.78ZM875.626 752.78V758H874.546V752.78H875.626Z" fill="white"/>
<path d="M723.49 759H876.486V759.5H723.49V759Z" fill="white"/>
<g filter="url(#filter0_d_290_155)">
<rect x="540" y="779.5" width="50" height="50" rx="10" fill="#475994" shape-rendering="crispEdges"/>
<g clip-path="url(#clip6_290_155)">
<path d="M569.988 794.634V797.58H568.236C566.863 797.58 566.607 798.239 566.607 799.187V801.296H569.877L569.442 804.6H566.607V813.071H563.192V804.6H560.346V801.296H563.192V798.864C563.192 796.04 564.922 794.5 567.444 794.5C568.649 794.5 569.687 794.589 569.988 794.634Z" fill="white"/>
</g>
</g>
<g filter="url(#filter1_d_290_155)">
<rect x="602" y="779.5" width="50" height="50" rx="10" fill="#111111" shape-rendering="crispEdges"/>
<g clip-path="url(#clip7_290_155)">
<path fill-rule="evenodd" clip-rule="evenodd" d="M627 794.749C624.624 794.746 622.324 795.59 620.513 797.129C618.703 798.668 617.499 800.802 617.119 803.147C616.738 805.493 617.206 807.898 618.437 809.93C619.668 811.963 621.583 813.49 623.838 814.239C624.342 814.331 624.52 814.018 624.52 813.754V812.054C621.727 812.661 621.137 810.709 621.137 810.709C620.952 810.104 620.558 809.584 620.026 809.242C619.124 808.628 620.1 808.628 620.1 808.628C620.416 808.673 620.718 808.789 620.983 808.968C621.248 809.146 621.469 809.383 621.629 809.66C621.764 809.906 621.947 810.123 622.167 810.298C622.387 810.474 622.64 810.604 622.91 810.681C623.18 810.759 623.463 810.782 623.743 810.75C624.022 810.718 624.293 810.631 624.538 810.494C624.577 809.989 624.795 809.515 625.152 809.156C622.93 808.904 620.597 808.045 620.597 804.245C620.582 803.253 620.949 802.292 621.622 801.563C621.322 800.699 621.358 799.755 621.721 798.917C621.721 798.917 622.562 798.647 624.471 799.942C626.11 799.492 627.841 799.492 629.48 799.942C631.389 798.647 632.224 798.917 632.224 798.917C632.592 799.746 632.636 800.684 632.347 801.544C633.02 802.274 633.387 803.234 633.372 804.227C633.372 808.07 631.033 808.911 628.805 809.138C629.044 809.378 629.228 809.667 629.346 809.984C629.463 810.302 629.511 810.641 629.486 810.979V813.723C629.486 814.049 629.664 814.3 630.174 814.202C632.403 813.434 634.289 811.902 635.499 809.877C636.709 807.853 637.164 805.466 636.784 803.138C636.404 800.81 635.214 798.692 633.424 797.157C631.634 795.622 629.358 794.769 627 794.749Z" fill="white"/>
</g>
</g>
<g filter="url(#filter2_d_290_155)">
<rect x="664" y="779.5" width="50" height="50" rx="10" fill="#DD4B39" shape-rendering="crispEdges"/>
<path d="M689.173 803.272H697.264C697.343 803.708 697.399 804.131 697.399 804.701C697.399 809.589 694.117 813.071 689.173 813.071C684.43 813.071 680.602 809.243 680.602 804.5C680.602 799.757 684.43 795.928 689.173 795.928C691.483 795.928 693.425 796.777 694.921 798.171L692.587 800.416C691.952 799.801 690.835 799.087 689.172 799.087C686.248 799.087 683.859 801.509 683.859 804.501C683.859 807.492 686.249 809.913 689.173 809.913C692.566 809.913 693.838 807.48 694.039 806.218H689.173V803.272Z" fill="white"/>
</g>
<g filter="url(#filter3_d_290_155)">
<rect x="726" y="779.5" width="50" height="50" rx="10" fill="#0477B8" shape-rendering="crispEdges"/>
<path d="M746.324 801.476V812.536H742.641V801.476H746.324ZM746.558 798.06C746.569 799.12 745.766 799.969 744.482 799.969H744.46C743.222 799.969 742.429 799.12 742.429 798.06C742.429 796.977 743.254 796.151 744.504 796.151C745.766 796.151 746.547 796.977 746.558 798.06ZM759.572 806.196V812.536H755.899V806.621C755.899 805.136 755.364 804.121 754.036 804.121C753.02 804.121 752.417 804.801 752.149 805.46C752.06 805.706 752.027 806.029 752.027 806.364V812.536H748.354C748.399 802.514 748.354 801.476 748.354 801.476H752.027V803.084H752.004C752.484 802.325 753.355 801.22 755.342 801.22C757.764 801.22 759.572 802.805 759.572 806.198V806.196Z" fill="white"/>
</g>
<g filter="url(#filter4_d_290_155)">
<rect x="788" y="779.5" width="50" height="50" rx="10" fill="black" shape-rendering="crispEdges"/>
<path d="M817.792 797H820.348L814.765 803.382L821.333 812.065H816.19L812.162 806.798L807.553 812.065H804.995L810.967 805.24L804.667 797H809.94L813.582 801.814L817.792 797ZM816.896 810.535H818.312L809.17 798.45H807.65L816.895 810.536L816.896 810.535Z" fill="white"/>
</g>
<g filter="url(#filter5_d_290_155)">
<rect x="850" y="779.5" width="50" height="50" rx="10" fill="#4D7DB3" shape-rendering="crispEdges"/>
<g clip-path="url(#clip8_290_155)">
<path d="M885.961 798.57C886.123 798.031 885.961 797.636 885.206 797.636H882.691C882.205 797.6 881.756 797.887 881.595 798.355C881.595 798.355 880.319 801.463 878.504 803.494C877.911 804.087 877.641 804.266 877.336 804.266C877.174 804.266 876.941 804.087 876.941 803.548V798.57C876.941 797.923 876.761 797.636 876.222 797.636H872.269C871.927 797.618 871.64 797.869 871.622 798.211C871.622 798.822 872.52 798.966 872.628 800.673V804.374C872.628 805.183 872.484 805.326 872.161 805.326C871.298 805.326 869.232 802.2 868.01 798.606C867.777 797.905 867.525 797.636 866.878 797.636H864.363C863.644 797.636 863.5 797.977 863.5 798.355C863.5 799.037 864.363 802.344 867.471 806.71C869.555 809.693 872.484 811.31 875.144 811.31C876.743 811.31 876.941 810.951 876.941 810.34V808.076C876.941 807.357 877.084 807.213 877.605 807.213C877.983 807.213 878.612 807.393 880.103 808.83C881.81 810.537 882.098 811.31 883.05 811.31H885.566C886.284 811.31 886.644 810.951 886.446 810.25C886.248 809.549 885.404 808.525 884.326 807.303C883.733 806.602 882.852 805.866 882.601 805.488C882.223 805.003 882.331 804.787 882.601 804.374C882.583 804.356 885.638 800.044 885.961 798.57Z" fill="white"/>
</g>
</g>
<defs>
<filter id="filter0_d_290_155" x="520" y="765.5" width="90" height="90" filterUnits="userSpaceOnUse" color-interpolation-filters="sRGB">
<feFlood flood-opacity="0" result="BackgroundImageFix"/>
<feColorMatrix in="SourceAlpha" type="matrix" values="0 0 0 0 0 0 0 0 0 0 0 0 0 0 0 0 0 0 127 0" result="hardAlpha"/>
<feOffset dy="6"/>
<feGaussianBlur stdDeviation="10"/>
<feComposite in2="hardAlpha" operator="out"/>
<feColorMatrix type="matrix" values="0 0 0 0 0.270588 0 0 0 0 0.290196 0 0 0 0 0.992157 0 0 0 0.15 0"/>
<feBlend mode="normal" in2="BackgroundImageFix" result="effect1_dropShadow_290_155"/>
<feBlend mode="normal" in="SourceGraphic" in2="effect1_dropShadow_290_155" result="shape"/>
</filter>
<filter id="filter1_d_290_155" x="582" y="765.5" width="90" height="90" filterUnits="userSpaceOnUse" color-interpolation-filters="sRGB">
<feFlood flood-opacity="0" result="BackgroundImageFix"/>
<feColorMatrix in="SourceAlpha" type="matrix" values="0 0 0 0 0 0 0 0 0 0 0 0 0 0 0 0 0 0 127 0" result="hardAlpha"/>
<feOffset dy="6"/>
<feGaussianBlur stdDeviation="10"/>
<feComposite in2="hardAlpha" operator="out"/>
<feColorMatrix type="matrix" values="0 0 0 0 0.270588 0 0 0 0 0.290196 0 0 0 0 0.992157 0 0 0 0.15 0"/>
<feBlend mode="normal" in2="BackgroundImageFix" result="effect1_dropShadow_290_155"/>
<feBlend mode="normal" in="SourceGraphic" in2="effect1_dropShadow_290_155" result="shape"/>
</filter>
<filter id="filter2_d_290_155" x="644" y="765.5" width="90" height="90" filterUnits="userSpaceOnUse" color-interpolation-filters="sRGB">
<feFlood flood-opacity="0" result="BackgroundImageFix"/>
<feColorMatrix in="SourceAlpha" type="matrix" values="0 0 0 0 0 0 0 0 0 0 0 0 0 0 0 0 0 0 127 0" result="hardAlpha"/>
<feOffset dy="6"/>
<feGaussianBlur stdDeviation="10"/>
<feComposite in2="hardAlpha" operator="out"/>
<feColorMatrix type="matrix" values="0 0 0 0 0.270588 0 0 0 0 0.290196 0 0 0 0 0.992157 0 0 0 0.15 0"/>
<feBlend mode="normal" in2="BackgroundImageFix" result="effect1_dropShadow_290_155"/>
<feBlend mode="normal" in="SourceGraphic" in2="effect1_dropShadow_290_155" result="shape"/>
</filter>
<filter id="filter3_d_290_155" x="706" y="765.5" width="90" height="90" filterUnits="userSpaceOnUse" color-interpolation-filters="sRGB">
<feFlood flood-opacity="0" result="BackgroundImageFix"/>
<feColorMatrix in="SourceAlpha" type="matrix" values="0 0 0 0 0 0 0 0 0 0 0 0 0 0 0 0 0 0 127 0" result="hardAlpha"/>
<feOffset dy="6"/>
<feGaussianBlur stdDeviation="10"/>
<feComposite in2="hardAlpha" operator="out"/>
<feColorMatrix type="matrix" values="0 0 0 0 0.270588 0 0 0 0 0.290196 0 0 0 0 0.992157 0 0 0 0.15 0"/>
<feBlend mode="normal" in2="BackgroundImageFix" result="effect1_dropShadow_290_155"/>
<feBlend mode="normal" in="SourceGraphic" in2="effect1_dropShadow_290_155" result="shape"/>
</filter>
<filter id="filter4_d_290_155" x="768" y="765.5" width="90" height="90" filterUnits="userSpaceOnUse" color-interpolation-filters="sRGB">
<feFlood flood-opacity="0" result="BackgroundImageFix"/>
<feColorMatrix in="SourceAlpha" type="matrix" values="0 0 0 0 0 0 0 0 0 0 0 0 0 0 0 0 0 0 127 0" result="hardAlpha"/>
<feOffset dy="6"/>
<feGaussianBlur stdDeviation="10"/>
<feComposite in2="hardAlpha" operator="out"/>
<feColorMatrix type="matrix" values="0 0 0 0 0.270588 0 0 0 0 0.290196 0 0 0 0 0.992157 0 0 0 0.15 0"/>
<feBlend mode="normal" in2="BackgroundImageFix" result="effect1_dropShadow_290_155"/>
<feBlend mode="normal" in="SourceGraphic" in2="effect1_dropShadow_290_155" result="shape"/>
</filter>
<filter id="filter5_d_290_155" x="830" y="765.5" width="90" height="90" filterUnits="userSpaceOnUse" color-interpolation-filters="sRGB">
<feFlood flood-opacity="0" result="BackgroundImageFix"/>
<feColorMatrix in="SourceAlpha" type="matrix" values="0 0 0 0 0 0 0 0 0 0 0 0 0 0 0 0 0 0 127 0" result="hardAlpha"/>
<feOffset dy="6"/>
<feGaussianBlur stdDeviation="10"/>
<feComposite in2="hardAlpha" operator="out"/>
<feColorMatrix type="matrix" values="0 0 0 0 0.270588 0 0 0 0 0.290196 0 0 0 0 0.992157 0 0 0 0.15 0"/>
<feBlend mode="normal" in2="BackgroundImageFix" result="effect1_dropShadow_290_155"/>
<feBlend mode="normal" in="SourceGraphic" in2="effect1_dropShadow_290_155" result="shape"/>
</filter>
<clipPath id="clip0_290_155">
<rect width="310" height="25" fill="white" transform="translate(752.5 569)"/>
</clipPath>
<clipPath id="clip1_290_155">
<rect width="310" height="25" fill="white" transform="translate(378.5 569)"/>
</clipPath>
<clipPath id="clip2_290_155">
<rect width="310" height="25" fill="white" transform="translate(752.5 493)"/>
</clipPath>
<clipPath id="clip3_290_155">
<rect width="310" height="25" fill="white" transform="translate(378.5 493)"/>
</clipPath>
<clipPath id="clip4_290_155">
<rect width="310" height="25" fill="white" transform="translate(752.5 417)"/>
</clipPath>
<clipPath id="clip5_290_155">
<rect width="310" height="25" fill="white" transform="translate(378.5 417)"/>
</clipPath>
<clipPath id="clip6_290_155">
<rect width="20" height="20" fill="white" transform="translate(555 794.5)"/>
</clipPath>
<clipPath id="clip7_290_155">
<rect width="20" height="20" fill="white" transform="translate(617 794.5)"/>
</clipPath>
<clipPath id="clip8_290_155">
<rect width="23" height="23" fill="white" transform="translate(863.5 793)"/>
</clipPath>
</defs>
</svg>
